<svg width="690" height="605" viewBox="0 0 690 605" fill="none" xmlns="http://www.w3.org/2000/svg">
<path d="M0 53.988H690V301.795L341 420.982L0 301.795V53.988Z" fill="#1633FF" fill-opacity="0.43"/>
<path d="M0 26.994H690V274.801L341 393.988L0 274.801V26.994Z" fill="#1633FF" fill-opacity="0.71"/>
<path d="M0 0H690V247.807L341 366.994L0 247.807V0Z" fill="#1633FF"/>
<path d="M0 0H690V247.807L341 366.994L0 247.807V0Z" fill="url(#paint0_linear)"/>
<path d="M663.013 354.367L523.469 400.991L393 355.558L524.637 309.129L663.013 354.367Z" fill="#1633FF"/>
<path d="M663.013 370.81L523.469 417.433L393 372L524.637 325.571L663.013 370.81Z" fill="#1633FF" fill-opacity="0.79"/>
<path d="M663.013 387.252L523.469 433.876L393 388.443L524.637 342.014L663.013 387.252Z" fill="#1633FF" fill-opacity="0.43"/>
<path d="M472.699 433.197L333.284 480.205L202.37 433.197L340.87 388.071L472.699 433.197Z" fill="#1633FF"/>
<path d="M472.725 460.83L333.309 507.838L202.37 460.83L334.225 415.973L472.725 460.83Z" fill="#1633FF" fill-opacity="0.79"/>
<path d="M472.751 488.486L333.336 535.493L202.37 488.485L334.251 443.629L472.751 488.486Z" fill="#1633FF" fill-opacity="0.43"/>
<path d="M288.188 355.104L147.728 398.891L18.2067 350.825L150.757 307.072L288.188 355.104Z" fill="#1633FF"/>
<path d="M287.997 371.648L147.537 415.436L18.0156 367.369L150.566 323.617L287.997 371.648Z" fill="#1633FF" fill-opacity="0.79"/>
<path d="M287.806 388.193L147.346 431.981L17.8246 383.914L150.375 340.161L287.806 388.193Z" fill="#1633FF" fill-opacity="0.43"/>
<defs>
<linearGradient id="paint0_linear" x1="345" y1="1.45685e-06" x2="332" y2="252" gradientUnits="userSpaceOnUse">
<stop stop-color="#1633FF"/>
<stop offset="1" stop-color="#1633FF" stop-opacity="0.34"/>
</linearGradient>
</defs>
</svg>
