<svg width="736" height="409" viewBox="0 0 736 409" fill="none" xmlns="http://www.w3.org/2000/svg">
<rect y="6" width="736" height="403" fill="white"/>
<path d="M0 127H309L269.618 357L0 298V127Z" fill="#397CE0" fill-opacity="0.62"/>
<path d="M0 126H309L269.618 356L0 287V126Z" fill="#397CE0" fill-opacity="0.83"/>
<path d="M736 113H199L270.633 357L736 279V113Z" fill="#397CE0" fill-opacity="0.53"/>
<path opacity="0.6" d="M736 1H199L270.132 357L736 245.644V1Z" fill="#397CE0"/>
<path d="M0 0H735V210L270 357L0 278V0Z" fill="#1554A7"/>
<path d="M0 0H735V210L270 357L0 278V0Z" fill="url(#paint0_linear)"/>
<line x1="609.5" y1="95" x2="609.5" y2="218" stroke="white" stroke-opacity="0.35"/>
<line x1="536.5" y1="146" x2="536.5" y2="269" stroke="white" stroke-opacity="0.35"/>
<line x1="458.5" y1="100" x2="458.5" y2="223" stroke="white" stroke-opacity="0.35"/>
<line x1="378.5" y1="161" x2="378.5" y2="284" stroke="white" stroke-opacity="0.35"/>
<line x1="290.5" y1="207" x2="290.5" y2="330" stroke="white" stroke-opacity="0.35"/>
<line x1="189.5" y1="178" x2="189.5" y2="301" stroke="white" stroke-opacity="0.35"/>
<line x1="93.5" y1="113" x2="93.5" y2="236" stroke="white" stroke-opacity="0.35"/>
<defs>
<linearGradient id="paint0_linear" x1="367" y1="130" x2="362" y2="441" gradientUnits="userSpaceOnUse">
<stop stop-color="#1554A7"/>
<stop offset="1" stop-color="#397CE0" stop-opacity="0.95"/>
</linearGradient>
</defs>
</svg>
