<svg width="690" height="583" viewBox="0 0 690 583" fill="none" xmlns="http://www.w3.org/2000/svg">
<path d="M0 53.988H690V301.795L341 420.982L0 301.795V53.988Z" fill="#1633FF" fill-opacity="0.43"/>
<path d="M0 26.994H690V274.801L341 393.988L0 274.801V26.994Z" fill="#1633FF" fill-opacity="0.71"/>
<path d="M0 0H690V247.807L341 366.994L0 247.807V0Z" fill="#1633FF"/>
<path d="M0 0H690V247.807L341 366.994L0 247.807V0Z" fill="url(#paint0_linear)"/>
<path d="M663.013 354.367L523.469 400.991L393 355.558L524.637 309.129L663.013 354.367Z" fill="#1633FF"/>
<path d="M663.013 370.81L523.469 417.433L393 372L524.637 325.571L663.013 370.81Z" fill="#1633FF" fill-opacity="0.79"/>
<path d="M663.013 387.252L523.469 433.876L393 388.443L524.637 342.014L663.013 387.252Z" fill="#1633FF" fill-opacity="0.43"/>
<path d="M473.013 283.126L333.469 329.75L203 284.316L334.637 237.888L473.013 283.126Z" fill="#001CDF"/>
<path d="M473.013 299.569L333.469 346.192L203 300.759L334.637 254.33L473.013 299.569Z" fill="#1633FF" fill-opacity="0.69"/>
<path d="M473.013 316.011L333.469 362.635L203 317.202L334.637 270.773L473.013 316.011Z" fill="#1633FF" fill-opacity="0.43"/>
<path d="M645.013 217.126L505.469 263.75L375 218.316L506.637 171.888L645.013 217.126Z" fill="#001CDF"/>
<path d="M645.013 233.569L505.469 280.192L375 234.759L506.637 188.33L645.013 233.569Z" fill="#1633FF" fill-opacity="0.69"/>
<path d="M645.013 250.011L505.469 296.635L375 251.202L506.637 204.773L645.013 250.011Z" fill="#1633FF" fill-opacity="0.43"/>
<path d="M472.013 151.126L332.469 197.75L202 152.316L333.637 105.888L472.013 151.126Z" fill="#001CDF"/>
<path d="M472.013 167.569L332.469 214.192L202 168.759L333.637 122.33L472.013 167.569Z" fill="#1633FF" fill-opacity="0.69"/>
<path d="M472.013 184.011L332.469 230.635L202 185.202L333.637 138.773L472.013 184.011Z" fill="#1633FF" fill-opacity="0.43"/>
<path d="M300.013 217.126L160.469 263.75L30 218.316L161.637 171.888L300.013 217.126Z" fill="#001CDF"/>
<path d="M300.013 233.569L160.469 280.192L30 234.759L161.637 188.33L300.013 233.569Z" fill="#1633FF" fill-opacity="0.69"/>
<path d="M300.013 250.011L160.469 296.635L30 251.202L161.637 204.773L300.013 250.011Z" fill="#1633FF" fill-opacity="0.43"/>
<path d="M472.699 433.197L333.284 480.205L202.37 433.197L340.87 388.071L472.699 433.197Z" fill="#1633FF"/>
<path d="M472.725 449.83L333.309 496.838L202.37 449.83L334.225 404.973L472.725 449.83Z" fill="#1633FF" fill-opacity="0.79"/>
<path d="M472.751 466.486L333.336 513.493L202.37 466.486L334.252 421.629L472.751 466.486Z" fill="#1633FF" fill-opacity="0.43"/>
<path d="M288.188 355.104L147.728 398.891L18.2067 350.825L150.757 307.072L288.188 355.104Z" fill="#1633FF"/>
<path d="M287.997 371.648L147.537 415.436L18.0156 367.369L150.566 323.617L287.997 371.648Z" fill="#1633FF" fill-opacity="0.79"/>
<path d="M287.806 388.193L147.346 431.981L17.8246 383.914L150.375 340.161L287.806 388.193Z" fill="#1633FF" fill-opacity="0.43"/>
<defs>
<linearGradient id="paint0_linear" x1="345" y1="1.45685e-06" x2="332" y2="252" gradientUnits="userSpaceOnUse">
<stop stop-color="#1633FF"/>
<stop offset="1" stop-color="#1633FF" stop-opacity="0.34"/>
</linearGradient>
</defs>
</svg>
