<svg width="736" height="409" viewBox="0 0 736 409" fill="none" xmlns="http://www.w3.org/2000/svg">
<rect y="6" width="736" height="403" fill="white"/>
<path d="M0 127H309L269.618 357L0 298V127Z" fill="#397CE0" fill-opacity="0.62"/>
<path d="M0 126H309L269.618 356L0 287V126Z" fill="#397CE0" fill-opacity="0.83"/>
<path d="M736 113H199L270.633 357L736 279V113Z" fill="#397CE0" fill-opacity="0.53"/>
<path opacity="0.6" d="M736 1H199L270.132 357L736 245.644V1Z" fill="#397CE0"/>
<path d="M0 0H735V210L270 357L0 278V0Z" fill="#1554A7"/>
<path d="M0 0H735V210L270 357L0 278V0Z" fill="url(#paint0_linear)"/>
<circle cx="353.086" cy="90.0863" r="13.0459" transform="rotate(-4.77372 353.086 90.0863)" fill="white" fill-opacity="0.17"/>
<line x1="366.149" y1="89.748" x2="353.149" y2="90.8337" stroke="#1555A8" stroke-width="1.5"/>
<line x1="352.748" y1="77.0232" x2="354.919" y2="103.025" stroke="#1555A8" stroke-width="1.5"/>
<circle cx="663.086" cy="186.086" r="13.0459" transform="rotate(-4.77372 663.086 186.086)" fill="white" fill-opacity="0.17"/>
<line x1="676.149" y1="185.748" x2="663.149" y2="186.834" stroke="#1555A8" stroke-width="1.5"/>
<line x1="662.748" y1="173.023" x2="664.919" y2="199.025" stroke="#1555A8" stroke-width="1.5"/>
<circle cx="133.086" cy="266.086" r="13.0459" transform="rotate(-4.77372 133.086 266.086)" fill="white" fill-opacity="0.17"/>
<line x1="146.149" y1="265.748" x2="133.149" y2="266.834" stroke="#1555A8" stroke-width="1.5"/>
<line x1="132.748" y1="253.023" x2="134.919" y2="279.025" stroke="#1555A8" stroke-width="1.5"/>
<line x1="673.664" y1="76.7118" x2="679.942" y2="49.9212" stroke="white" stroke-opacity="0.17"/>
<line x1="710.307" y1="85.8114" x2="673.886" y2="77.2766" stroke="white" stroke-opacity="0.17"/>
<rect x="677.635" y="63.9879" width="4.94645" height="12.9844" transform="rotate(13.1887 677.635 63.9879)" fill="white" fill-opacity="0.17"/>
<rect x="684.995" y="59.6796" width="4.94645" height="18.8583" transform="rotate(13.1887 684.995 59.6796)" fill="white" fill-opacity="0.17"/>
<rect x="689.323" y="68.3143" width="4.94645" height="11.4387" transform="rotate(13.1887 689.323 68.3143)" fill="white" fill-opacity="0.17"/>
<rect x="695.977" y="67.016" width="4.94645" height="14.221" transform="rotate(13.1887 695.977 67.016)" fill="white" fill-opacity="0.17"/>
<rect x="699.952" y="77.1557" width="4.94645" height="5.25561" transform="rotate(13.1887 699.952 77.1557)" fill="white" fill-opacity="0.17"/>
<rect x="710.486" y="59.3025" width="4.94645" height="25.0414" transform="rotate(13.1887 710.486 59.3025)" fill="white" fill-opacity="0.17"/>
<line x1="401.664" y1="152.712" x2="407.942" y2="125.921" stroke="white" stroke-opacity="0.17"/>
<line x1="438.307" y1="161.811" x2="401.886" y2="153.277" stroke="white" stroke-opacity="0.17"/>
<rect x="405.635" y="139.988" width="4.94645" height="12.9844" transform="rotate(13.1887 405.635 139.988)" fill="white" fill-opacity="0.17"/>
<rect x="412.995" y="135.68" width="4.94645" height="18.8583" transform="rotate(13.1887 412.995 135.68)" fill="white" fill-opacity="0.17"/>
<rect x="417.323" y="144.314" width="4.94645" height="11.4387" transform="rotate(13.1887 417.323 144.314)" fill="white" fill-opacity="0.17"/>
<rect x="423.977" y="143.016" width="4.94645" height="14.221" transform="rotate(13.1887 423.977 143.016)" fill="white" fill-opacity="0.17"/>
<rect x="427.952" y="153.156" width="4.94645" height="5.25561" transform="rotate(13.1887 427.952 153.156)" fill="white" fill-opacity="0.17"/>
<rect x="438.486" y="135.303" width="4.94645" height="25.0414" transform="rotate(13.1887 438.486 135.303)" fill="white" fill-opacity="0.17"/>
<rect x="241.235" y="302.861" width="15.1765" height="2.29412" transform="rotate(-15.2045 241.235 302.861)" fill="white" fill-opacity="0.17"/>
<rect x="242.207" y="306.437" width="15.1765" height="2.29412" transform="rotate(-15.2045 242.207 306.437)" fill="white" fill-opacity="0.17"/>
<rect x="243.225" y="310.183" width="15.1765" height="2.29412" transform="rotate(-15.2045 243.225 310.183)" fill="white" fill-opacity="0.17"/>
<rect x="244.243" y="313.93" width="15.1765" height="2.29412" transform="rotate(-15.2045 244.243 313.93)" fill="white" fill-opacity="0.17"/>
<circle cx="239.918" cy="304.407" r="1.14706" transform="rotate(-15.2045 239.918 304.407)" fill="white" fill-opacity="0.17"/>
<circle cx="240.89" cy="307.984" r="1.14706" transform="rotate(-15.2045 240.89 307.984)" fill="white" fill-opacity="0.17"/>
<circle cx="241.908" cy="311.73" r="1.14706" transform="rotate(-15.2045 241.908 311.73)" fill="white" fill-opacity="0.17"/>
<circle cx="242.926" cy="315.476" r="1.14706" transform="rotate(-15.2045 242.926 315.476)" fill="white" fill-opacity="0.17"/>
<path d="M415.272 244.504C416.308 229.604 431.644 234.528 430.82 243.597C430.219 250.205 422.916 252.278 422.916 251.371" stroke="white" stroke-opacity="0.17" stroke-width="2"/>
<rect x="422.009" y="250.464" width="1.81394" height="13.475" fill="white" fill-opacity="0.17"/>
<circle cx="423.046" cy="268.344" r="2.3322" fill="white" fill-opacity="0.17"/>
<path d="M528 63.5042C529.037 48.604 544.373 53.5275 543.548 62.5972C542.947 69.2051 535.644 71.2782 535.644 70.3712" stroke="white" stroke-opacity="0.17" stroke-width="2"/>
<rect x="534.737" y="69.4642" width="1.81394" height="13.475" fill="white" fill-opacity="0.17"/>
<circle cx="535.774" cy="87.3445" r="2.3322" fill="white" fill-opacity="0.17"/>
<rect x="46.4804" y="88.9176" width="6.68567" height="2.38774" transform="rotate(-30.2009 46.4804 88.9176)" fill="white" fill-opacity="0.17"/>
<rect x="54.1159" y="84.4734" width="6.68567" height="2.38774" transform="rotate(-30.2009 54.1159 84.4734)" fill="white" fill-opacity="0.17"/>
<rect x="61.271" y="79.2039" width="8.35708" height="3.34283" transform="rotate(-30.2009 61.271 79.2039)" fill="white" fill-opacity="0.17"/>
<rect x="48.5223" y="92.4258" width="6.68567" height="2.38774" transform="rotate(-30.2009 48.5223 92.4258)" fill="white" fill-opacity="0.17"/>
<rect x="56.1578" y="87.9816" width="6.68567" height="2.38774" transform="rotate(-30.2009 56.1578 87.9816)" fill="white" fill-opacity="0.17"/>
<rect x="63.7933" y="83.5375" width="6.68567" height="2.38774" transform="rotate(-30.2009 63.7933 83.5375)" fill="white" fill-opacity="0.17"/>
<rect x="50.5642" y="95.9339" width="6.68567" height="2.38774" transform="rotate(-30.2009 50.5642 95.9339)" fill="white" fill-opacity="0.17"/>
<rect x="58.1997" y="91.4898" width="6.68567" height="2.38774" transform="rotate(-30.2009 58.1997 91.4898)" fill="white" fill-opacity="0.17"/>
<rect x="65.8352" y="87.0457" width="6.68567" height="2.38774" transform="rotate(-30.2009 65.8352 87.0457)" fill="white" fill-opacity="0.17"/>
<rect x="52.6061" y="99.4421" width="6.68567" height="2.38774" transform="rotate(-30.2009 52.6061 99.4421)" fill="white" fill-opacity="0.17"/>
<rect x="60.2416" y="94.998" width="6.68567" height="2.38774" transform="rotate(-30.2009 60.2416 94.998)" fill="white" fill-opacity="0.17"/>
<rect x="67.8771" y="90.5539" width="6.68567" height="2.38774" transform="rotate(-30.2009 67.8771 90.5539)" fill="white" fill-opacity="0.17"/>
<rect x="52.6061" y="99.4421" width="6.68567" height="2.38774" transform="rotate(-30.2009 52.6061 99.4421)" fill="white" fill-opacity="0.17"/>
<rect x="60.2416" y="94.998" width="6.68567" height="2.38774" transform="rotate(-30.2009 60.2416 94.998)" fill="white" fill-opacity="0.17"/>
<rect x="67.8771" y="90.5539" width="6.68567" height="2.38774" transform="rotate(-30.2009 67.8771 90.5539)" fill="white" fill-opacity="0.17"/>
<rect x="54.648" y="102.95" width="6.68567" height="2.38774" transform="rotate(-30.2009 54.648 102.95)" fill="white" fill-opacity="0.17"/>
<rect x="62.2835" y="98.5062" width="6.68567" height="2.38774" transform="rotate(-30.2009 62.2835 98.5062)" fill="white" fill-opacity="0.17"/>
<rect x="69.919" y="94.0621" width="6.68567" height="2.38774" transform="rotate(-30.2009 69.919 94.0621)" fill="white" fill-opacity="0.17"/>
<rect x="207.48" y="158.918" width="6.68567" height="2.38774" transform="rotate(-30.2009 207.48 158.918)" fill="white" fill-opacity="0.17"/>
<rect x="215.116" y="154.473" width="6.68567" height="2.38774" transform="rotate(-30.2009 215.116 154.473)" fill="white" fill-opacity="0.17"/>
<rect x="222.271" y="149.204" width="8.35708" height="3.34283" transform="rotate(-30.2009 222.271 149.204)" fill="white" fill-opacity="0.17"/>
<rect x="209.522" y="162.426" width="6.68567" height="2.38774" transform="rotate(-30.2009 209.522 162.426)" fill="white" fill-opacity="0.17"/>
<rect x="217.158" y="157.982" width="6.68567" height="2.38774" transform="rotate(-30.2009 217.158 157.982)" fill="white" fill-opacity="0.17"/>
<rect x="224.793" y="153.538" width="6.68567" height="2.38774" transform="rotate(-30.2009 224.793 153.538)" fill="white" fill-opacity="0.17"/>
<rect x="211.564" y="165.934" width="6.68567" height="2.38774" transform="rotate(-30.2009 211.564 165.934)" fill="white" fill-opacity="0.17"/>
<rect x="219.2" y="161.49" width="6.68567" height="2.38774" transform="rotate(-30.2009 219.2 161.49)" fill="white" fill-opacity="0.17"/>
<rect x="226.835" y="157.046" width="6.68567" height="2.38774" transform="rotate(-30.2009 226.835 157.046)" fill="white" fill-opacity="0.17"/>
<rect x="213.606" y="169.442" width="6.68567" height="2.38774" transform="rotate(-30.2009 213.606 169.442)" fill="white" fill-opacity="0.17"/>
<rect x="221.242" y="164.998" width="6.68567" height="2.38774" transform="rotate(-30.2009 221.242 164.998)" fill="white" fill-opacity="0.17"/>
<rect x="228.877" y="160.554" width="6.68567" height="2.38774" transform="rotate(-30.2009 228.877 160.554)" fill="white" fill-opacity="0.17"/>
<rect x="213.606" y="169.442" width="6.68567" height="2.38774" transform="rotate(-30.2009 213.606 169.442)" fill="white" fill-opacity="0.17"/>
<rect x="221.242" y="164.998" width="6.68567" height="2.38774" transform="rotate(-30.2009 221.242 164.998)" fill="white" fill-opacity="0.17"/>
<rect x="228.877" y="160.554" width="6.68567" height="2.38774" transform="rotate(-30.2009 228.877 160.554)" fill="white" fill-opacity="0.17"/>
<rect x="215.648" y="172.95" width="6.68567" height="2.38774" transform="rotate(-30.2009 215.648 172.95)" fill="white" fill-opacity="0.17"/>
<rect x="223.283" y="168.506" width="6.68567" height="2.38774" transform="rotate(-30.2009 223.283 168.506)" fill="white" fill-opacity="0.17"/>
<rect x="230.919" y="164.062" width="6.68567" height="2.38774" transform="rotate(-30.2009 230.919 164.062)" fill="white" fill-opacity="0.17"/>
<rect x="468.48" y="248.918" width="6.68567" height="2.38774" transform="rotate(-30.2009 468.48 248.918)" fill="white" fill-opacity="0.17"/>
<rect x="476.116" y="244.473" width="6.68567" height="2.38774" transform="rotate(-30.2009 476.116 244.473)" fill="white" fill-opacity="0.17"/>
<rect x="483.271" y="239.204" width="8.35708" height="3.34283" transform="rotate(-30.2009 483.271 239.204)" fill="white" fill-opacity="0.17"/>
<rect x="470.522" y="252.426" width="6.68567" height="2.38774" transform="rotate(-30.2009 470.522 252.426)" fill="white" fill-opacity="0.17"/>
<rect x="478.158" y="247.982" width="6.68567" height="2.38774" transform="rotate(-30.2009 478.158 247.982)" fill="white" fill-opacity="0.17"/>
<rect x="485.793" y="243.538" width="6.68567" height="2.38774" transform="rotate(-30.2009 485.793 243.538)" fill="white" fill-opacity="0.17"/>
<rect x="472.564" y="255.934" width="6.68567" height="2.38774" transform="rotate(-30.2009 472.564 255.934)" fill="white" fill-opacity="0.17"/>
<rect x="480.2" y="251.49" width="6.68567" height="2.38774" transform="rotate(-30.2009 480.2 251.49)" fill="white" fill-opacity="0.17"/>
<rect x="487.835" y="247.046" width="6.68567" height="2.38774" transform="rotate(-30.2009 487.835 247.046)" fill="white" fill-opacity="0.17"/>
<rect x="474.606" y="259.442" width="6.68567" height="2.38774" transform="rotate(-30.2009 474.606 259.442)" fill="white" fill-opacity="0.17"/>
<rect x="482.242" y="254.998" width="6.68567" height="2.38774" transform="rotate(-30.2009 482.242 254.998)" fill="white" fill-opacity="0.17"/>
<rect x="489.877" y="250.554" width="6.68567" height="2.38774" transform="rotate(-30.2009 489.877 250.554)" fill="white" fill-opacity="0.17"/>
<rect x="474.606" y="259.442" width="6.68567" height="2.38774" transform="rotate(-30.2009 474.606 259.442)" fill="white" fill-opacity="0.17"/>
<rect x="482.242" y="254.998" width="6.68567" height="2.38774" transform="rotate(-30.2009 482.242 254.998)" fill="white" fill-opacity="0.17"/>
<rect x="489.877" y="250.554" width="6.68567" height="2.38774" transform="rotate(-30.2009 489.877 250.554)" fill="white" fill-opacity="0.17"/>
<rect x="476.648" y="262.95" width="6.68567" height="2.38774" transform="rotate(-30.2009 476.648 262.95)" fill="white" fill-opacity="0.17"/>
<rect x="484.283" y="258.506" width="6.68567" height="2.38774" transform="rotate(-30.2009 484.283 258.506)" fill="white" fill-opacity="0.17"/>
<rect x="491.919" y="254.062" width="6.68567" height="2.38774" transform="rotate(-30.2009 491.919 254.062)" fill="white" fill-opacity="0.17"/>
<line x1="609.5" y1="95" x2="609.5" y2="218" stroke="white" stroke-opacity="0.35"/>
<line x1="536.5" y1="146" x2="536.5" y2="269" stroke="white" stroke-opacity="0.35"/>
<line x1="458.5" y1="100" x2="458.5" y2="223" stroke="white" stroke-opacity="0.35"/>
<line x1="378.5" y1="161" x2="378.5" y2="284" stroke="white" stroke-opacity="0.35"/>
<line x1="290.5" y1="207" x2="290.5" y2="330" stroke="white" stroke-opacity="0.35"/>
<line x1="189.5" y1="178" x2="189.5" y2="301" stroke="white" stroke-opacity="0.35"/>
<line x1="93.5" y1="113" x2="93.5" y2="236" stroke="white" stroke-opacity="0.35"/>
<defs>
<linearGradient id="paint0_linear" x1="367" y1="130" x2="362" y2="441" gradientUnits="userSpaceOnUse">
<stop stop-color="#1554A7"/>
<stop offset="1" stop-color="#397CE0" stop-opacity="0.95"/>
</linearGradient>
</defs>
</svg>
