<svg width="97" height="62" viewBox="0 0 97 62" fill="none" xmlns="http://www.w3.org/2000/svg">
<circle cx="31" cy="31" r="31" fill="#1633FF" fill-opacity="0.26"/>
<path fill-rule="evenodd" clip-rule="evenodd" d="M33.88 54.1037L40.8112 50.0671C41.0113 50.2807 41.2409 50.464 41.4929 50.6113C42.9304 51.4449 44.7639 50.95 45.5988 49.5C46.4252 48.05 45.9346 46.2008 44.497 45.3586C44.2469 45.2133 43.9773 45.105 43.6965 45.0371V36.9609C43.9742 36.8929 44.2409 36.7854 44.4885 36.6416C45.9346 35.7994 46.4252 33.95 45.5903 32.5C44.7639 31.0501 42.9218 30.5552 41.4843 31.3887C41.2058 31.5498 40.9549 31.7553 40.7413 31.9971L33.8523 27.9853C33.9532 27.6772 34.0045 27.3547 34.0041 27.0302C34.0041 25.3632 32.6614 24 31 24C29.3386 24 27.9959 25.3546 27.9959 27.0302C27.9959 27.3281 28.0383 27.6158 28.1174 27.8875L21.1881 31.9229C20.9902 31.7136 20.7638 31.5337 20.5157 31.3887C19.0696 30.5552 17.2361 31.0501 16.4097 32.5C15.5834 33.95 16.0741 35.7994 17.5115 36.6416C17.7591 36.7854 18.0258 36.893 18.3035 36.9611V45.0371C18.0227 45.105 17.7531 45.2133 17.503 45.3586C16.0654 46.192 15.5748 48.05 16.4012 49.5C17.2276 50.95 19.0695 51.4449 20.5071 50.6113C20.7577 50.4648 20.9862 50.2827 21.1856 50.0706L28.1187 54.1082C28.037 54.388 27.9956 54.6782 27.9959 54.9699C27.9959 56.6454 29.3386 58 31 58C32.6614 58 34.0041 56.6455 34.0041 54.9699C34.0041 54.6687 33.9607 54.3781 33.88 54.1037ZM33.1579 52.86L40.1056 48.814C39.9949 48.4239 39.9632 48.0154 40.0123 47.6127C40.0613 47.21 40.1902 46.8213 40.3912 46.4699C40.8141 45.7278 41.503 45.2359 42.2677 45.0442V36.958C42.2286 36.9484 42.1899 36.9379 42.1513 36.9268L33.0771 52.779C33.1046 52.8055 33.1315 52.8325 33.1579 52.8599V52.86ZM28.9247 52.7773L19.8507 36.9252C19.8115 36.9367 19.772 36.9473 19.7323 36.9572V45.0442C20.497 45.2359 21.1859 45.7278 21.6088 46.4699C21.8102 46.822 21.9392 47.2115 21.9881 47.615C22.0369 48.0185 22.0047 48.4278 21.8933 48.8184L28.8389 52.8633C28.867 52.8341 28.8956 52.8054 28.9247 52.7774V52.7773ZM31.8394 52.0592L40.9113 36.2107C40.7035 36.0107 40.5254 35.7815 40.3825 35.5302C40.2399 35.2804 40.1333 35.0115 40.0658 34.7314H21.9344C21.8669 35.0115 21.7602 35.2805 21.6175 35.5302C21.4741 35.7798 21.2963 36.0076 21.0895 36.2068L30.1632 52.0585C30.4352 51.9795 30.7169 51.9395 31 51.9398C31.2914 51.9398 31.573 51.9814 31.8394 52.0592ZM33.2216 29.0716L40.1242 33.0914C40.1035 33.157 40.085 33.2233 40.0688 33.2902H21.9305C21.9209 33.2508 21.9105 33.2118 21.8994 33.1729L28.8357 29.1334C29.1158 29.4272 29.4519 29.6607 29.8239 29.82C30.1958 29.9793 30.5959 30.0611 31 30.0603C31.4182 30.0611 31.832 29.9735 32.2146 29.8032C32.5972 29.6329 32.9403 29.3837 33.2216 29.0716Z" fill="#1633FF"/>
<path d="M63.1855 48.6685C62.5833 49.5311 61.741 50.1781 60.6587 50.6094C59.5845 51.0326 58.3312 51.2441 56.8989 51.2441C55.4504 51.2441 54.1646 50.9064 53.0415 50.231C51.9185 49.5474 51.0477 48.5789 50.4292 47.3257C49.8188 46.0724 49.5055 44.6198 49.4893 42.9678V41.4175C49.4893 38.7401 50.1118 36.6649 51.3569 35.1919C52.6102 33.7189 54.368 32.9824 56.6304 32.9824C58.4858 32.9824 59.9792 33.4585 61.1104 34.4106C62.2415 35.3547 62.9333 36.6974 63.1855 38.439H60.8418C60.4023 36.0871 59.0026 34.9111 56.6426 34.9111C55.0719 34.9111 53.8797 35.4645 53.0659 36.5713C52.2603 37.6699 51.8534 39.265 51.8452 41.3564V42.8091C51.8452 44.8029 52.3009 46.3898 53.2124 47.5698C54.1239 48.7417 55.3568 49.3276 56.9111 49.3276C57.79 49.3276 58.5591 49.23 59.2183 49.0347C59.8774 48.8394 60.4227 48.5098 60.854 48.0459V44.0542H56.7402V42.1499H63.1855V48.6685ZM80.6782 42.687C80.6782 44.4041 80.4056 45.8853 79.8604 47.1304C79.3151 48.3674 78.5501 49.3358 77.5654 50.0356L80.7393 52.5259L79.1401 54.0029L75.3926 51.0244C74.8066 51.1709 74.1882 51.2441 73.5371 51.2441C72.1374 51.2441 70.8963 50.9023 69.814 50.2188C68.7316 49.527 67.8893 48.5464 67.2871 47.2769C66.693 45.9992 66.3879 44.5221 66.3716 42.8457V41.564C66.3716 39.855 66.6686 38.3454 67.2627 37.0352C67.8568 35.7249 68.695 34.724 69.7773 34.0322C70.8678 33.3324 72.113 32.9824 73.5127 32.9824C74.945 32.9824 76.2023 33.3283 77.2847 34.02C78.3752 34.7118 79.2134 35.7087 79.7993 37.0107C80.3853 38.3047 80.6782 39.8184 80.6782 41.5518V42.687ZM78.3345 41.5396C78.3345 39.4481 77.9154 37.8368 77.0771 36.7056C76.2471 35.5662 75.0589 34.9966 73.5127 34.9966C72.0397 34.9966 70.876 35.5622 70.0215 36.6934C69.1751 37.8164 68.7397 39.3789 68.7153 41.3809V42.687C68.7153 44.7215 69.1385 46.3247 69.9849 47.4966C70.8394 48.6685 72.0234 49.2544 73.5371 49.2544C75.0508 49.2544 76.2227 48.7051 77.0527 47.6064C77.8828 46.4997 78.3101 44.9168 78.3345 42.8579V41.5396ZM86.6475 49.0835H95.0703V51H84.2915V33.2266H86.6475V49.0835Z" fill="#1633FF"/>
</svg>
