<svg width="79" height="62" viewBox="0 0 79 62" fill="none" xmlns="http://www.w3.org/2000/svg">
<circle cx="31" cy="31" r="31" fill="#1633FF" fill-opacity="0.26"/>
<rect x="63" y="22" width="16" height="35" fill="white"/>
<path fill-rule="evenodd" clip-rule="evenodd" d="M56.456 54.5307L64.7734 49.9005C65.0135 50.1455 65.2891 50.3557 65.5915 50.5248C67.3164 51.4809 69.5167 50.9132 70.5186 49.25C71.5103 47.5868 70.9215 45.4656 69.1965 44.4995C68.8962 44.3328 68.5727 44.2086 68.2358 44.1307V34.867C68.569 34.7889 68.889 34.6656 69.1862 34.5006C70.9215 33.5346 71.5103 31.4132 70.5083 29.75C69.5167 28.0869 67.3062 27.5192 65.5811 28.4752C65.2469 28.6601 64.9459 28.8957 64.6896 29.1731L56.4228 24.5714C56.5439 24.2179 56.6054 23.8481 56.6049 23.4758C56.6049 21.5637 54.9936 20 53 20C51.0064 20 49.3951 21.5538 49.3951 23.4758C49.3951 23.8175 49.446 24.1475 49.5409 24.4592L41.2258 29.0881C40.9883 28.848 40.7166 28.6416 40.4189 28.4752C38.6836 27.5192 36.4833 28.0869 35.4917 29.75C34.5001 31.4132 35.0889 33.5346 36.8138 34.5006C37.111 34.6656 37.431 34.789 37.7642 34.8671V44.1307C37.4273 44.2086 37.1038 44.3328 36.8035 44.4995C35.0785 45.4555 34.4897 47.5868 35.4814 49.25C36.4731 50.9132 38.6834 51.4809 40.4085 50.5248C40.7093 50.3567 40.9835 50.1478 41.2227 49.9045L49.5425 54.5359C49.4444 54.8568 49.3948 55.1897 49.3951 55.5243C49.3951 57.4462 51.0064 59 53 59C54.9936 59 56.6049 57.4463 56.6049 55.5243C56.6049 55.1788 56.5529 54.8454 56.456 54.5307ZM55.5895 53.1041L63.9267 48.4631C63.7939 48.0156 63.7558 47.547 63.8147 47.0851C63.8736 46.6232 64.0282 46.1774 64.2694 45.7743C64.7769 44.9231 65.6036 44.3588 66.5212 44.1389V34.8636C66.4744 34.8526 66.4278 34.8405 66.3816 34.8278L55.4926 53.0112C55.5255 53.0416 55.5578 53.0725 55.5895 53.104V53.1041ZM50.5097 53.0092L39.6208 34.826C39.5737 34.8391 39.5264 34.8513 39.4788 34.8626V44.1389C40.3964 44.3588 41.2231 44.9231 41.7306 45.7743C41.9723 46.1782 42.127 46.6249 42.1857 47.0878C42.2443 47.5506 42.2056 48.0201 42.0719 48.4682L50.4067 53.1079C50.4404 53.0744 50.4747 53.0415 50.5097 53.0093V53.0092ZM54.0073 52.1855L64.8936 34.0064C64.6443 33.777 64.4305 33.5141 64.259 33.2258C64.0879 32.9393 63.9599 32.6308 63.879 32.3096H42.1213C42.0402 32.6308 41.9122 32.9393 41.741 33.2258C41.5689 33.5121 41.3556 33.7734 41.1074 34.0019L51.9958 52.1847C52.3222 52.0941 52.6603 52.0483 53 52.0486C53.3497 52.0486 53.6877 52.0963 54.0073 52.1855ZM55.666 25.8174L63.949 30.4283C63.9242 30.5036 63.902 30.5797 63.8825 30.6564H42.1166C42.1051 30.6112 42.0926 30.5665 42.0792 30.5219L50.4028 25.8883C50.7389 26.2253 51.1423 26.4932 51.5887 26.6759C52.035 26.8587 52.5151 26.9524 53 26.9515C53.5019 26.9524 53.9984 26.8519 54.4575 26.6566C54.9167 26.4612 55.3283 26.1754 55.666 25.8174V25.8174Z" fill="#1633FF"/>
</svg>
