<svg width="485" height="377" viewBox="0 0 485 377" fill="none" xmlns="http://www.w3.org/2000/svg">
<g filter="url(#filter0_d_15_28)">
<rect width="155.591" height="91.15" transform="matrix(0.877608 0.479379 -2.32855e-08 1 233.827 57.5632)" fill="#0020FF"/>
<rect width="58.3465" height="6.07667" transform="matrix(0.877608 0.479379 -2.32855e-08 1 275.075 175.802)" fill="#0020FF"/>
<rect width="145.866" height="82.035" transform="matrix(0.877608 0.479379 -2.32855e-08 1 238.094 64.4516)" fill="white"/>
<rect width="43.7599" height="101.784" transform="matrix(0.877608 0.479379 -2.32855e-08 1 378.909 136.812)" fill="#0020FF"/>
<rect width="34.0355" height="4.5575" transform="matrix(0.877608 0.479379 -2.32855e-08 1 383.176 148.258)" fill="white"/>
<rect width="34.0355" height="4.5575" transform="matrix(0.877608 0.479379 -2.32855e-08 1 383.176 157.373)" fill="white"/>
<rect width="34.0355" height="4.5575" transform="matrix(0.877608 0.479379 -2.32855e-08 1 383.176 166.488)" fill="white"/>
</g>
<g filter="url(#filter1_d_15_28)">
<rect width="147.252" height="45.5736" transform="matrix(0.877608 0.479379 -0.877608 0.479379 190.391 166.618)" fill="#D9D9D9" fill-opacity="0.56"/>
<rect width="5.19713" height="3.50566" transform="matrix(0.877608 0.479379 -0.877608 0.479379 191.876 170.79)" fill="white"/>
<rect width="5.19713" height="3.50566" transform="matrix(0.877608 0.479379 -0.877608 0.479379 197.957 174.112)" fill="white"/>
<rect width="5.19713" height="3.50566" transform="matrix(0.877608 0.479379 -0.877608 0.479379 204.038 177.433)" fill="white"/>
<rect width="5.19713" height="3.50566" transform="matrix(0.877608 0.479379 -0.877608 0.479379 210.12 180.755)" fill="white"/>
<rect width="5.19713" height="3.50566" transform="matrix(0.877608 0.479379 -0.877608 0.479379 216.201 184.077)" fill="white"/>
<rect width="5.19713" height="3.50566" transform="matrix(0.877608 0.479379 -0.877608 0.479379 222.283 187.399)" fill="white"/>
<rect width="5.19713" height="3.50566" transform="matrix(0.877608 0.479379 -0.877608 0.479379 228.364 190.721)" fill="white"/>
<rect width="5.19713" height="3.50566" transform="matrix(0.877608 0.479379 -0.877608 0.479379 234.446 194.043)" fill="white"/>
<rect width="5.19713" height="3.50566" transform="matrix(0.877608 0.479379 -0.877608 0.479379 240.527 197.365)" fill="white"/>
<rect width="5.19713" height="3.50566" transform="matrix(0.877608 0.479379 -0.877608 0.479379 246.608 200.686)" fill="white"/>
<rect width="5.19713" height="3.50566" transform="matrix(0.877608 0.479379 -0.877608 0.479379 252.69 204.008)" fill="white"/>
<rect width="5.19713" height="3.50566" transform="matrix(0.877608 0.479379 -0.877608 0.479379 258.771 207.33)" fill="white"/>
<rect width="5.19713" height="3.50566" transform="matrix(0.877608 0.479379 -0.877608 0.479379 264.853 210.652)" fill="white"/>
<rect width="5.19713" height="3.50566" transform="matrix(0.877608 0.479379 -0.877608 0.479379 270.934 213.974)" fill="white"/>
<rect width="5.19713" height="3.50566" transform="matrix(0.877608 0.479379 -0.877608 0.479379 277.015 217.296)" fill="white"/>
<rect width="5.19713" height="3.50566" transform="matrix(0.877608 0.479379 -0.877608 0.479379 283.097 220.618)" fill="white"/>
<rect width="5.19713" height="3.50566" transform="matrix(0.877608 0.479379 -0.877608 0.479379 289.178 223.939)" fill="white"/>
<rect width="5.19713" height="3.50566" transform="matrix(0.877608 0.479379 -0.877608 0.479379 295.259 227.261)" fill="white"/>
<rect width="5.19713" height="3.50566" transform="matrix(0.877608 0.479379 -0.877608 0.479379 301.341 230.583)" fill="white"/>
<rect width="5.19713" height="3.50566" transform="matrix(0.877608 0.479379 -0.877608 0.479379 307.422 233.905)" fill="white"/>
<rect width="5.19713" height="5.25849" transform="matrix(0.877608 0.479379 -0.877608 0.479379 187.261 173.31)" fill="white"/>
<rect width="5.19713" height="5.25849" transform="matrix(0.877608 0.479379 -0.877608 0.479379 193.342 176.632)" fill="white"/>
<rect width="10.3943" height="5.25849" transform="matrix(0.877608 0.479379 -0.877608 0.479379 181.108 176.672)" fill="white"/>
<rect width="12.1266" height="5.25849" transform="matrix(0.877608 0.479379 -0.877608 0.479379 174.955 180.033)" fill="white"/>
<rect width="6.92951" height="5.25849" transform="matrix(0.877608 0.479379 -0.877608 0.479379 168.801 183.394)" fill="white"/>
<rect width="6.92951" height="5.25849" transform="matrix(0.877608 0.479379 -0.877608 0.479379 162.648 186.755)" fill="white"/>
<rect width="3.46475" height="5.25849" transform="matrix(0.877608 0.479379 -0.877608 0.479379 176.403 187.546)" fill="white"/>
<rect width="3.46475" height="5.25849" transform="matrix(0.877608 0.479379 -0.877608 0.479379 170.25 190.907)" fill="white"/>
<rect width="5.19713" height="5.25849" transform="matrix(0.877608 0.479379 -0.877608 0.479379 199.424 179.954)" fill="white"/>
<rect width="5.19713" height="5.25849" transform="matrix(0.877608 0.479379 -0.877608 0.479379 193.271 183.315)" fill="white"/>
<rect width="5.19713" height="5.25849" transform="matrix(0.877608 0.479379 -0.877608 0.479379 187.117 186.676)" fill="white"/>
<rect width="5.19713" height="5.25849" transform="matrix(0.877608 0.479379 -0.877608 0.479379 180.964 190.037)" fill="white"/>
<rect width="5.19713" height="5.25849" transform="matrix(0.877608 0.479379 -0.877608 0.479379 174.811 193.398)" fill="white"/>
<rect width="5.19713" height="5.25849" transform="matrix(0.877608 0.479379 -0.877608 0.479379 205.505 183.276)" fill="white"/>
<rect width="5.19713" height="5.25849" transform="matrix(0.877608 0.479379 -0.877608 0.479379 199.352 186.637)" fill="white"/>
<rect width="5.19713" height="5.25849" transform="matrix(0.877608 0.479379 -0.877608 0.479379 193.199 189.998)" fill="white"/>
<rect width="5.19713" height="5.25849" transform="matrix(0.877608 0.479379 -0.877608 0.479379 187.046 193.359)" fill="white"/>
<rect width="5.19713" height="5.25849" transform="matrix(0.877608 0.479379 -0.877608 0.479379 180.892 196.72)" fill="white"/>
<rect width="5.19713" height="5.25849" transform="matrix(0.877608 0.479379 -0.877608 0.479379 211.586 186.598)" fill="white"/>
<rect width="5.19713" height="5.25849" transform="matrix(0.877608 0.479379 -0.877608 0.479379 205.433 189.959)" fill="white"/>
<rect width="5.19713" height="5.25849" transform="matrix(0.877608 0.479379 -0.877608 0.479379 199.28 193.32)" fill="white"/>
<rect width="5.19713" height="5.25849" transform="matrix(0.877608 0.479379 -0.877608 0.479379 193.127 196.681)" fill="white"/>
<rect width="32.9152" height="5.25849" transform="matrix(0.877608 0.479379 -0.877608 0.479379 186.974 200.042)" fill="white"/>
<rect width="5.19713" height="5.25849" transform="matrix(0.877608 0.479379 -0.877608 0.479379 217.668 189.92)" fill="white"/>
<rect width="5.19713" height="5.25849" transform="matrix(0.877608 0.479379 -0.877608 0.479379 211.515 193.281)" fill="white"/>
<rect width="5.19713" height="5.25849" transform="matrix(0.877608 0.479379 -0.877608 0.479379 205.361 196.642)" fill="white"/>
<rect width="5.19713" height="5.25849" transform="matrix(0.877608 0.479379 -0.877608 0.479379 199.208 200.003)" fill="white"/>
<rect width="5.19713" height="5.25849" transform="matrix(0.877608 0.479379 -0.877608 0.479379 223.749 193.242)" fill="white"/>
<rect width="5.19713" height="5.25849" transform="matrix(0.877608 0.479379 -0.877608 0.479379 217.596 196.603)" fill="white"/>
<rect width="5.19713" height="5.25849" transform="matrix(0.877608 0.479379 -0.877608 0.479379 211.443 199.964)" fill="white"/>
<rect width="5.19713" height="5.25849" transform="matrix(0.877608 0.479379 -0.877608 0.479379 205.29 203.325)" fill="white"/>
<rect width="5.19713" height="5.25849" transform="matrix(0.877608 0.479379 -0.877608 0.479379 229.831 196.563)" fill="white"/>
<rect width="5.19713" height="5.25849" transform="matrix(0.877608 0.479379 -0.877608 0.479379 223.677 199.925)" fill="white"/>
<rect width="5.19713" height="5.25849" transform="matrix(0.877608 0.479379 -0.877608 0.479379 217.524 203.286)" fill="white"/>
<rect width="5.19713" height="5.25849" transform="matrix(0.877608 0.479379 -0.877608 0.479379 211.371 206.647)" fill="white"/>
<rect width="5.19713" height="5.25849" transform="matrix(0.877608 0.479379 -0.877608 0.479379 235.912 199.885)" fill="white"/>
<rect width="5.19713" height="5.25849" transform="matrix(0.877608 0.479379 -0.877608 0.479379 229.759 203.246)" fill="white"/>
<rect width="5.19713" height="5.25849" transform="matrix(0.877608 0.479379 -0.877608 0.479379 223.606 206.607)" fill="white"/>
<rect width="5.19713" height="5.25849" transform="matrix(0.877608 0.479379 -0.877608 0.479379 217.452 209.969)" fill="white"/>
<rect width="5.19713" height="5.25849" transform="matrix(0.877608 0.479379 -0.877608 0.479379 241.993 203.207)" fill="white"/>
<rect width="5.19713" height="5.25849" transform="matrix(0.877608 0.479379 -0.877608 0.479379 235.84 206.568)" fill="white"/>
<rect width="5.19713" height="5.25849" transform="matrix(0.877608 0.479379 -0.877608 0.479379 229.687 209.929)" fill="white"/>
<rect width="5.19713" height="5.25849" transform="matrix(0.877608 0.479379 -0.877608 0.479379 223.534 213.29)" fill="white"/>
<rect width="5.19713" height="5.25849" transform="matrix(0.877608 0.479379 -0.877608 0.479379 217.381 216.651)" fill="white"/>
<rect width="5.19713" height="5.25849" transform="matrix(0.877608 0.479379 -0.877608 0.479379 248.075 206.529)" fill="white"/>
<rect width="5.19713" height="5.25849" transform="matrix(0.877608 0.479379 -0.877608 0.479379 241.922 209.89)" fill="white"/>
<rect width="5.19713" height="5.25849" transform="matrix(0.877608 0.479379 -0.877608 0.479379 235.768 213.251)" fill="white"/>
<rect width="5.19713" height="5.25849" transform="matrix(0.877608 0.479379 -0.877608 0.479379 229.615 216.612)" fill="white"/>
<rect width="5.19713" height="5.25849" transform="matrix(0.877608 0.479379 -0.877608 0.479379 223.462 219.973)" fill="white"/>
<rect width="5.19713" height="5.25849" transform="matrix(0.877608 0.479379 -0.877608 0.479379 254.156 209.851)" fill="white"/>
<rect width="5.19713" height="5.25849" transform="matrix(0.877608 0.479379 -0.877608 0.479379 248.003 213.212)" fill="white"/>
<rect width="5.19713" height="5.25849" transform="matrix(0.877608 0.479379 -0.877608 0.479379 241.85 216.573)" fill="white"/>
<rect width="5.19713" height="5.25849" transform="matrix(0.877608 0.479379 -0.877608 0.479379 235.697 219.934)" fill="white"/>
<rect width="12.1266" height="5.25849" transform="matrix(0.877608 0.479379 -0.877608 0.479379 229.544 223.295)" fill="white"/>
<rect width="5.19713" height="5.25849" transform="matrix(0.877608 0.479379 -0.877608 0.479379 260.238 213.173)" fill="white"/>
<rect width="5.19713" height="5.25849" transform="matrix(0.877608 0.479379 -0.877608 0.479379 254.084 216.534)" fill="white"/>
<rect width="5.19713" height="5.25849" transform="matrix(0.877608 0.479379 -0.877608 0.479379 247.931 219.895)" fill="white"/>
<rect width="5.19713" height="5.25849" transform="matrix(0.877608 0.479379 -0.877608 0.479379 241.778 223.256)" fill="white"/>
<rect width="5.19713" height="5.25849" transform="matrix(0.877608 0.479379 -0.877608 0.479379 266.319 216.495)" fill="white"/>
<rect width="5.19713" height="5.25849" transform="matrix(0.877608 0.479379 -0.877608 0.479379 260.166 219.856)" fill="white"/>
<rect width="5.19713" height="5.25849" transform="matrix(0.877608 0.479379 -0.877608 0.479379 254.013 223.217)" fill="white"/>
<rect width="12.1266" height="5.25849" transform="matrix(0.877608 0.479379 -0.877608 0.479379 247.859 226.578)" fill="white"/>
<rect width="5.19713" height="5.25849" transform="matrix(0.877608 0.479379 -0.877608 0.479379 241.706 229.939)" fill="white"/>
<rect width="3.46475" height="5.25849" transform="matrix(0.877608 0.479379 -0.877608 0.479379 272.4 219.816)" fill="white"/>
<rect width="5.19713" height="5.25849" transform="matrix(0.877608 0.479379 -0.877608 0.479379 266.247 223.178)" fill="white"/>
<rect width="5.19713" height="5.25849" transform="matrix(0.877608 0.479379 -0.877608 0.479379 260.094 226.539)" fill="white"/>
<rect width="5.19713" height="5.25849" transform="matrix(0.877608 0.479379 -0.877608 0.479379 247.788 233.261)" fill="white"/>
<rect width="6.92951" height="5.25849" transform="matrix(0.877608 0.479379 -0.877608 0.479379 276.961 222.308)" fill="white"/>
<rect width="5.19713" height="12.2698" transform="matrix(0.877608 0.479379 -0.877608 0.479379 272.329 226.499)" fill="white"/>
<rect width="5.19713" height="5.25849" transform="matrix(0.877608 0.479379 -0.877608 0.479379 260.022 233.222)" fill="white"/>
<rect width="5.19713" height="5.25849" transform="matrix(0.877608 0.479379 -0.877608 0.479379 253.869 236.583)" fill="white"/>
<rect width="5.19713" height="5.25849" transform="matrix(0.877608 0.479379 -0.877608 0.479379 284.563 226.46)" fill="white"/>
<rect width="5.19713" height="5.25849" transform="matrix(0.877608 0.479379 -0.877608 0.479379 278.41 229.821)" fill="white"/>
<rect width="5.19713" height="5.25849" transform="matrix(0.877608 0.479379 -0.877608 0.479379 272.257 233.182)" fill="white"/>
<rect width="5.19713" height="5.25849" transform="matrix(0.877608 0.479379 -0.877608 0.479379 266.104 236.543)" fill="white"/>
<rect width="5.19713" height="5.25849" transform="matrix(0.877608 0.479379 -0.877608 0.479379 259.95 239.905)" fill="white"/>
<rect width="5.19713" height="5.25849" transform="matrix(0.877608 0.479379 -0.877608 0.479379 290.645 229.782)" fill="white"/>
<rect width="5.19713" height="5.25849" transform="matrix(0.877608 0.479379 -0.877608 0.479379 284.491 233.143)" fill="white"/>
<rect width="5.19713" height="5.25849" transform="matrix(0.877608 0.479379 -0.877608 0.479379 278.338 236.504)" fill="white"/>
<rect width="5.19713" height="5.25849" transform="matrix(0.877608 0.479379 -0.877608 0.479379 272.185 239.865)" fill="white"/>
<rect width="5.19713" height="5.25849" transform="matrix(0.877608 0.479379 -0.877608 0.479379 266.032 243.226)" fill="white"/>
<rect width="5.19713" height="5.25849" transform="matrix(0.877608 0.479379 -0.877608 0.479379 296.726 233.104)" fill="white"/>
<rect width="5.19713" height="5.25849" transform="matrix(0.877608 0.479379 -0.877608 0.479379 290.573 236.465)" fill="white"/>
<rect width="5.19713" height="5.25849" transform="matrix(0.877608 0.479379 -0.877608 0.479379 284.42 239.826)" fill="white"/>
<rect width="5.19713" height="5.25849" transform="matrix(0.877608 0.479379 -0.877608 0.479379 278.266 243.187)" fill="white"/>
<rect width="5.19713" height="5.25849" transform="matrix(0.877608 0.479379 -0.877608 0.479379 272.113 246.548)" fill="white"/>
<rect width="5.19713" height="5.25849" transform="matrix(0.877608 0.479379 -0.877608 0.479379 302.807 236.426)" fill="white"/>
<rect width="5.19713" height="12.2698" transform="matrix(0.877608 0.479379 -0.877608 0.479379 296.654 239.787)" fill="white"/>
<rect width="5.19713" height="12.2698" transform="matrix(0.877608 0.479379 -0.877608 0.479379 284.348 246.509)" fill="white"/>
</g>
<g filter="url(#filter2_d_15_28)">
<rect x="0.658206" y="1.10953" width="144.744" height="80.5505" rx="2.25" transform="matrix(0.877608 0.479379 -2.32855e-08 1 198.778 22.9734)" fill="white" stroke="#0066FF" stroke-width="1.5"/>
<path d="M246.708 98.3288C303.047 145.3 315.493 135.154 323.453 130.677C324.926 129.848 327.043 132.23 327.043 134.572L327.043 172.965C327.043 174.622 325.864 175.321 324.41 174.527L201.331 107.297C199.877 106.503 198.698 104.516 198.698 102.859L198.698 91.8528C198.698 91.4992 198.752 91.1754 198.866 90.9089C204.863 76.9019 228.817 83.4122 246.708 98.3288Z" fill="#0020FF"/>
<path d="M246.708 98.3288C303.047 145.3 315.493 135.154 323.453 130.677C324.926 129.848 327.043 132.23 327.043 134.572L327.043 172.965C327.043 174.622 325.864 175.321 324.41 174.527L201.331 107.297C199.877 106.503 198.698 104.516 198.698 102.859L198.698 91.8528C198.698 91.4992 198.752 91.1754 198.866 90.9089C204.863 76.9019 228.817 83.4122 246.708 98.3288Z" fill="#0020FF"/>
<path d="M198.698 26.289C198.698 24.6321 199.877 23.9328 201.331 24.7271L324.41 91.9573C325.864 92.7515 327.043 94.7386 327.043 96.3954L327.043 100.666L198.698 30.5593L198.698 26.289Z" fill="#0066FF"/>
<ellipse rx="1.62494" ry="1.55792" transform="matrix(0.877608 0.479379 -2.32855e-08 1 204.877 30.2996)" fill="white"/>
<ellipse rx="1.62494" ry="1.55792" transform="matrix(0.877608 0.479379 -2.32855e-08 1 208.68 32.3769)" fill="white"/>
<ellipse rx="1.62494" ry="1.55792" transform="matrix(0.877608 0.479379 -2.32855e-08 1 212.483 34.4541)" fill="white"/>
<line y1="-0.5" x2="88.1919" y2="-0.5" transform="matrix(-2.32855e-08 1 -0.877608 -0.479379 258.592 49.864)" stroke="#FF3D00"/>
<rect width="33.7736" height="15.8896" rx="2" transform="matrix(0.877608 0.479379 -2.32855e-08 1 244.805 25.1851)" fill="#FF3D00"/>
<path d="M259.055 51.1664L264.485 48.0666L253.625 42.1345L259.055 51.1664Z" fill="#FF3D00"/>
<path d="M249.469 38.6128C249.629 38.5558 249.701 38.5287 249.687 38.5317C250.146 38.3503 250.506 38.1925 250.768 38.0583C251.035 37.9267 251.26 37.7588 251.442 37.5545C251.625 37.3502 251.716 37.104 251.716 36.816C251.716 36.5974 251.672 36.4024 251.583 36.2312C251.494 36.0599 251.36 35.9257 251.183 35.8286C251.005 35.7314 250.864 35.7321 250.761 35.8305C250.663 35.9261 250.614 36.1126 250.614 36.3899L249.455 35.7572C249.465 35.3089 249.549 34.9763 249.708 34.7592C249.872 34.5447 250.085 34.437 250.347 34.4362C250.614 34.4379 250.909 34.527 251.232 34.7034C251.789 35.0077 252.208 35.3992 252.488 35.8779C252.774 36.3592 252.917 36.8612 252.917 37.3838C252.917 37.9545 252.746 38.3918 252.404 38.6959C252.063 38.9946 251.627 39.2315 251.098 39.4066L252.994 40.442L252.994 41.554L249.469 39.6288L249.469 38.6128ZM253.48 40.8037C253.64 40.7467 253.712 40.7196 253.698 40.7226C254.157 40.5412 254.517 40.3834 254.779 40.2492C255.046 40.1176 255.271 39.9497 255.453 39.7454C255.636 39.5411 255.727 39.295 255.727 39.007C255.727 38.7883 255.683 38.5933 255.594 38.4221C255.505 38.2508 255.371 38.1166 255.194 38.0195C255.016 37.9223 254.875 37.923 254.772 38.0214C254.674 38.117 254.625 38.3035 254.625 38.5809L253.466 37.9481C253.476 37.4999 253.56 37.1672 253.719 36.9501C253.883 36.7356 254.096 36.6279 254.358 36.6271C254.625 36.6289 254.92 36.7179 255.243 36.8943C255.8 37.1986 256.219 37.5901 256.499 38.0688C256.785 38.5501 256.928 39.0521 256.928 39.5747C256.928 40.1454 256.757 40.5828 256.415 40.8868C256.073 41.1855 255.638 41.4224 255.109 41.5975L257.005 42.6329L257.005 43.7449L253.48 41.8197L253.48 40.8037ZM258.215 44.5497C258.004 44.4346 257.831 44.2707 257.695 44.0579C257.564 43.8423 257.498 43.6305 257.498 43.4225C257.498 43.2092 257.564 43.0663 257.695 42.9939C257.831 42.924 258.004 42.9466 258.215 43.0617C258.42 43.1742 258.589 43.3382 258.72 43.5538C258.856 43.7719 258.924 43.9877 258.924 44.201C258.924 44.409 258.856 44.5479 258.72 44.6178C258.589 44.6849 258.42 44.6622 258.215 44.5497ZM263.124 42.5192L260.933 41.3227L260.933 42.4267C261.027 42.3605 261.158 42.3361 261.326 42.3535C261.495 42.3708 261.677 42.4332 261.874 42.5406C262.225 42.7323 262.515 42.9815 262.745 43.2881C262.979 43.5973 263.149 43.9253 263.257 44.2721C263.365 44.6189 263.419 44.9603 263.419 45.2963C263.419 45.9203 263.264 46.3319 262.955 46.5312C262.646 46.7251 262.211 46.6687 261.649 46.3619C261.275 46.1573 260.95 45.9076 260.673 45.6128C260.397 45.3126 260.184 44.991 260.035 44.6478C259.885 44.3047 259.803 43.9586 259.789 43.6096L260.961 44.25C260.989 44.4307 261.057 44.6064 261.165 44.7773C261.273 44.9427 261.42 45.0766 261.607 45.1789C261.827 45.299 261.991 45.3085 262.099 45.2073C262.206 45.1061 262.26 44.9222 262.26 44.6555C262.26 44.3942 262.204 44.1635 262.092 43.9635C261.979 43.7634 261.815 43.6046 261.6 43.487C261.441 43.4001 261.31 43.3738 261.207 43.4083C261.104 43.4373 261.036 43.5149 261.003 43.641L259.845 43.0083L259.845 39.5283L263.124 41.3192L263.124 42.5192ZM264.924 45.0145C264.484 44.5075 264.264 43.9687 264.264 43.398C264.264 43.11 264.329 42.8845 264.46 42.7214C264.591 42.553 264.79 42.4723 265.057 42.4794C265.324 42.4811 265.652 42.5881 266.04 42.8003C266.429 43.0125 266.754 43.2622 267.016 43.5493C267.283 43.8337 267.482 44.1317 267.613 44.4433C267.744 44.7496 267.809 45.0467 267.809 45.3347C267.809 45.6227 267.749 45.8401 267.627 45.987C267.51 46.1364 267.351 46.2175 267.149 46.2302C267.402 46.5069 267.596 46.805 267.732 47.1245C267.868 47.4387 267.936 47.7584 267.936 48.0837C267.936 48.4624 267.851 48.7444 267.683 48.9297C267.514 49.1096 267.285 49.1923 266.995 49.1778C266.709 49.1659 266.391 49.064 266.04 48.8723C265.689 48.6805 265.368 48.4334 265.078 48.1309C264.793 47.8309 264.566 47.4989 264.397 47.1349C264.229 46.7655 264.144 46.3915 264.144 46.0128C264.144 45.6821 264.212 45.4339 264.348 45.268C264.484 45.0968 264.676 45.0123 264.924 45.0145ZM266.644 44.9061C266.644 44.6874 266.588 44.4887 266.475 44.31C266.368 44.1286 266.223 43.988 266.04 43.8883C265.858 43.7886 265.71 43.7694 265.598 43.8307C265.49 43.8945 265.436 44.0358 265.436 44.2545C265.436 44.4625 265.492 44.6585 265.605 44.8425C265.717 45.0212 265.862 45.1591 266.04 45.2563C266.218 45.3534 266.363 45.3713 266.475 45.31C266.588 45.2487 266.644 45.1141 266.644 44.9061ZM266.04 46.2163C265.82 46.0961 265.642 46.0683 265.507 46.1328C265.371 46.192 265.303 46.3416 265.303 46.5816C265.303 46.8056 265.368 47.0254 265.499 47.241C265.635 47.4591 265.815 47.6295 266.04 47.7523C266.265 47.875 266.44 47.8989 266.567 47.8239C266.698 47.7515 266.763 47.6033 266.763 47.3793C266.763 47.1446 266.695 46.9209 266.56 46.7081C266.429 46.4978 266.255 46.3339 266.04 46.2163Z" fill="white"/>
<rect width="44.4149" height="3.11584" transform="matrix(0.877608 0.479379 -2.32855e-08 1 203.451 42.5033)" fill="#D9D9D9"/>
<rect width="51.9979" height="3.11584" transform="matrix(0.877608 0.479379 -2.32855e-08 1 203.451 48.735)" fill="#D9D9D9"/>
<rect width="32.4987" height="3.11584" transform="matrix(0.877608 0.479379 -2.32855e-08 1 203.451 54.9667)" fill="#D9D9D9"/>
</g>
<g filter="url(#filter3_d_15_28)">
<rect x="0.658206" y="1.10953" width="144.744" height="80.5505" rx="2.25" transform="matrix(0.877608 0.479379 -2.32855e-08 1 130.716 55.1704)" fill="white" stroke="#0066FF" stroke-width="1.5"/>
<path d="M130.636 58.486C130.636 56.8291 131.814 56.1298 133.268 56.9241L256.348 124.154C257.802 124.949 258.981 126.936 258.981 128.592L258.981 132.863L130.636 62.7563L130.636 58.486Z" fill="#0066FF"/>
<ellipse rx="1.62494" ry="1.55792" transform="matrix(0.877608 0.479379 -2.32855e-08 1 136.815 62.4966)" fill="white"/>
<ellipse rx="1.62494" ry="1.55792" transform="matrix(0.877608 0.479379 -2.32855e-08 1 140.618 64.5739)" fill="white"/>
<ellipse rx="1.62494" ry="1.55792" transform="matrix(0.877608 0.479379 -2.32855e-08 1 144.421 66.6511)" fill="white"/>
<path d="M193.729 137.176L175.984 108.302C162.722 117.995 170.381 138.094 176.358 147.073L193.729 137.176Z" fill="#0020FF"/>
<path d="M194.925 137.54L212.669 166.414C225.931 156.721 218.307 136.715 212.33 127.737L194.925 137.54Z" fill="#0066FF"/>
<path d="M193.058 133.662L210.616 123.867C195.113 100.911 180.612 101.141 175.382 104.814L193.058 133.662Z" fill="#FF3D00"/>
<path d="M193.729 137.176L176.171 146.767C190.74 168.601 205.496 168.499 210.726 165.234L193.729 137.176Z" fill="#0020FF"/>
<rect width="45.4982" height="2.07723" transform="matrix(0.877608 0.479379 -2.32855e-08 1 136.34 71.0652)" fill="#D9D9D9"/>
</g>
<rect width="43.3316" height="70.4452" transform="matrix(0.877608 0.479379 -0.877608 0.479379 441.655 102.209)" fill="#0066FF"/>
<g filter="url(#filter4_d_15_28)">
<rect width="71.4972" height="100.746" transform="matrix(0.877608 -0.479379 2.32855e-08 1 418.254 158.309)" fill="#0066FF"/>
</g>
<g filter="url(#filter5_d_15_28)">
<rect width="44.3131" height="94.3481" rx="3" transform="matrix(0.877608 0.479379 -0.877608 0.479379 340.778 262.17)" fill="#0020FF"/>
<rect width="39.0998" height="88.4513" rx="2" transform="matrix(0.877608 0.479379 -0.877608 0.479379 340.479 264.833)" fill="white"/>
<ellipse rx="1.30333" ry="1.47419" transform="matrix(0.877608 0.479379 -0.877608 0.479379 355.048 275.618)" fill="#0020FF"/>
<path d="M321.1 292.29C321.978 283.15 311.403 282.423 306.28 283.462C294.022 290.213 269.071 303.92 266.211 305.273C262.918 306.831 263.769 307.637 265.113 308.389C273.164 312.889 288.606 321.371 292.558 323.448C296.51 325.526 296.949 326.045 300.242 324.487L342.507 301.118C335.188 301.984 320.222 301.43 321.1 292.29Z" fill="url(#paint0_linear_15_28)"/>
<rect width="11.3418" height="5.41645" transform="matrix(0.877608 0.479379 -0.877608 0.47938 331.744 290.213)" fill="#0085FF"/>
<path d="M332.324 292.175L332.882 291.87L333.855 292.401L331.292 293.801L330.667 293.459L332.672 292.364L332.324 292.175ZM332.162 293.751C332.305 293.76 332.371 293.763 332.359 293.762C332.778 293.784 333.114 293.797 333.367 293.802C333.622 293.809 333.862 293.801 334.086 293.778C334.311 293.755 334.486 293.709 334.613 293.639C334.709 293.587 334.761 293.534 334.771 293.48C334.78 293.427 334.74 293.376 334.651 293.327C334.562 293.278 334.458 293.259 334.339 293.267C334.224 293.276 334.106 293.314 333.984 293.381L333.405 293.064C333.609 292.958 333.817 292.89 334.03 292.861C334.245 292.833 334.45 292.837 334.644 292.874C334.841 292.913 335.02 292.976 335.181 293.064C335.46 293.216 335.598 293.37 335.596 293.524C335.596 293.68 335.481 293.821 335.252 293.946C335.001 294.083 334.683 294.164 334.297 294.188C333.913 294.211 333.487 294.206 333.019 294.173L333.967 294.69L333.479 294.957L331.717 293.994L332.162 293.751ZM336.071 295.912L335.6 296.169L333.81 295.191L334.021 294.984C334.229 294.991 334.414 294.978 334.575 294.946C334.737 294.914 334.898 294.854 335.06 294.766L335.067 294.762L334.684 294.553L335.088 294.332L335.372 294.488C335.487 294.376 335.611 294.284 335.744 294.211C335.903 294.125 336.076 294.068 336.264 294.043C336.453 294.018 336.643 294.025 336.832 294.062C337.022 294.099 337.2 294.163 337.366 294.254C337.637 294.402 337.772 294.556 337.77 294.716C337.767 294.876 337.653 295.023 337.426 295.157L336.874 294.856C336.963 294.802 337.011 294.748 337.018 294.693C337.028 294.637 336.984 294.582 336.889 294.53C336.795 294.479 336.693 294.455 336.583 294.459C336.475 294.461 336.365 294.493 336.253 294.555C336.199 294.584 336.15 294.617 336.106 294.654C336.064 294.693 336.012 294.743 335.951 294.804L336.587 295.151L336.183 295.372L335.635 295.072L335.625 295.078C335.534 295.128 335.42 295.17 335.284 295.203C335.149 295.236 335.005 295.251 334.852 295.247L336.071 295.912Z" fill="white"/>
<rect width="1.08329" height="51.8176" transform="matrix(0.877608 0.479379 -0.877608 0.47938 331.996 295.406)" fill="#0084FF"/>
</g>
<rect width="18.9042" height="125.125" transform="matrix(0.877608 0.479379 -2.32855e-08 1 0.173401 128.189)" fill="#3600D0"/>
<path d="M16.7065 118.841L33.1066 128.189L16.7065 137.152L0.17328 128.189L16.7065 118.841Z" fill="#3600D0"/>
<rect width="19.4451" height="125.125" transform="matrix(0.877608 -0.479379 2.32855e-08 1 16.6401 137.251)" fill="#5417FF"/>
<path d="M19.0758 142.703C18.6909 142.68 18.4984 142.418 18.4984 141.919C18.4984 141.667 18.5557 141.407 18.6704 141.139C18.7851 140.866 18.9591 140.606 19.1926 140.357C19.426 140.103 19.7127 139.884 20.0526 139.698C20.3925 139.512 20.6772 139.42 20.9065 139.421C21.14 139.414 21.314 139.485 21.4287 139.632C21.5434 139.775 21.6007 139.972 21.6007 140.224C21.6007 140.476 21.5475 140.725 21.441 140.97C21.3386 141.212 21.1994 141.435 21.0232 141.639C21.2444 141.639 21.4144 141.715 21.5331 141.864C21.6519 142.009 21.7113 142.224 21.7113 142.509C21.7113 142.84 21.6376 143.168 21.4901 143.491C21.3427 143.809 21.142 144.101 20.8881 144.366C20.6383 144.628 20.3598 144.843 20.0526 145.011C19.7454 145.179 19.4649 145.269 19.211 145.282C18.9612 145.292 18.7625 145.219 18.6151 145.061C18.4676 144.899 18.3939 144.652 18.3939 144.321C18.3939 144.032 18.4533 143.75 18.5721 143.475C18.6909 143.195 18.8588 142.938 19.0758 142.703ZM20.5809 140.963C20.5809 140.772 20.5318 140.652 20.4335 140.603C20.3393 140.547 20.2123 140.563 20.0526 140.65C19.8929 140.737 19.7639 140.861 19.6656 141.022C19.5714 141.181 19.5243 141.356 19.5243 141.548C19.5243 141.73 19.5734 141.847 19.6717 141.901C19.77 141.95 19.897 141.932 20.0526 141.847C20.2082 141.762 20.3352 141.639 20.4335 141.478C20.5318 141.317 20.5809 141.145 20.5809 140.963ZM20.0526 142.687C19.8601 142.792 19.7045 142.938 19.5857 143.124C19.467 143.306 19.4076 143.501 19.4076 143.711C19.4076 143.907 19.4649 144.037 19.5796 144.1C19.6983 144.162 19.856 144.138 20.0526 144.031C20.2492 143.924 20.4028 143.777 20.5134 143.59C20.628 143.402 20.6854 143.209 20.6854 143.013C20.6854 142.808 20.626 142.677 20.5072 142.621C20.3925 142.562 20.241 142.584 20.0526 142.687ZM23.4525 141.558C23.5139 141.893 23.7023 141.974 24.0177 141.802C24.2348 141.684 24.3883 141.49 24.4784 141.222C24.5685 140.953 24.6136 140.571 24.6136 140.077C24.5235 140.271 24.4006 140.45 24.245 140.614C24.0894 140.778 23.9153 140.913 23.7228 141.018C23.4607 141.161 23.2273 141.228 23.0225 141.219C22.8177 141.205 22.6559 141.109 22.5372 140.931C22.4225 140.746 22.3652 140.479 22.3652 140.129C22.3652 139.784 22.4266 139.449 22.5495 139.125C22.6764 138.799 22.8546 138.504 23.0839 138.238C23.3174 137.971 23.5918 137.751 23.9071 137.579C24.5133 137.248 24.9371 137.231 25.1788 137.528C25.4204 137.825 25.5412 138.392 25.5412 139.227C25.5412 139.834 25.4921 140.362 25.3938 140.813C25.2996 141.256 25.1378 141.643 24.9085 141.974C24.6832 142.302 24.374 142.574 23.9808 142.788C23.6696 142.958 23.4034 143.034 23.1822 143.015C22.9652 142.993 22.7972 142.901 22.6785 142.737C22.5638 142.571 22.4983 142.355 22.4819 142.088L23.4525 141.558ZM23.9624 139.942C24.1344 139.848 24.2716 139.715 24.374 139.543C24.4764 139.365 24.5276 139.174 24.5276 138.969C24.5276 138.745 24.4743 138.601 24.3679 138.538C24.2614 138.475 24.118 138.492 23.9378 138.591C23.7576 138.689 23.6143 138.831 23.5078 139.015C23.4054 139.192 23.3542 139.388 23.3542 139.603C23.3542 139.803 23.4054 139.939 23.5078 140.009C23.6143 140.072 23.7658 140.05 23.9624 139.942ZM26.0157 137.834C26.0157 137.456 26.1099 137.113 26.2983 136.804C26.4908 136.494 26.7385 136.256 27.0416 136.09C27.3447 135.925 27.5904 135.893 27.7788 135.996C27.9672 136.098 28.0614 136.338 28.0614 136.716C28.0614 137.094 27.9672 137.438 27.7788 137.746C27.5904 138.054 27.3447 138.291 27.0416 138.456C26.7385 138.622 26.4908 138.655 26.2983 138.554C26.1099 138.452 26.0157 138.212 26.0157 137.834ZM30.187 134.449L27.8218 140.669L26.8082 141.223L29.1733 135.003L30.187 134.449ZM27.0355 136.794C26.8389 136.901 26.7406 137.116 26.7406 137.438C26.7406 137.755 26.8389 137.86 27.0355 137.753C27.1297 137.701 27.2034 137.621 27.2566 137.513C27.3099 137.405 27.3365 137.271 27.3365 137.112C27.3365 136.79 27.2362 136.684 27.0355 136.794ZM28.9399 138.953C28.9399 138.575 29.0341 138.231 29.2225 137.923C29.4109 137.615 29.6566 137.378 29.9597 137.213C30.2627 137.047 30.5085 137.015 30.6969 137.118C30.8852 137.22 30.9794 137.46 30.9794 137.838C30.9794 138.216 30.8852 138.56 30.6969 138.868C30.5085 139.176 30.2627 139.413 29.9597 139.579C29.6566 139.744 29.4109 139.776 29.2225 139.673C29.0341 139.571 28.9399 139.331 28.9399 138.953ZM29.9535 137.916C29.8593 137.967 29.7856 138.047 29.7324 138.156C29.6832 138.262 29.6586 138.397 29.6586 138.56C29.6586 138.877 29.7569 138.982 29.9535 138.875C30.0477 138.823 30.1214 138.743 30.1747 138.635C30.2279 138.527 30.2545 138.393 30.2545 138.234C30.2545 138.076 30.2279 137.971 30.1747 137.921C30.1214 137.866 30.0477 137.864 29.9535 137.916Z" fill="white"/>
<rect width="19.1221" height="130.686" transform="matrix(0.877608 0.479379 -2.32855e-08 1 41.2638 98.0692)" fill="#004FC5"/>
<path d="M57.7305 88.7216L74.746 98.0691L57.7305 107.417L41.2638 98.0691L57.7305 88.7216Z" fill="#004FC5"/>
<rect width="19.1221" height="130.686" transform="matrix(0.877608 -0.479379 2.32855e-08 1 57.7305 107.391)" fill="#0066FF"/>
<path d="M60.8201 114.434C60.8816 114.769 61.07 114.851 61.3853 114.679C61.6024 114.56 61.756 114.366 61.8461 114.098C61.9362 113.829 61.9812 113.448 61.9812 112.953C61.8911 113.147 61.7682 113.326 61.6126 113.49C61.457 113.655 61.2829 113.789 61.0904 113.895C60.8283 114.038 60.5949 114.105 60.3901 114.095C60.1853 114.081 60.0236 113.985 59.9048 113.807C59.7901 113.623 59.7328 113.355 59.7328 113.005C59.7328 112.66 59.7942 112.325 59.9171 112.002C60.044 111.676 60.2222 111.38 60.4515 111.115C60.685 110.847 60.9594 110.627 61.2747 110.455C61.8809 110.124 62.3048 110.107 62.5464 110.404C62.788 110.702 62.9088 111.268 62.9088 112.103C62.9088 112.71 62.8597 113.238 62.7614 113.689C62.6672 114.132 62.5054 114.519 62.2761 114.85C62.0508 115.178 61.7416 115.45 61.3485 115.665C61.0372 115.835 60.771 115.91 60.5498 115.891C60.3328 115.869 60.1649 115.777 60.0461 115.613C59.9314 115.447 59.8659 115.231 59.8495 114.964L60.8201 114.434ZM61.33 112.819C61.502 112.725 61.6392 112.591 61.7416 112.419C61.844 112.242 61.8952 112.05 61.8952 111.845C61.8952 111.621 61.842 111.477 61.7355 111.414C61.629 111.351 61.4857 111.369 61.3055 111.467C61.1253 111.566 60.9819 111.707 60.8754 111.891C60.773 112.068 60.7218 112.264 60.7218 112.479C60.7218 112.68 60.773 112.815 60.8754 112.885C60.9819 112.948 61.1334 112.926 61.33 112.819ZM63.3587 110.549L63.3587 109.436L65.0604 108.506L65.0604 113.616L63.9669 114.213L63.9669 110.216L63.3587 110.549ZM65.693 109.448C65.693 109.07 65.7872 108.727 65.9756 108.419C66.1681 108.109 66.4159 107.871 66.719 107.705C67.022 107.54 67.2678 107.508 67.4561 107.61C67.6445 107.713 67.7387 107.953 67.7387 108.331C67.7387 108.709 67.6445 109.052 67.4561 109.36C67.2678 109.669 67.022 109.906 66.719 110.071C66.4159 110.237 66.1681 110.269 65.9756 110.169C65.7872 110.067 65.693 109.826 65.693 109.448ZM69.8643 106.064L67.4991 112.284L66.4855 112.838L68.8507 106.618L69.8643 106.064ZM66.7128 108.408C66.5162 108.516 66.4179 108.731 66.4179 109.053C66.4179 109.37 66.5162 109.475 66.7128 109.367C66.807 109.316 66.8807 109.236 66.934 109.128C66.9872 109.019 67.0138 108.886 67.0138 108.727C67.0138 108.405 66.9135 108.299 66.7128 108.408ZM68.6172 110.567C68.6172 110.189 68.7114 109.846 68.8998 109.538C69.0882 109.23 69.3339 108.993 69.637 108.827C69.9401 108.662 70.1858 108.63 70.3742 108.732C70.5626 108.835 70.6568 109.075 70.6568 109.453C70.6568 109.831 70.5626 110.174 70.3742 110.482C70.1858 110.791 69.9401 111.028 69.637 111.193C69.3339 111.359 69.0882 111.39 68.8998 111.288C68.7114 111.185 68.6172 110.945 68.6172 110.567ZM69.6309 109.531C69.5367 109.582 69.4629 109.662 69.4097 109.77C69.3606 109.877 69.336 110.011 69.336 110.175C69.336 110.492 69.4343 110.597 69.6309 110.49C69.7251 110.438 69.7988 110.358 69.852 110.25C69.9053 110.141 69.9319 110.008 69.9319 109.849C69.9319 109.69 69.9053 109.586 69.852 109.536C69.7988 109.481 69.7251 109.479 69.6309 109.531Z" fill="white"/>
<rect width="19.2336" height="133.467" transform="matrix(0.877608 0.479379 -2.32855e-08 1 81.2356 73.1424)" fill="#0015A8"/>
<path d="M97.7023 63.7949L114.718 73.1424L97.7023 82.4899L81.2356 73.1424L97.7023 63.7949Z" fill="#0015A8"/>
<rect width="19.2336" height="133.467" transform="matrix(0.877608 -0.479379 2.32855e-08 1 97.7023 82.3626)" fill="#0020FF"/>
<path d="M100.516 89.9941C100.577 90.3292 100.766 90.4106 101.081 90.2384C101.298 90.1198 101.452 89.9262 101.542 89.6577C101.632 89.3891 101.677 89.0075 101.677 88.5129C101.587 88.7067 101.464 88.8859 101.308 89.0502C101.153 89.2145 100.979 89.3493 100.786 89.4544C100.524 89.5976 100.291 89.6645 100.086 89.655C99.881 89.6408 99.7192 89.5449 99.6005 89.3671C99.4858 89.1824 99.4285 88.915 99.4285 88.565C99.4285 88.2197 99.4899 87.8851 99.6128 87.5614C99.7397 87.2353 99.9179 86.9397 100.147 86.6744C100.381 86.4069 100.655 86.187 100.97 86.0148C101.577 85.6837 102 85.6668 102.242 85.9641C102.484 86.2615 102.605 86.8278 102.605 87.6632C102.605 88.2698 102.555 88.7983 102.457 89.2487C102.363 89.6921 102.201 90.0792 101.972 90.4098C101.747 90.7382 101.437 91.0097 101.044 91.2245C100.733 91.3945 100.467 91.4699 100.246 91.4507C100.028 91.4293 99.8605 91.3367 99.7418 91.1729C99.6271 91.0069 99.5616 90.7907 99.5452 90.5243L100.516 89.9941ZM101.026 88.3786C101.198 88.2846 101.335 88.1513 101.437 87.9787C101.54 87.8015 101.591 87.6102 101.591 87.4048C101.591 87.1808 101.538 87.0373 101.431 86.9741C101.325 86.9109 101.181 86.9286 101.001 87.027C100.821 87.1254 100.678 87.2667 100.571 87.4509C100.469 87.6281 100.418 87.8241 100.418 88.0388C100.418 88.2394 100.469 88.3748 100.571 88.4449C100.678 88.5081 100.829 88.4859 101.026 88.3786ZM103.128 89.1061C103.267 88.9041 103.331 88.8111 103.319 88.8271C103.72 88.2299 104.035 87.7473 104.265 87.3793C104.498 87.0092 104.695 86.6475 104.854 86.2942C105.014 85.941 105.094 85.6383 105.094 85.3863C105.094 85.195 105.055 85.0669 104.977 85.0021C104.899 84.9373 104.783 84.9474 104.627 85.0324C104.471 85.1174 104.349 85.2522 104.258 85.4367C104.172 85.6143 104.129 85.8245 104.129 86.0672L103.116 86.6209C103.124 86.2197 103.198 85.8481 103.337 85.5061C103.48 85.1618 103.667 84.864 103.896 84.6127C104.129 84.3592 104.388 84.1552 104.67 84.0009C105.157 83.7347 105.524 83.6768 105.77 83.8272C106.02 83.9754 106.144 84.2782 106.144 84.7355C106.144 85.2348 105.995 85.7808 105.696 86.3735C105.397 86.9615 105.016 87.5848 104.553 88.2436L106.212 87.3376L106.212 88.3106L103.128 89.9951L103.128 89.1061ZM106.589 84.3529C106.589 83.9749 106.683 83.6318 106.871 83.3236C107.064 83.0131 107.311 82.7751 107.614 82.6095C107.918 82.444 108.163 82.4124 108.352 82.5149C108.54 82.6173 108.634 82.8575 108.634 83.2355C108.634 83.6135 108.54 83.9566 108.352 84.2649C108.163 84.5731 107.918 84.81 107.614 84.9755C107.311 85.1411 107.064 85.1738 106.871 85.0736C106.683 84.9712 106.589 84.7309 106.589 84.3529ZM110.76 80.9684L108.395 87.1884L107.381 87.7421L109.746 81.5221L110.76 80.9684ZM107.608 83.3129C107.412 83.4203 107.313 83.635 107.313 83.957C107.313 84.2743 107.412 84.3793 107.608 84.2719C107.703 84.2204 107.776 84.1405 107.83 84.0321C107.883 83.9237 107.909 83.7901 107.909 83.6315C107.909 83.3095 107.809 83.2033 107.608 83.3129ZM109.513 85.4716C109.513 85.0936 109.607 84.7505 109.795 84.4423C109.984 84.134 110.229 83.8972 110.533 83.7316C110.836 83.5661 111.081 83.5345 111.27 83.6369C111.458 83.7394 111.552 83.9796 111.552 84.3576C111.552 84.7356 111.458 85.0787 111.27 85.3869C111.081 85.6952 110.836 85.9321 110.533 86.0976C110.229 86.2632 109.984 86.2947 109.795 86.1923C109.607 86.0899 109.513 85.8496 109.513 85.4716ZM110.526 84.435C110.432 84.4864 110.358 84.5664 110.305 84.6748C110.256 84.7809 110.232 84.9157 110.232 85.079C110.232 85.3964 110.33 85.5013 110.526 85.394C110.621 85.3425 110.694 85.2626 110.748 85.1542C110.801 85.0457 110.827 84.9122 110.827 84.7535C110.827 84.5949 110.801 84.4904 110.748 84.4402C110.694 84.3852 110.621 84.3835 110.526 84.435Z" fill="white"/>
<g style="mix-blend-mode:multiply">
<rect width="18.5123" height="136.177" transform="matrix(0.877608 -0.479379 0.877608 0.479379 58.1823 237.809)" fill="url(#paint1_linear_15_28)" style="mix-blend-mode:saturation"/>
</g>
<path d="M184.777 293.395C184.502 293.293 184.252 293.303 184.027 293.426C183.872 293.511 183.831 293.608 183.904 293.719C183.977 293.829 184.169 293.969 184.479 294.138C184.452 294.053 184.47 293.967 184.531 293.879C184.593 293.791 184.692 293.71 184.83 293.635C185.017 293.533 185.222 293.462 185.444 293.424C185.669 293.387 185.9 293.387 186.137 293.424C186.374 293.464 186.602 293.544 186.822 293.664C187.038 293.782 187.183 293.909 187.256 294.045C187.327 294.182 187.324 294.319 187.248 294.457C187.169 294.596 187.016 294.727 186.791 294.85C186.358 295.086 185.921 295.178 185.479 295.126C185.037 295.073 184.555 294.904 184.031 294.618C183.651 294.41 183.371 294.219 183.193 294.045C183.015 293.874 182.943 293.708 182.978 293.548C183.01 293.39 183.167 293.234 183.447 293.081C183.67 292.96 183.904 292.88 184.15 292.841C184.392 292.805 184.628 292.802 184.856 292.834C185.081 292.868 185.286 292.928 185.47 293.016L184.777 293.395ZM185.251 294.052C185.128 294.119 185.067 294.192 185.067 294.272C185.07 294.354 185.135 294.43 185.264 294.5C185.405 294.577 185.551 294.615 185.703 294.615C185.855 294.615 185.995 294.58 186.124 294.51C186.253 294.439 186.316 294.362 186.313 294.277C186.31 294.196 186.241 294.118 186.107 294.045C185.981 293.976 185.842 293.94 185.69 293.937C185.538 293.937 185.391 293.975 185.251 294.052ZM184.53 295.241L185.228 295.622L184.013 296.286L180.809 294.537L181.59 294.11L184.096 295.479L184.53 295.241ZM182.753 296.092C182.99 296.222 183.106 296.358 183.1 296.502C183.091 296.647 182.978 296.779 182.762 296.897C182.546 297.016 182.306 297.076 182.042 297.08C181.779 297.083 181.529 297.02 181.292 296.89C181.055 296.761 180.94 296.624 180.945 296.48C180.951 296.337 181.062 296.206 181.279 296.087C181.495 295.969 181.737 295.908 182.003 295.903C182.266 295.9 182.516 295.963 182.753 296.092ZM180.467 298.098L179.067 295.488L179.791 295.093L181.191 297.703L180.467 298.098ZM182.328 296.655C182.468 296.579 182.437 296.485 182.235 296.375C182.037 296.266 181.867 296.25 181.726 296.327C181.659 296.364 181.631 296.406 181.643 296.454C181.655 296.502 181.71 296.553 181.81 296.607C182.012 296.718 182.184 296.734 182.328 296.655ZM178.962 296.303C179.199 296.432 179.314 296.569 179.309 296.713C179.303 296.857 179.192 296.988 178.975 297.106C178.759 297.224 178.519 297.285 178.256 297.288C177.992 297.291 177.742 297.228 177.505 297.099C177.268 296.969 177.153 296.833 177.158 296.689C177.164 296.545 177.276 296.414 177.492 296.296C177.708 296.178 177.948 296.117 178.212 296.114C178.475 296.11 178.725 296.174 178.962 296.303ZM178.541 296.864C178.608 296.827 178.636 296.785 178.624 296.737C178.609 296.691 178.551 296.639 178.449 296.583C178.25 296.475 178.08 296.459 177.94 296.536C177.872 296.572 177.844 296.615 177.856 296.663C177.868 296.71 177.923 296.762 178.023 296.816C178.122 296.87 178.216 296.901 178.304 296.907C178.394 296.915 178.473 296.901 178.541 296.864Z" fill="white"/>
<g style="mix-blend-mode:multiply">
<rect width="19.9286" height="126.609" transform="matrix(0.877608 -0.479379 0.877608 0.479379 16.4521 262.376)" fill="url(#paint2_linear_15_28)" style="mix-blend-mode:saturation"/>
</g>
<path d="M136.05 313.542C136.471 313.472 136.838 313.522 137.151 313.693C137.309 313.779 137.411 313.88 137.458 313.995C137.508 314.112 137.487 314.236 137.397 314.369C137.309 314.503 137.144 314.637 136.901 314.769C136.658 314.902 136.415 314.991 136.172 315.038C135.93 315.087 135.701 315.098 135.488 315.071C135.277 315.046 135.093 314.99 134.935 314.903C134.777 314.817 134.678 314.721 134.637 314.616C134.593 314.512 134.6 314.407 134.659 314.302C134.424 314.347 134.198 314.355 133.978 314.328C133.762 314.303 133.564 314.241 133.386 314.144C133.178 314.03 133.051 313.903 133.004 313.763C132.96 313.623 132.99 313.483 133.092 313.341C133.191 313.2 133.351 313.07 133.57 312.95C133.79 312.83 134.03 312.742 134.29 312.686C134.547 312.632 134.803 312.617 135.058 312.641C135.315 312.666 135.548 312.736 135.756 312.849C135.937 312.948 136.051 313.057 136.098 313.175C136.148 313.295 136.131 313.417 136.05 313.542ZM135.549 314.443C135.669 314.509 135.796 314.54 135.931 314.537C136.066 314.537 136.19 314.506 136.304 314.443C136.418 314.381 136.477 314.312 136.48 314.237C136.48 314.164 136.42 314.094 136.3 314.029C136.186 313.966 136.06 313.936 135.922 313.937C135.788 313.941 135.665 313.973 135.554 314.033C135.443 314.094 135.385 314.162 135.383 314.237C135.38 314.312 135.435 314.381 135.549 314.443ZM135.027 313.746C135.165 313.671 135.238 313.589 135.247 313.501C135.258 313.415 135.198 313.336 135.067 313.264C134.944 313.197 134.802 313.164 134.641 313.166C134.477 313.169 134.325 313.209 134.185 313.286C134.044 313.362 133.974 313.444 133.974 313.53C133.971 313.618 134.031 313.695 134.154 313.763C134.283 313.833 134.427 313.866 134.588 313.861C134.746 313.858 134.893 313.819 135.027 313.746ZM132.142 314.823C131.867 314.721 131.617 314.731 131.392 314.854C131.237 314.939 131.196 315.036 131.269 315.147C131.342 315.257 131.534 315.397 131.844 315.566C131.818 315.481 131.835 315.395 131.897 315.307C131.958 315.219 132.057 315.138 132.195 315.063C132.382 314.96 132.587 314.89 132.809 314.852C133.034 314.815 133.266 314.815 133.503 314.852C133.74 314.892 133.968 314.972 134.187 315.091C134.404 315.21 134.548 315.337 134.621 315.473C134.692 315.61 134.689 315.747 134.613 315.885C134.534 316.024 134.382 316.155 134.156 316.278C133.723 316.514 133.286 316.606 132.844 316.554C132.403 316.501 131.92 316.331 131.396 316.045C131.016 315.838 130.737 315.647 130.558 315.473C130.38 315.302 130.308 315.136 130.343 314.976C130.375 314.818 130.532 314.662 130.813 314.509C131.035 314.388 131.269 314.308 131.515 314.269C131.758 314.233 131.993 314.23 132.221 314.262C132.446 314.296 132.651 314.356 132.836 314.444L132.142 314.823ZM132.616 315.48C132.493 315.547 132.432 315.62 132.432 315.7C132.435 315.782 132.501 315.858 132.629 315.928C132.77 316.005 132.916 316.043 133.068 316.043C133.22 316.043 133.361 316.008 133.489 315.938C133.618 315.867 133.681 315.79 133.678 315.705C133.675 315.624 133.606 315.546 133.472 315.473C133.346 315.404 133.207 315.368 133.055 315.365C132.903 315.365 132.757 315.403 132.616 315.48ZM131.768 316.619C132.005 316.748 132.121 316.885 132.115 317.029C132.106 317.174 131.993 317.306 131.777 317.424C131.561 317.542 131.321 317.603 131.057 317.606C130.794 317.61 130.544 317.546 130.307 317.417C130.07 317.288 129.955 317.151 129.96 317.007C129.966 316.863 130.077 316.732 130.294 316.614C130.51 316.496 130.752 316.434 131.018 316.429C131.281 316.426 131.531 316.489 131.768 316.619ZM129.482 318.625L128.082 316.015L128.806 315.619L130.206 318.23L129.482 318.625ZM131.343 317.182C131.483 317.105 131.452 317.012 131.25 316.902C131.052 316.793 130.882 316.777 130.741 316.854C130.674 316.89 130.646 316.933 130.658 316.981C130.67 317.029 130.725 317.08 130.825 317.134C131.027 317.244 131.199 317.26 131.343 317.182ZM127.977 316.83C128.214 316.959 128.329 317.096 128.324 317.24C128.318 317.383 128.207 317.514 127.99 317.633C127.774 317.751 127.534 317.812 127.271 317.815C127.007 317.818 126.757 317.755 126.52 317.626C126.283 317.496 126.168 317.359 126.173 317.216C126.179 317.072 126.291 316.941 126.507 316.823C126.723 316.704 126.963 316.644 127.227 316.64C127.49 316.637 127.74 316.7 127.977 316.83ZM127.556 317.391C127.623 317.354 127.651 317.312 127.639 317.264C127.624 317.217 127.566 317.166 127.464 317.11C127.265 317.002 127.095 316.986 126.955 317.062C126.887 317.099 126.859 317.141 126.871 317.189C126.883 317.237 126.938 317.288 127.038 317.343C127.137 317.397 127.231 317.427 127.319 317.434C127.409 317.442 127.488 317.427 127.556 317.391Z" fill="white"/>
<g style="mix-blend-mode:multiply">
<rect width="19.3069" height="143.646" transform="matrix(0.877608 -0.479379 0.877608 0.479379 97.1357 215.34)" fill="url(#paint3_linear_15_28)"/>
</g>
<path d="M230.07 274.565C229.795 274.463 229.545 274.473 229.32 274.596C229.165 274.681 229.124 274.778 229.197 274.889C229.27 274.999 229.462 275.139 229.772 275.308C229.746 275.223 229.763 275.137 229.825 275.049C229.886 274.961 229.985 274.88 230.123 274.805C230.31 274.702 230.515 274.632 230.737 274.594C230.963 274.557 231.194 274.557 231.431 274.594C231.668 274.634 231.896 274.714 232.115 274.833C232.332 274.952 232.476 275.079 232.55 275.215C232.62 275.352 232.617 275.489 232.541 275.627C232.462 275.766 232.31 275.897 232.084 276.02C231.651 276.256 231.214 276.348 230.772 276.296C230.331 276.243 229.848 276.073 229.324 275.787C228.944 275.58 228.665 275.389 228.486 275.215C228.308 275.044 228.236 274.878 228.271 274.718C228.303 274.56 228.46 274.404 228.741 274.251C228.963 274.13 229.197 274.05 229.443 274.011C229.686 273.975 229.921 273.972 230.149 274.004C230.375 274.038 230.579 274.098 230.764 274.186L230.07 274.565ZM230.544 275.222C230.421 275.289 230.36 275.362 230.36 275.442C230.363 275.524 230.429 275.6 230.557 275.67C230.698 275.747 230.844 275.785 230.996 275.785C231.148 275.785 231.289 275.75 231.417 275.68C231.546 275.609 231.609 275.532 231.606 275.447C231.603 275.366 231.534 275.288 231.4 275.215C231.274 275.146 231.135 275.11 230.983 275.107C230.831 275.107 230.685 275.145 230.544 275.222ZM227.866 275.4C227.846 275.497 227.837 275.542 227.84 275.534C227.79 275.82 227.76 276.049 227.748 276.222C227.733 276.396 227.752 276.56 227.805 276.713C227.858 276.867 227.963 276.986 228.121 277.073C228.241 277.138 228.362 277.174 228.485 277.181C228.608 277.187 228.725 277.16 228.836 277.099C228.947 277.038 228.993 276.967 228.972 276.886C228.952 276.807 228.865 276.727 228.713 276.644L229.437 276.248C229.68 276.387 229.835 276.529 229.902 276.675C229.967 276.822 229.957 276.962 229.872 277.094C229.784 277.228 229.639 277.351 229.437 277.461C229.089 277.651 228.738 277.745 228.384 277.744C228.027 277.744 227.706 277.665 227.419 277.509C227.106 277.338 226.922 277.121 226.866 276.857C226.813 276.595 226.825 276.304 226.901 275.984L225.716 276.632L225.106 276.298L227.309 275.095L227.866 275.4ZM227.189 277.73C227.426 277.86 227.542 277.996 227.536 278.14C227.527 278.285 227.415 278.417 227.198 278.535C226.982 278.654 226.742 278.714 226.479 278.718C226.215 278.721 225.965 278.658 225.728 278.528C225.491 278.399 225.376 278.262 225.382 278.118C225.387 277.975 225.499 277.844 225.715 277.725C225.932 277.607 226.173 277.546 226.439 277.541C226.702 277.538 226.952 277.601 227.189 277.73ZM224.903 279.736L223.503 277.126L224.227 276.731L225.627 279.341L224.903 279.736ZM226.764 278.293C226.904 278.217 226.873 278.123 226.672 278.013C226.473 277.904 226.303 277.888 226.163 277.965C226.095 278.002 226.068 278.044 226.079 278.092C226.091 278.14 226.147 278.191 226.246 278.245C226.448 278.356 226.62 278.372 226.764 278.293ZM223.398 277.941C223.635 278.07 223.751 278.207 223.745 278.351C223.739 278.495 223.628 278.626 223.411 278.744C223.195 278.862 222.955 278.923 222.692 278.926C222.428 278.929 222.178 278.866 221.941 278.737C221.704 278.607 221.589 278.471 221.595 278.327C221.601 278.183 221.712 278.052 221.928 277.934C222.145 277.816 222.385 277.755 222.648 277.752C222.911 277.748 223.161 277.812 223.398 277.941ZM222.977 278.502C223.044 278.465 223.072 278.423 223.06 278.375C223.046 278.329 222.987 278.277 222.885 278.221C222.686 278.113 222.516 278.097 222.376 278.174C222.308 278.21 222.281 278.253 222.292 278.301C222.304 278.349 222.36 278.4 222.459 278.454C222.559 278.508 222.652 278.539 222.74 278.545C222.831 278.553 222.91 278.539 222.977 278.502Z" fill="white"/>
<path d="M210.878 376.562C184.251 376.562 173.003 361.722 170.708 354.302C197.679 353.036 251.506 351.262 251.047 354.302C250.474 358.103 244.161 376.562 210.878 376.562Z" fill="#EAEAEA"/>
<rect x="170.708" y="338.508" width="80.3397" height="16.2878" fill="#EAEAEA"/>
<path d="M210.569 338.698L170.708 338.698C174.565 355.881 195.383 359.682 210.569 361.202L210.569 338.698Z" fill="#0020FF" stroke="white" stroke-width="0.3"/>
<path d="M210.631 338.417L251.334 338.417C249.103 320.459 223.487 316.741 210.631 316.992L210.631 338.417Z" fill="#0066FF" stroke="white" stroke-width="0.3"/>
<path d="M210.612 326.573L210.612 305.254C177.633 306.65 170.708 319.505 170.708 326.573L210.612 326.573Z" fill="#3600D0"/>
<path d="M210.612 338.417L250.888 338.417C249.629 354.406 223.087 361.159 210.612 360.92L210.612 338.417Z" fill="#0020FF" stroke="white" stroke-width="0.3"/>
<path d="M170.708 326.573H210.612V338.417H170.708V326.573Z" fill="#EAEAEA"/>
<defs>
<filter id="filter0_d_15_28" x="219.827" y="47.5632" width="211.486" height="230.01" filterUnits="userSpaceOnUse" color-interpolation-filters="sRGB">
<feFlood flood-opacity="0" result="BackgroundImageFix"/>
<feColorMatrix in="SourceAlpha" type="matrix" values="0 0 0 0 0 0 0 0 0 0 0 0 0 0 0 0 0 0 127 0" result="hardAlpha"/>
<feOffset dy="4"/>
<feGaussianBlur stdDeviation="7"/>
<feComposite in2="hardAlpha" operator="out"/>
<feColorMatrix type="matrix" values="0 0 0 0 0 0 0 0 0 0.0819385 0 0 0 0 0.658333 0 0 0 0.35 0"/>
<feBlend mode="normal" in2="BackgroundImageFix" result="effect1_dropShadow_15_28"/>
<feBlend mode="normal" in="SourceGraphic" in2="effect1_dropShadow_15_28" result="shape"/>
</filter>
<filter id="filter1_d_15_28" x="142.396" y="162.618" width="185.225" height="108.437" filterUnits="userSpaceOnUse" color-interpolation-filters="sRGB">
<feFlood flood-opacity="0" result="BackgroundImageFix"/>
<feColorMatrix in="SourceAlpha" type="matrix" values="0 0 0 0 0 0 0 0 0 0 0 0 0 0 0 0 0 0 127 0" result="hardAlpha"/>
<feOffset dy="4"/>
<feGaussianBlur stdDeviation="4"/>
<feComposite in2="hardAlpha" operator="out"/>
<feColorMatrix type="matrix" values="0 0 0 0 0 0 0 0 0 0.124464 0 0 0 0 1 0 0 0 0.22 0"/>
<feBlend mode="normal" in2="BackgroundImageFix" result="effect1_dropShadow_15_28"/>
<feBlend mode="normal" in="SourceGraphic" in2="effect1_dropShadow_15_28" result="shape"/>
</filter>
<filter id="filter2_d_15_28" x="184.698" y="14.3994" width="156.345" height="178.455" filterUnits="userSpaceOnUse" color-interpolation-filters="sRGB">
<feFlood flood-opacity="0" result="BackgroundImageFix"/>
<feColorMatrix in="SourceAlpha" type="matrix" values="0 0 0 0 0 0 0 0 0 0 0 0 0 0 0 0 0 0 127 0" result="hardAlpha"/>
<feOffset dy="4"/>
<feGaussianBlur stdDeviation="7"/>
<feComposite in2="hardAlpha" operator="out"/>
<feColorMatrix type="matrix" values="0 0 0 0 0 0 0 0 0 0.0819385 0 0 0 0 0.658333 0 0 0 0.35 0"/>
<feBlend mode="normal" in2="BackgroundImageFix" result="effect1_dropShadow_15_28"/>
<feBlend mode="normal" in="SourceGraphic" in2="effect1_dropShadow_15_28" result="shape"/>
</filter>
<filter id="filter3_d_15_28" x="116.636" y="46.5964" width="156.345" height="177.936" filterUnits="userSpaceOnUse" color-interpolation-filters="sRGB">
<feFlood flood-opacity="0" result="BackgroundImageFix"/>
<feColorMatrix in="SourceAlpha" type="matrix" values="0 0 0 0 0 0 0 0 0 0 0 0 0 0 0 0 0 0 127 0" result="hardAlpha"/>
<feOffset dy="4"/>
<feGaussianBlur stdDeviation="7"/>
<feComposite in2="hardAlpha" operator="out"/>
<feColorMatrix type="matrix" values="0 0 0 0 0 0 0 0 0 0.0819385 0 0 0 0 0.658333 0 0 0 0.35 0"/>
<feBlend mode="normal" in2="BackgroundImageFix" result="effect1_dropShadow_15_28"/>
<feBlend mode="normal" in="SourceGraphic" in2="effect1_dropShadow_15_28" result="shape"/>
</filter>
<filter id="filter4_d_15_28" x="414.254" y="124.035" width="70.7465" height="143.02" filterUnits="userSpaceOnUse" color-interpolation-filters="sRGB">
<feFlood flood-opacity="0" result="BackgroundImageFix"/>
<feColorMatrix in="SourceAlpha" type="matrix" values="0 0 0 0 0 0 0 0 0 0 0 0 0 0 0 0 0 0 127 0" result="hardAlpha"/>
<feOffset dy="4"/>
<feGaussianBlur stdDeviation="2"/>
<feComposite in2="hardAlpha" operator="out"/>
<feColorMatrix type="matrix" values="0 0 0 0 0 0 0 0 0 0 0 0 0 0 0 0 0 0 0.25 0"/>
<feBlend mode="normal" in2="BackgroundImageFix" result="effect1_dropShadow_15_28"/>
<feBlend mode="normal" in="SourceGraphic" in2="effect1_dropShadow_15_28" result="shape"/>
</filter>
<filter id="filter5_d_15_28" x="255.52" y="263.013" width="126.605" height="72.7864" filterUnits="userSpaceOnUse" color-interpolation-filters="sRGB">
<feFlood flood-opacity="0" result="BackgroundImageFix"/>
<feColorMatrix in="SourceAlpha" type="matrix" values="0 0 0 0 0 0 0 0 0 0 0 0 0 0 0 0 0 0 127 0" result="hardAlpha"/>
<feOffset dy="4"/>
<feGaussianBlur stdDeviation="2"/>
<feComposite in2="hardAlpha" operator="out"/>
<feColorMatrix type="matrix" values="0 0 0 0 0 0 0 0 0 0.124464 0 0 0 0 1 0 0 0 0.22 0"/>
<feBlend mode="normal" in2="BackgroundImageFix" result="effect1_dropShadow_15_28"/>
<feBlend mode="normal" in="SourceGraphic" in2="effect1_dropShadow_15_28" result="shape"/>
</filter>
<linearGradient id="paint0_linear_15_28" x1="316.16" y1="291.251" x2="300.823" y2="312.326" gradientUnits="userSpaceOnUse">
<stop stop-color="#FF3D00"/>
<stop offset="1" stop-color="#FF3D00"/>
</linearGradient>
<linearGradient id="paint1_linear_15_28" x1="8.00089" y1="33.9034" x2="9.61522" y2="95.5536" gradientUnits="userSpaceOnUse">
<stop stop-color="#0066FF" stop-opacity="0.56"/>
<stop offset="1" stop-color="#0066FF" stop-opacity="0.39"/>
</linearGradient>
<linearGradient id="paint2_linear_15_28" x1="11.816" y1="15.7197" x2="10.3695" y2="88.8386" gradientUnits="userSpaceOnUse">
<stop stop-color="#5417FF" stop-opacity="0.68"/>
<stop offset="1" stop-color="#5417FF" stop-opacity="0.31"/>
</linearGradient>
<linearGradient id="paint3_linear_15_28" x1="9.65344" y1="0" x2="9.65344" y2="143.646" gradientUnits="userSpaceOnUse">
<stop stop-color="#0066FF" stop-opacity="0.47"/>
<stop offset="1" stop-color="#0020FF" stop-opacity="0.24"/>
</linearGradient>
</defs>
</svg>
