<svg width="372" height="84" viewBox="0 0 372 84" fill="none" xmlns="http://www.w3.org/2000/svg">
<rect width="83.7748" height="84" rx="13" fill="#1554A7"/>
<rect x="15.9571" y="60" width="52.8579" height="2" fill="white"/>
<rect x="15.9571" y="23" width="1.99464" height="39" fill="white"/>
<rect x="14.9598" y="54" width="1.99464" height="1" fill="white"/>
<rect x="14.9598" y="45" width="1.99464" height="1" fill="white"/>
<rect x="14.9598" y="37" width="1.99464" height="1" fill="white"/>
<rect x="14.9598" y="29" width="1.99464" height="1" fill="white"/>
<rect x="19.9464" y="31" width="7.97855" height="27" fill="white"/>
<rect x="29.9196" y="38" width="6.98123" height="20" fill="white"/>
<rect x="38.8954" y="44" width="6.98123" height="14" fill="white"/>
<rect x="47.8713" y="35" width="6.98123" height="23" fill="white"/>
<rect x="56.8472" y="23" width="6.98123" height="35" fill="white"/>
<path d="M119.31 60.336C117.07 60.336 115.054 59.952 113.262 59.184C111.47 58.384 110.062 57.264 109.038 55.824C108.014 54.384 107.502 52.704 107.502 50.784H113.358C113.486 52.224 114.046 53.408 115.038 54.336C116.062 55.264 117.486 55.728 119.31 55.728C121.198 55.728 122.67 55.28 123.726 54.384C124.782 53.456 125.31 52.272 125.31 50.832C125.31 49.712 124.974 48.8 124.302 48.096C123.662 47.392 122.846 46.848 121.854 46.464C120.894 46.08 119.55 45.664 117.822 45.216C115.646 44.64 113.87 44.064 112.494 43.488C111.15 42.88 109.998 41.952 109.038 40.704C108.078 39.456 107.598 37.792 107.598 35.712C107.598 33.792 108.078 32.112 109.038 30.672C109.998 29.232 111.342 28.128 113.07 27.36C114.798 26.592 116.798 26.208 119.07 26.208C122.302 26.208 124.942 27.024 126.99 28.656C129.07 30.256 130.222 32.464 130.446 35.28H124.398C124.302 34.064 123.726 33.024 122.67 32.16C121.614 31.296 120.222 30.864 118.494 30.864C116.926 30.864 115.646 31.264 114.654 32.064C113.662 32.864 113.166 34.016 113.166 35.52C113.166 36.544 113.47 37.392 114.078 38.064C114.718 38.704 115.518 39.216 116.478 39.6C117.438 39.984 118.75 40.4 120.414 40.848C122.622 41.456 124.414 42.064 125.79 42.672C127.198 43.28 128.382 44.224 129.342 45.504C130.334 46.752 130.83 48.432 130.83 50.544C130.83 52.24 130.366 53.84 129.439 55.344C128.542 56.848 127.214 58.064 125.454 58.992C123.726 59.888 121.678 60.336 119.31 60.336ZM161.239 33.552V60H155.767V56.88C154.903 57.968 153.767 58.832 152.359 59.472C150.983 60.08 149.511 60.384 147.943 60.384C145.863 60.384 143.991 59.952 142.327 59.088C140.695 58.224 139.399 56.944 138.439 55.248C137.511 53.552 137.047 51.504 137.047 49.104V33.552H142.471V48.288C142.471 50.656 143.063 52.48 144.247 53.76C145.431 55.008 147.047 55.632 149.095 55.632C151.143 55.632 152.759 55.008 153.943 53.76C155.159 52.48 155.767 50.656 155.767 48.288V33.552H161.239ZM173.931 37.392C174.731 36.048 175.787 35.008 177.099 34.272C178.443 33.504 180.027 33.12 181.851 33.12V38.784H180.459C178.315 38.784 176.683 39.328 175.563 40.416C174.475 41.504 173.931 43.392 173.931 46.08V60H168.459V33.552H173.931V37.392ZM197.105 55.104L204.593 33.552H210.401L200.321 60H193.793L183.761 33.552H189.617L197.105 55.104ZM238.777 46.128C238.777 47.12 238.713 48.016 238.585 48.816H218.377C218.537 50.928 219.321 52.624 220.729 53.904C222.137 55.184 223.865 55.824 225.913 55.824C228.857 55.824 230.937 54.592 232.153 52.128H238.057C237.257 54.56 235.801 56.56 233.689 58.128C231.609 59.664 229.017 60.432 225.913 60.432C223.385 60.432 221.113 59.872 219.097 58.752C217.113 57.6 215.545 56 214.393 53.952C213.273 51.872 212.713 49.472 212.713 46.752C212.713 44.032 213.257 41.648 214.345 39.6C215.465 37.52 217.017 35.92 219.001 34.8C221.017 33.68 223.321 33.12 225.913 33.12C228.409 33.12 230.633 33.664 232.585 34.752C234.537 35.84 236.057 37.376 237.145 39.36C238.233 41.312 238.777 43.568 238.777 46.128ZM233.065 44.4C233.033 42.384 232.313 40.768 230.905 39.552C229.497 38.336 227.753 37.728 225.673 37.728C223.785 37.728 222.169 38.336 220.825 39.552C219.481 40.736 218.681 42.352 218.425 44.4H233.065ZM267.97 33.552L251.746 72.432H246.082L251.458 59.568L241.042 33.552H247.138L254.578 53.712L262.306 33.552H267.97Z" fill="black"/>
<path d="M292.212 53.184H278.244L275.844 60H270.132L282.084 26.592H288.42L300.372 60H294.612L292.212 53.184ZM290.676 48.72L285.252 33.216L279.78 48.72H290.676ZM311.04 37.44C311.968 36.224 313.232 35.2 314.832 34.368C316.432 33.536 318.24 33.12 320.256 33.12C322.56 33.12 324.656 33.696 326.544 34.848C328.464 35.968 329.968 37.552 331.056 39.6C332.144 41.648 332.689 44 332.689 46.656C332.689 49.312 332.144 51.696 331.056 53.808C329.968 55.888 328.464 57.52 326.544 58.704C324.656 59.856 322.56 60.432 320.256 60.432C318.24 60.432 316.448 60.032 314.88 59.232C313.312 58.4 312.032 57.376 311.04 56.16V72.576H305.568V33.552H311.04V37.44ZM327.121 46.656C327.121 44.832 326.736 43.264 325.968 41.952C325.232 40.608 324.24 39.6 322.992 38.928C321.776 38.224 320.464 37.872 319.056 37.872C317.68 37.872 316.368 38.224 315.12 38.928C313.904 39.632 312.912 40.656 312.144 42C311.408 43.344 311.04 44.928 311.04 46.752C311.04 48.576 311.408 50.176 312.144 51.552C312.912 52.896 313.904 53.92 315.12 54.624C316.368 55.328 317.68 55.68 319.056 55.68C320.464 55.68 321.776 55.328 322.992 54.624C324.24 53.888 325.232 52.832 325.968 51.456C326.736 50.08 327.121 48.48 327.121 46.656ZM343.572 37.44C344.5 36.224 345.764 35.2 347.364 34.368C348.964 33.536 350.772 33.12 352.788 33.12C355.092 33.12 357.188 33.696 359.076 34.848C360.996 35.968 362.5 37.552 363.588 39.6C364.676 41.648 365.22 44 365.22 46.656C365.22 49.312 364.676 51.696 363.588 53.808C362.5 55.888 360.996 57.52 359.076 58.704C357.188 59.856 355.092 60.432 352.788 60.432C350.772 60.432 348.98 60.032 347.412 59.232C345.844 58.4 344.564 57.376 343.572 56.16V72.576H338.1V33.552H343.572V37.44ZM359.652 46.656C359.652 44.832 359.268 43.264 358.5 41.952C357.764 40.608 356.772 39.6 355.524 38.928C354.308 38.224 352.996 37.872 351.588 37.872C350.212 37.872 348.9 38.224 347.652 38.928C346.436 39.632 345.444 40.656 344.676 42C343.94 43.344 343.572 44.928 343.572 46.752C343.572 48.576 343.94 50.176 344.676 51.552C345.444 52.896 346.436 53.92 347.652 54.624C348.9 55.328 350.212 55.68 351.588 55.68C352.996 55.68 354.308 55.328 355.524 54.624C356.772 53.888 357.764 52.832 358.5 51.456C359.268 50.08 359.652 48.48 359.652 46.656Z" fill="#1554A7"/>
</svg>
