<svg width="100" height="100" viewBox="0 0 100 100" fill="none" xmlns="http://www.w3.org/2000/svg">
<rect width="100" height="100" rx="13" fill="#1554A7"/>
<rect x="18" y="27" width="3" height="46" rx="1.5" fill="white"/>
<rect x="18" y="70" width="63" height="3" rx="1.5" fill="white"/>
<rect x="23" y="37" width="9" height="32" rx="3" fill="white"/>
<rect x="34" y="62" width="9" height="7" rx="3" fill="white"/>
<rect x="45" y="52" width="9" height="17" rx="3" fill="white"/>
<rect x="56" y="41" width="9" height="28" rx="3" fill="white"/>
<rect x="67" y="27" width="9" height="42" rx="3" fill="white"/>
<rect x="71" y="73" width="1" height="1" fill="white"/>
<rect x="60" y="73" width="1" height="1" fill="white"/>
<rect x="49" y="73" width="1" height="1" fill="white"/>
<rect x="38" y="73" width="1" height="1" fill="white"/>
<rect x="27" y="73" width="1" height="1" fill="white"/>
<rect x="17" y="64" width="1" height="1" fill="white"/>
<rect x="17" y="54" width="1" height="1" fill="white"/>
<rect x="17" y="44" width="1" height="1" fill="white"/>
<rect x="17" y="34" width="1" height="1" fill="white"/>
</svg>
