<svg width="373" height="84" viewBox="0 0 373 84" fill="none" xmlns="http://www.w3.org/2000/svg">
<rect width="84" height="84" rx="13" fill="white"/>
<rect x="15.12" y="22.68" width="2.52" height="38.64" rx="1" fill="#1554A7"/>
<rect x="15.12" y="58.8" width="52.92" height="2.52" rx="1" fill="#1554A7"/>
<rect x="19.32" y="31.08" width="7.56" height="26.88" rx="1" fill="#1554A7"/>
<rect x="29" y="38" width="7" height="20" rx="1" fill="#1554A7"/>
<rect x="37.8" y="43.68" width="7.56" height="14.28" rx="1" fill="#1554A7"/>
<rect x="47.04" y="34.44" width="7.56" height="23.52" rx="1" fill="#1554A7"/>
<rect x="56" y="23" width="8" height="35" rx="1" fill="#1554A7"/>
<rect x="59.64" y="61.32" width="0.84" height="0.84" fill="#1554A7"/>
<rect x="50.4" y="61.32" width="0.84" height="0.84" fill="#1554A7"/>
<rect x="41.16" y="61.32" width="0.84" height="0.84" fill="#1554A7"/>
<rect x="31.92" y="61.32" width="0.84" height="0.84" fill="#1554A7"/>
<rect x="22.68" y="61.32" width="0.84" height="0.84" fill="#1554A7"/>
<rect x="14.28" y="53.76" width="0.84" height="0.84" fill="#1554A7"/>
<rect x="14.28" y="45.36" width="0.84" height="0.84" fill="#1554A7"/>
<rect x="14.28" y="36.96" width="0.84" height="0.84" fill="#1554A7"/>
<rect x="14.28" y="28.56" width="0.84" height="0.84" fill="#1554A7"/>
<path d="M119.592 61.336C117.352 61.336 115.336 60.952 113.544 60.184C111.752 59.384 110.344 58.264 109.32 56.824C108.296 55.384 107.784 53.704 107.784 51.784H113.64C113.768 53.224 114.328 54.408 115.32 55.336C116.344 56.264 117.768 56.728 119.592 56.728C121.48 56.728 122.952 56.28 124.008 55.384C125.064 54.456 125.592 53.272 125.592 51.832C125.592 50.712 125.256 49.8 124.584 49.096C123.944 48.392 123.128 47.848 122.136 47.464C121.176 47.08 119.832 46.664 118.104 46.216C115.928 45.64 114.152 45.064 112.776 44.488C111.432 43.88 110.28 42.952 109.32 41.704C108.36 40.456 107.88 38.792 107.88 36.712C107.88 34.792 108.36 33.112 109.32 31.672C110.28 30.232 111.624 29.128 113.352 28.36C115.08 27.592 117.08 27.208 119.352 27.208C122.584 27.208 125.224 28.024 127.272 29.656C129.352 31.256 130.504 33.464 130.728 36.28H124.68C124.584 35.064 124.008 34.024 122.952 33.16C121.896 32.296 120.504 31.864 118.776 31.864C117.208 31.864 115.928 32.264 114.936 33.064C113.944 33.864 113.448 35.016 113.448 36.52C113.448 37.544 113.752 38.392 114.36 39.064C115 39.704 115.8 40.216 116.76 40.6C117.72 40.984 119.032 41.4 120.696 41.848C122.904 42.456 124.696 43.064 126.072 43.672C127.48 44.28 128.664 45.224 129.624 46.504C130.616 47.752 131.112 49.432 131.112 51.544C131.112 53.24 130.648 54.84 129.72 56.344C128.824 57.848 127.496 59.064 125.736 59.992C124.008 60.888 121.96 61.336 119.592 61.336ZM161.521 34.552V61H156.049V57.88C155.185 58.968 154.049 59.832 152.641 60.472C151.265 61.08 149.793 61.384 148.225 61.384C146.145 61.384 144.273 60.952 142.609 60.088C140.977 59.224 139.681 57.944 138.721 56.248C137.793 54.552 137.329 52.504 137.329 50.104V34.552H142.753V49.288C142.753 51.656 143.345 53.48 144.529 54.76C145.713 56.008 147.329 56.632 149.377 56.632C151.425 56.632 153.041 56.008 154.225 54.76C155.441 53.48 156.049 51.656 156.049 49.288V34.552H161.521ZM174.213 38.392C175.013 37.048 176.069 36.008 177.381 35.272C178.725 34.504 180.309 34.12 182.133 34.12V39.784H180.741C178.597 39.784 176.965 40.328 175.845 41.416C174.757 42.504 174.213 44.392 174.213 47.08V61H168.741V34.552H174.213V38.392ZM197.387 56.104L204.875 34.552H210.682L200.603 61H194.075L184.043 34.552H189.898L197.387 56.104ZM239.059 47.128C239.059 48.12 238.995 49.016 238.867 49.816H218.659C218.819 51.928 219.603 53.624 221.011 54.904C222.419 56.184 224.147 56.824 226.195 56.824C229.139 56.824 231.219 55.592 232.435 53.128H238.339C237.539 55.56 236.083 57.56 233.971 59.128C231.891 60.664 229.299 61.432 226.195 61.432C223.667 61.432 221.395 60.872 219.379 59.752C217.395 58.6 215.827 57 214.675 54.952C213.555 52.872 212.995 50.472 212.995 47.752C212.995 45.032 213.539 42.648 214.627 40.6C215.747 38.52 217.299 36.92 219.283 35.8C221.299 34.68 223.603 34.12 226.195 34.12C228.691 34.12 230.915 34.664 232.867 35.752C234.819 36.84 236.339 38.376 237.427 40.36C238.515 42.312 239.059 44.568 239.059 47.128ZM233.347 45.4C233.315 43.384 232.595 41.768 231.187 40.552C229.779 39.336 228.035 38.728 225.955 38.728C224.067 38.728 222.451 39.336 221.107 40.552C219.763 41.736 218.963 43.352 218.707 45.4H233.347ZM268.252 34.552L252.028 73.432H246.364L251.74 60.568L241.324 34.552H247.42L254.86 54.712L262.588 34.552H268.252ZM292.493 54.184H278.525L276.125 61H270.413L282.365 27.592H288.701L300.653 61H294.893L292.493 54.184ZM290.957 49.72L285.533 34.216L280.061 49.72H290.957ZM311.322 38.44C312.25 37.224 313.514 36.2 315.114 35.368C316.714 34.536 318.522 34.12 320.538 34.12C322.842 34.12 324.938 34.696 326.826 35.848C328.746 36.968 330.25 38.552 331.338 40.6C332.426 42.648 332.97 45 332.97 47.656C332.97 50.312 332.426 52.696 331.338 54.808C330.25 56.888 328.746 58.52 326.826 59.704C324.938 60.856 322.842 61.432 320.538 61.432C318.522 61.432 316.73 61.032 315.162 60.232C313.594 59.4 312.314 58.376 311.322 57.16V73.576H305.85V34.552H311.322V38.44ZM327.402 47.656C327.402 45.832 327.018 44.264 326.25 42.952C325.514 41.608 324.522 40.6 323.274 39.928C322.058 39.224 320.746 38.872 319.338 38.872C317.962 38.872 316.65 39.224 315.402 39.928C314.186 40.632 313.194 41.656 312.426 43C311.69 44.344 311.322 45.928 311.322 47.752C311.322 49.576 311.69 51.176 312.426 52.552C313.194 53.896 314.186 54.92 315.402 55.624C316.65 56.328 317.962 56.68 319.338 56.68C320.746 56.68 322.058 56.328 323.274 55.624C324.522 54.888 325.514 53.832 326.25 52.456C327.018 51.08 327.402 49.48 327.402 47.656ZM343.853 38.44C344.781 37.224 346.045 36.2 347.645 35.368C349.245 34.536 351.053 34.12 353.069 34.12C355.373 34.12 357.469 34.696 359.357 35.848C361.277 36.968 362.781 38.552 363.869 40.6C364.957 42.648 365.501 45 365.501 47.656C365.501 50.312 364.957 52.696 363.869 54.808C362.781 56.888 361.277 58.52 359.357 59.704C357.469 60.856 355.373 61.432 353.069 61.432C351.053 61.432 349.261 61.032 347.693 60.232C346.125 59.4 344.845 58.376 343.853 57.16V73.576H338.381V34.552H343.853V38.44ZM359.933 47.656C359.933 45.832 359.549 44.264 358.781 42.952C358.045 41.608 357.053 40.6 355.805 39.928C354.589 39.224 353.277 38.872 351.869 38.872C350.493 38.872 349.181 39.224 347.933 39.928C346.717 40.632 345.725 41.656 344.957 43C344.221 44.344 343.853 45.928 343.853 47.752C343.853 49.576 344.221 51.176 344.957 52.552C345.725 53.896 346.717 54.92 347.933 55.624C349.181 56.328 350.493 56.68 351.869 56.68C353.277 56.68 354.589 56.328 355.805 55.624C357.053 54.888 358.045 53.832 358.781 52.456C359.549 51.08 359.933 49.48 359.933 47.656Z" fill="white"/>
</svg>
