<svg width="373" height="84" viewBox="0 0 373 84" fill="none" xmlns="http://www.w3.org/2000/svg">
<rect width="84" height="84" rx="13" fill="#1554A7"/>
<rect x="15.12" y="22.68" width="2.52" height="38.64" rx="1" fill="white"/>
<rect x="15.12" y="58.8" width="52.92" height="2.52" rx="1" fill="white"/>
<rect x="19.32" y="31.08" width="7.56" height="26.88" rx="1" fill="white"/>
<rect x="29" y="38" width="7" height="20" rx="1" fill="white"/>
<rect x="37.8" y="43.68" width="7.56" height="14.28" rx="1" fill="white"/>
<rect x="47.04" y="34.44" width="7.56" height="23.52" rx="1" fill="white"/>
<rect x="56" y="23" width="8" height="35" rx="1" fill="white"/>
<rect x="59.64" y="61.32" width="0.84" height="0.84" fill="white"/>
<rect x="50.4" y="61.32" width="0.84" height="0.84" fill="white"/>
<rect x="41.16" y="61.32" width="0.84" height="0.84" fill="white"/>
<rect x="31.92" y="61.32" width="0.84" height="0.84" fill="white"/>
<rect x="22.68" y="61.32" width="0.84" height="0.84" fill="white"/>
<rect x="14.28" y="53.76" width="0.84" height="0.84" fill="white"/>
<rect x="14.28" y="45.36" width="0.84" height="0.84" fill="white"/>
<rect x="14.28" y="36.96" width="0.84" height="0.84" fill="white"/>
<rect x="14.28" y="28.56" width="0.84" height="0.84" fill="white"/>
<path d="M119.592 60.336C117.352 60.336 115.336 59.952 113.544 59.184C111.752 58.384 110.344 57.264 109.32 55.824C108.296 54.384 107.784 52.704 107.784 50.784H113.64C113.768 52.224 114.328 53.408 115.32 54.336C116.344 55.264 117.768 55.728 119.592 55.728C121.48 55.728 122.952 55.28 124.008 54.384C125.064 53.456 125.592 52.272 125.592 50.832C125.592 49.712 125.256 48.8 124.584 48.096C123.944 47.392 123.128 46.848 122.136 46.464C121.176 46.08 119.832 45.664 118.104 45.216C115.928 44.64 114.152 44.064 112.776 43.488C111.432 42.88 110.28 41.952 109.32 40.704C108.36 39.456 107.88 37.792 107.88 35.712C107.88 33.792 108.36 32.112 109.32 30.672C110.28 29.232 111.624 28.128 113.352 27.36C115.08 26.592 117.08 26.208 119.352 26.208C122.584 26.208 125.224 27.024 127.272 28.656C129.352 30.256 130.504 32.464 130.728 35.28H124.68C124.584 34.064 124.008 33.024 122.952 32.16C121.896 31.296 120.504 30.864 118.776 30.864C117.208 30.864 115.928 31.264 114.936 32.064C113.944 32.864 113.448 34.016 113.448 35.52C113.448 36.544 113.752 37.392 114.36 38.064C115 38.704 115.8 39.216 116.76 39.6C117.72 39.984 119.032 40.4 120.696 40.848C122.904 41.456 124.696 42.064 126.072 42.672C127.48 43.28 128.664 44.224 129.624 45.504C130.616 46.752 131.112 48.432 131.112 50.544C131.112 52.24 130.648 53.84 129.72 55.344C128.824 56.848 127.496 58.064 125.736 58.992C124.008 59.888 121.96 60.336 119.592 60.336ZM161.521 33.552V60H156.049V56.88C155.185 57.968 154.049 58.832 152.641 59.472C151.265 60.08 149.793 60.384 148.225 60.384C146.145 60.384 144.273 59.952 142.609 59.088C140.977 58.224 139.681 56.944 138.721 55.248C137.793 53.552 137.329 51.504 137.329 49.104V33.552H142.753V48.288C142.753 50.656 143.345 52.48 144.529 53.76C145.713 55.008 147.329 55.632 149.377 55.632C151.425 55.632 153.041 55.008 154.225 53.76C155.441 52.48 156.049 50.656 156.049 48.288V33.552H161.521ZM174.213 37.392C175.013 36.048 176.069 35.008 177.381 34.272C178.725 33.504 180.309 33.12 182.133 33.12V38.784H180.741C178.597 38.784 176.965 39.328 175.845 40.416C174.757 41.504 174.213 43.392 174.213 46.08V60H168.741V33.552H174.213V37.392ZM197.387 55.104L204.875 33.552H210.682L200.603 60H194.075L184.043 33.552H189.898L197.387 55.104ZM239.059 46.128C239.059 47.12 238.995 48.016 238.867 48.816H218.659C218.819 50.928 219.603 52.624 221.011 53.904C222.419 55.184 224.147 55.824 226.195 55.824C229.139 55.824 231.219 54.592 232.435 52.128H238.339C237.539 54.56 236.083 56.56 233.971 58.128C231.891 59.664 229.299 60.432 226.195 60.432C223.667 60.432 221.395 59.872 219.379 58.752C217.395 57.6 215.827 56 214.675 53.952C213.555 51.872 212.995 49.472 212.995 46.752C212.995 44.032 213.539 41.648 214.627 39.6C215.747 37.52 217.299 35.92 219.283 34.8C221.299 33.68 223.603 33.12 226.195 33.12C228.691 33.12 230.915 33.664 232.867 34.752C234.819 35.84 236.339 37.376 237.427 39.36C238.515 41.312 239.059 43.568 239.059 46.128ZM233.347 44.4C233.315 42.384 232.595 40.768 231.187 39.552C229.779 38.336 228.035 37.728 225.955 37.728C224.067 37.728 222.451 38.336 221.107 39.552C219.763 40.736 218.963 42.352 218.707 44.4H233.347ZM268.252 33.552L252.028 72.432H246.364L251.74 59.568L241.324 33.552H247.42L254.86 53.712L262.588 33.552H268.252Z" fill="black"/>
<path d="M292.493 53.184H278.525L276.125 60H270.413L282.365 26.592H288.701L300.653 60H294.893L292.493 53.184ZM290.957 48.72L285.533 33.216L280.061 48.72H290.957ZM311.322 37.44C312.25 36.224 313.514 35.2 315.114 34.368C316.714 33.536 318.522 33.12 320.538 33.12C322.842 33.12 324.938 33.696 326.826 34.848C328.746 35.968 330.25 37.552 331.338 39.6C332.426 41.648 332.97 44 332.97 46.656C332.97 49.312 332.426 51.696 331.338 53.808C330.25 55.888 328.746 57.52 326.826 58.704C324.938 59.856 322.842 60.432 320.538 60.432C318.522 60.432 316.73 60.032 315.162 59.232C313.594 58.4 312.314 57.376 311.322 56.16V72.576H305.85V33.552H311.322V37.44ZM327.402 46.656C327.402 44.832 327.018 43.264 326.25 41.952C325.514 40.608 324.522 39.6 323.274 38.928C322.058 38.224 320.746 37.872 319.338 37.872C317.962 37.872 316.65 38.224 315.402 38.928C314.186 39.632 313.194 40.656 312.426 42C311.69 43.344 311.322 44.928 311.322 46.752C311.322 48.576 311.69 50.176 312.426 51.552C313.194 52.896 314.186 53.92 315.402 54.624C316.65 55.328 317.962 55.68 319.338 55.68C320.746 55.68 322.058 55.328 323.274 54.624C324.522 53.888 325.514 52.832 326.25 51.456C327.018 50.08 327.402 48.48 327.402 46.656ZM343.853 37.44C344.781 36.224 346.045 35.2 347.645 34.368C349.245 33.536 351.053 33.12 353.069 33.12C355.373 33.12 357.469 33.696 359.357 34.848C361.277 35.968 362.781 37.552 363.869 39.6C364.957 41.648 365.501 44 365.501 46.656C365.501 49.312 364.957 51.696 363.869 53.808C362.781 55.888 361.277 57.52 359.357 58.704C357.469 59.856 355.373 60.432 353.069 60.432C351.053 60.432 349.261 60.032 347.693 59.232C346.125 58.4 344.845 57.376 343.853 56.16V72.576H338.381V33.552H343.853V37.44ZM359.933 46.656C359.933 44.832 359.549 43.264 358.781 41.952C358.045 40.608 357.053 39.6 355.805 38.928C354.589 38.224 353.277 37.872 351.869 37.872C350.493 37.872 349.181 38.224 347.933 38.928C346.717 39.632 345.725 40.656 344.957 42C344.221 43.344 343.853 44.928 343.853 46.752C343.853 48.576 344.221 50.176 344.957 51.552C345.725 52.896 346.717 53.92 347.933 54.624C349.181 55.328 350.493 55.68 351.869 55.68C353.277 55.68 354.589 55.328 355.805 54.624C357.053 53.888 358.045 52.832 358.781 51.456C359.549 50.08 359.933 48.48 359.933 46.656Z" fill="#1554A7"/>
</svg>
