<svg width="372" height="84" viewBox="0 0 372 84" fill="none" xmlns="http://www.w3.org/2000/svg">
<rect width="83.7748" height="84" rx="13" fill="#1633FF"/>
<rect x="15.9571" y="60" width="52.8579" height="2" fill="white"/>
<rect x="15.9571" y="23" width="1.99464" height="39" fill="white"/>
<rect x="14.9598" y="54" width="1.99464" height="1" fill="white"/>
<rect x="14.9598" y="45" width="1.99464" height="1" fill="white"/>
<rect x="14.9598" y="37" width="1.99464" height="1" fill="white"/>
<rect x="14.9598" y="29" width="1.99464" height="1" fill="white"/>
<rect x="19.9464" y="31" width="7.97855" height="27" fill="white"/>
<rect x="29.9196" y="38" width="6.98123" height="20" fill="white"/>
<rect x="38.8954" y="44" width="6.98123" height="14" fill="white"/>
<rect x="47.8713" y="35" width="6.98123" height="23" fill="white"/>
<rect x="56.8472" y="23" width="6.98123" height="35" fill="white"/>
<path d="M119.311 60.336C117.071 60.336 115.055 59.952 113.263 59.184C111.471 58.384 110.063 57.264 109.039 55.824C108.015 54.384 107.503 52.704 107.503 50.784H113.359C113.487 52.224 114.047 53.408 115.039 54.336C116.063 55.264 117.487 55.728 119.311 55.728C121.199 55.728 122.671 55.28 123.727 54.384C124.783 53.456 125.311 52.272 125.311 50.832C125.311 49.712 124.975 48.8 124.303 48.096C123.663 47.392 122.847 46.848 121.855 46.464C120.895 46.08 119.551 45.664 117.823 45.216C115.647 44.64 113.871 44.064 112.495 43.488C111.151 42.88 109.999 41.952 109.039 40.704C108.079 39.456 107.599 37.792 107.599 35.712C107.599 33.792 108.079 32.112 109.039 30.672C109.999 29.232 111.343 28.128 113.071 27.36C114.799 26.592 116.799 26.208 119.071 26.208C122.303 26.208 124.943 27.024 126.991 28.656C129.071 30.256 130.223 32.464 130.447 35.28H124.399C124.303 34.064 123.727 33.024 122.671 32.16C121.615 31.296 120.223 30.864 118.495 30.864C116.927 30.864 115.647 31.264 114.655 32.064C113.663 32.864 113.167 34.016 113.167 35.52C113.167 36.544 113.471 37.392 114.079 38.064C114.719 38.704 115.519 39.216 116.479 39.6C117.439 39.984 118.751 40.4 120.415 40.848C122.623 41.456 124.415 42.064 125.791 42.672C127.199 43.28 128.383 44.224 129.343 45.504C130.335 46.752 130.831 48.432 130.831 50.544C130.831 52.24 130.367 53.84 129.439 55.344C128.543 56.848 127.215 58.064 125.455 58.992C123.727 59.888 121.679 60.336 119.311 60.336ZM161.239 33.552V60H155.767V56.88C154.903 57.968 153.767 58.832 152.359 59.472C150.983 60.08 149.511 60.384 147.943 60.384C145.863 60.384 143.991 59.952 142.327 59.088C140.695 58.224 139.399 56.944 138.439 55.248C137.511 53.552 137.047 51.504 137.047 49.104V33.552H142.471V48.288C142.471 50.656 143.063 52.48 144.247 53.76C145.431 55.008 147.047 55.632 149.095 55.632C151.143 55.632 152.759 55.008 153.943 53.76C155.159 52.48 155.767 50.656 155.767 48.288V33.552H161.239ZM173.931 37.392C174.731 36.048 175.787 35.008 177.099 34.272C178.443 33.504 180.027 33.12 181.851 33.12V38.784H180.459C178.315 38.784 176.683 39.328 175.563 40.416C174.475 41.504 173.931 43.392 173.931 46.08V60H168.459V33.552H173.931V37.392ZM197.105 55.104L204.593 33.552H210.401L200.321 60H193.793L183.761 33.552H189.617L197.105 55.104ZM238.777 46.128C238.777 47.12 238.713 48.016 238.585 48.816H218.377C218.537 50.928 219.321 52.624 220.729 53.904C222.137 55.184 223.865 55.824 225.913 55.824C228.857 55.824 230.937 54.592 232.153 52.128H238.057C237.257 54.56 235.801 56.56 233.689 58.128C231.609 59.664 229.017 60.432 225.913 60.432C223.385 60.432 221.113 59.872 219.097 58.752C217.113 57.6 215.545 56 214.393 53.952C213.273 51.872 212.713 49.472 212.713 46.752C212.713 44.032 213.257 41.648 214.345 39.6C215.465 37.52 217.017 35.92 219.001 34.8C221.017 33.68 223.321 33.12 225.913 33.12C228.409 33.12 230.633 33.664 232.585 34.752C234.537 35.84 236.057 37.376 237.145 39.36C238.233 41.312 238.777 43.568 238.777 46.128ZM233.065 44.4C233.033 42.384 232.313 40.768 230.905 39.552C229.497 38.336 227.753 37.728 225.673 37.728C223.785 37.728 222.169 38.336 220.825 39.552C219.481 40.736 218.681 42.352 218.425 44.4H233.065ZM267.97 33.552L251.746 72.432H246.082L251.458 59.568L241.042 33.552H247.138L254.578 53.712L262.306 33.552H267.97Z" fill="black" fill-opacity="0.88"/>
<path d="M292.212 53.184H278.244L275.844 60H270.132L282.084 26.592H288.42L300.372 60H294.612L292.212 53.184ZM290.676 48.72L285.252 33.216L279.78 48.72H290.676ZM311.041 37.44C311.969 36.224 313.233 35.2 314.833 34.368C316.433 33.536 318.241 33.12 320.257 33.12C322.561 33.12 324.657 33.696 326.545 34.848C328.465 35.968 329.969 37.552 331.057 39.6C332.145 41.648 332.689 44 332.689 46.656C332.689 49.312 332.145 51.696 331.057 53.808C329.969 55.888 328.465 57.52 326.545 58.704C324.657 59.856 322.561 60.432 320.257 60.432C318.241 60.432 316.449 60.032 314.881 59.232C313.313 58.4 312.033 57.376 311.041 56.16V72.576H305.569V33.552H311.041V37.44ZM327.121 46.656C327.121 44.832 326.737 43.264 325.969 41.952C325.233 40.608 324.241 39.6 322.993 38.928C321.777 38.224 320.465 37.872 319.057 37.872C317.681 37.872 316.369 38.224 315.121 38.928C313.905 39.632 312.913 40.656 312.145 42C311.409 43.344 311.041 44.928 311.041 46.752C311.041 48.576 311.409 50.176 312.145 51.552C312.913 52.896 313.905 53.92 315.121 54.624C316.369 55.328 317.681 55.68 319.057 55.68C320.465 55.68 321.777 55.328 322.993 54.624C324.241 53.888 325.233 52.832 325.969 51.456C326.737 50.08 327.121 48.48 327.121 46.656ZM343.572 37.44C344.5 36.224 345.764 35.2 347.364 34.368C348.964 33.536 350.772 33.12 352.788 33.12C355.092 33.12 357.188 33.696 359.076 34.848C360.996 35.968 362.5 37.552 363.588 39.6C364.676 41.648 365.22 44 365.22 46.656C365.22 49.312 364.676 51.696 363.588 53.808C362.5 55.888 360.996 57.52 359.076 58.704C357.188 59.856 355.092 60.432 352.788 60.432C350.772 60.432 348.98 60.032 347.412 59.232C345.844 58.4 344.564 57.376 343.572 56.16V72.576H338.1V33.552H343.572V37.44ZM359.652 46.656C359.652 44.832 359.268 43.264 358.5 41.952C357.764 40.608 356.772 39.6 355.524 38.928C354.308 38.224 352.996 37.872 351.588 37.872C350.212 37.872 348.9 38.224 347.652 38.928C346.436 39.632 345.444 40.656 344.676 42C343.94 43.344 343.572 44.928 343.572 46.752C343.572 48.576 343.94 50.176 344.676 51.552C345.444 52.896 346.436 53.92 347.652 54.624C348.9 55.328 350.212 55.68 351.588 55.68C352.996 55.68 354.308 55.328 355.524 54.624C356.772 53.888 357.764 52.832 358.5 51.456C359.268 50.08 359.652 48.48 359.652 46.656Z" fill="#1633FF"/>
</svg>
