<svg width="372" height="84" viewBox="0 0 372 84" fill="none" xmlns="http://www.w3.org/2000/svg">
<rect width="83.7748" height="84" rx="13" fill="white"/>
<rect x="15.9571" y="59" width="52.8579" height="2" fill="#1633FF"/>
<rect x="15.9571" y="22" width="1.99464" height="39" fill="#1633FF"/>
<rect x="14.9598" y="53" width="1.99464" height="1" fill="#1633FF"/>
<rect x="14.9598" y="44" width="1.99464" height="1" fill="#1633FF"/>
<rect x="14.9598" y="36" width="1.99464" height="1" fill="#1633FF"/>
<rect x="14.9598" y="28" width="1.99464" height="1" fill="#1633FF"/>
<rect x="19.9464" y="30" width="7.97855" height="27" fill="#1633FF"/>
<rect x="29.9196" y="37" width="6.98123" height="20" fill="#1633FF"/>
<rect x="38.8954" y="43" width="6.98123" height="14" fill="#1633FF"/>
<rect x="47.8713" y="34" width="6.98123" height="23" fill="#1633FF"/>
<rect x="56.8472" y="22" width="6.98123" height="35" fill="#1633FF"/>
<path d="M119.311 61.336C117.071 61.336 115.055 60.952 113.263 60.184C111.471 59.384 110.063 58.264 109.039 56.824C108.015 55.384 107.503 53.704 107.503 51.784H113.359C113.487 53.224 114.047 54.408 115.039 55.336C116.063 56.264 117.487 56.728 119.311 56.728C121.199 56.728 122.671 56.28 123.727 55.384C124.783 54.456 125.311 53.272 125.311 51.832C125.311 50.712 124.975 49.8 124.303 49.096C123.663 48.392 122.847 47.848 121.855 47.464C120.895 47.08 119.551 46.664 117.823 46.216C115.647 45.64 113.871 45.064 112.495 44.488C111.151 43.88 109.999 42.952 109.039 41.704C108.079 40.456 107.599 38.792 107.599 36.712C107.599 34.792 108.079 33.112 109.039 31.672C109.999 30.232 111.343 29.128 113.071 28.36C114.799 27.592 116.799 27.208 119.071 27.208C122.303 27.208 124.943 28.024 126.991 29.656C129.071 31.256 130.223 33.464 130.447 36.28H124.399C124.303 35.064 123.727 34.024 122.671 33.16C121.615 32.296 120.223 31.864 118.495 31.864C116.927 31.864 115.647 32.264 114.655 33.064C113.663 33.864 113.167 35.016 113.167 36.52C113.167 37.544 113.471 38.392 114.079 39.064C114.719 39.704 115.519 40.216 116.479 40.6C117.439 40.984 118.751 41.4 120.415 41.848C122.623 42.456 124.415 43.064 125.791 43.672C127.199 44.28 128.383 45.224 129.343 46.504C130.335 47.752 130.831 49.432 130.831 51.544C130.831 53.24 130.367 54.84 129.439 56.344C128.543 57.848 127.215 59.064 125.455 59.992C123.727 60.888 121.679 61.336 119.311 61.336ZM161.239 34.552V61H155.767V57.88C154.903 58.968 153.767 59.832 152.359 60.472C150.983 61.08 149.511 61.384 147.943 61.384C145.863 61.384 143.991 60.952 142.327 60.088C140.695 59.224 139.399 57.944 138.439 56.248C137.511 54.552 137.047 52.504 137.047 50.104V34.552H142.471V49.288C142.471 51.656 143.063 53.48 144.247 54.76C145.431 56.008 147.047 56.632 149.095 56.632C151.143 56.632 152.759 56.008 153.943 54.76C155.159 53.48 155.767 51.656 155.767 49.288V34.552H161.239ZM173.931 38.392C174.731 37.048 175.787 36.008 177.099 35.272C178.443 34.504 180.027 34.12 181.851 34.12V39.784H180.459C178.315 39.784 176.683 40.328 175.563 41.416C174.475 42.504 173.931 44.392 173.931 47.08V61H168.459V34.552H173.931V38.392ZM197.105 56.104L204.593 34.552H210.401L200.321 61H193.793L183.761 34.552H189.617L197.105 56.104ZM238.777 47.128C238.777 48.12 238.713 49.016 238.585 49.816H218.377C218.537 51.928 219.321 53.624 220.729 54.904C222.137 56.184 223.865 56.824 225.913 56.824C228.857 56.824 230.937 55.592 232.153 53.128H238.057C237.257 55.56 235.801 57.56 233.689 59.128C231.609 60.664 229.017 61.432 225.913 61.432C223.385 61.432 221.113 60.872 219.097 59.752C217.113 58.6 215.545 57 214.393 54.952C213.273 52.872 212.713 50.472 212.713 47.752C212.713 45.032 213.257 42.648 214.345 40.6C215.465 38.52 217.017 36.92 219.001 35.8C221.017 34.68 223.321 34.12 225.913 34.12C228.409 34.12 230.633 34.664 232.585 35.752C234.537 36.84 236.057 38.376 237.145 40.36C238.233 42.312 238.777 44.568 238.777 47.128ZM233.065 45.4C233.033 43.384 232.313 41.768 230.905 40.552C229.497 39.336 227.753 38.728 225.673 38.728C223.785 38.728 222.169 39.336 220.825 40.552C219.481 41.736 218.681 43.352 218.425 45.4H233.065ZM267.97 34.552L251.746 73.432H246.082L251.458 60.568L241.042 34.552H247.138L254.578 54.712L262.306 34.552H267.97ZM292.212 54.184H278.244L275.844 61H270.132L282.084 27.592H288.42L300.372 61H294.612L292.212 54.184ZM290.676 49.72L285.252 34.216L279.78 49.72H290.676ZM311.041 38.44C311.969 37.224 313.233 36.2 314.833 35.368C316.433 34.536 318.241 34.12 320.257 34.12C322.561 34.12 324.657 34.696 326.545 35.848C328.465 36.968 329.969 38.552 331.057 40.6C332.145 42.648 332.689 45 332.689 47.656C332.689 50.312 332.145 52.696 331.057 54.808C329.969 56.888 328.465 58.52 326.545 59.704C324.657 60.856 322.561 61.432 320.257 61.432C318.241 61.432 316.449 61.032 314.881 60.232C313.313 59.4 312.033 58.376 311.041 57.16V73.576H305.569V34.552H311.041V38.44ZM327.121 47.656C327.121 45.832 326.737 44.264 325.969 42.952C325.233 41.608 324.241 40.6 322.993 39.928C321.777 39.224 320.465 38.872 319.057 38.872C317.681 38.872 316.369 39.224 315.121 39.928C313.905 40.632 312.913 41.656 312.145 43C311.409 44.344 311.041 45.928 311.041 47.752C311.041 49.576 311.409 51.176 312.145 52.552C312.913 53.896 313.905 54.92 315.121 55.624C316.369 56.328 317.681 56.68 319.057 56.68C320.465 56.68 321.777 56.328 322.993 55.624C324.241 54.888 325.233 53.832 325.969 52.456C326.737 51.08 327.121 49.48 327.121 47.656ZM343.572 38.44C344.5 37.224 345.764 36.2 347.364 35.368C348.964 34.536 350.772 34.12 352.788 34.12C355.092 34.12 357.188 34.696 359.076 35.848C360.996 36.968 362.5 38.552 363.588 40.6C364.676 42.648 365.22 45 365.22 47.656C365.22 50.312 364.676 52.696 363.588 54.808C362.5 56.888 360.996 58.52 359.076 59.704C357.188 60.856 355.092 61.432 352.788 61.432C350.772 61.432 348.98 61.032 347.412 60.232C345.844 59.4 344.564 58.376 343.572 57.16V73.576H338.1V34.552H343.572V38.44ZM359.652 47.656C359.652 45.832 359.268 44.264 358.5 42.952C357.764 41.608 356.772 40.6 355.524 39.928C354.308 39.224 352.996 38.872 351.588 38.872C350.212 38.872 348.9 39.224 347.652 39.928C346.436 40.632 345.444 41.656 344.676 43C343.94 44.344 343.572 45.928 343.572 47.752C343.572 49.576 343.94 51.176 344.676 52.552C345.444 53.896 346.436 54.92 347.652 55.624C348.9 56.328 350.212 56.68 351.588 56.68C352.996 56.68 354.308 56.328 355.524 55.624C356.772 54.888 357.764 53.832 358.5 52.456C359.268 51.08 359.652 49.48 359.652 47.656Z" fill="white"/>
</svg>
