<svg width="279" height="203" viewBox="0 0 279 203" fill="none" xmlns="http://www.w3.org/2000/svg">
	<g id="logoIsometric">
		<path id="blueLight" d="M278.426 107.368L135.235 154.2L0.727495 107.38L136.18 62.69L278.426 107.368Z" fill="#1633FF" fill-opacity="0.43"/>
		<path id="blueDark" d="M278.386 107.253L135.195 154.086L0.714452 107.265L136.14 62.5754L278.386 107.253Z" fill="#1633FF" fill-opacity="0.79"/>
		<g id="logo">
			<path id="blueDarker" d="M278.019 106.772L134.829 153.604L0.321367 106.784L135.774 62.0939L278.019 106.772Z" fill="#1633FF"/>
			<g id="logo_2">
				<path id="Vector 5" d="M152.326 135.333L157.461 133.839L64.5132 100.97L128.706 79.5499L124.084 78.0559L55.7831 100.97L152.326 135.333Z" fill="white"/>
				<path id="Rectangle 64" d="M118.434 85.5272L131.786 90.0092L84.0269 105.95L70.6753 100.969L118.434 85.5272Z" fill="white"/>
				<path id="Rectangle 65" d="M122.541 95.4884L134.865 99.9704L99.4318 112.423L86.0805 107.443L122.541 95.4884Z" fill="white"/>
				<path id="Rectangle 66" d="M128.703 104.453L142.054 108.935L116.891 117.901L103.54 112.921L128.703 104.453Z" fill="white"/>
				<path id="Rectangle 67" d="M161.057 104.452L174.408 108.934L133.325 123.38L119.974 118.4L161.057 104.452Z" fill="white"/>
				<path id="Rectangle 68" d="M194.95 103.455L208.815 108.435L146.677 129.855L133.325 124.875L194.95 103.455Z" fill="white"/>
				<g id="ShapesToResiz">
					<path id="Vector 6" d="M160.028 132.343L156.434 133.339L65.0264 100.969L68.1077 99.9725L160.028 132.343Z" fill="#1633FF"/>
					<g id="Group 5">
						<path id="Vector 7" d="M142.056 92.9971L115.353 85.0293L124.083 81.5425L146.678 89.0124L142.056 92.9971Z" fill="#1633FF"/>
						<path id="Vector 12" d="M140.001 83.534L113.298 75.5662L122.028 72.0794L144.623 79.5493L140.001 83.534Z" fill="#1633FF"/>
						<path id="Vector 8" d="M146.164 103.954L119.461 95.9865L127.678 92.0016L150.786 99.9696L146.164 103.954Z" fill="#1633FF"/>
						<path id="Vector 9" d="M173.893 109.93L147.191 101.962L155.407 97.9772L178.515 105.945L173.893 109.93Z" fill="#1633FF"/>
						<path id="Vector 11" d="M214.977 110.925L188.274 102.957L196.491 98.9721L219.599 106.94L214.977 110.925Z" fill="#1633FF"/>
						<path id="Vector 10" d="M140.515 108.437L126.65 103.955L139.488 99.9702L148.218 104.452L140.515 108.437Z" fill="#1633FF"/>
					</g>
				</g>
			</g>
		</g>
	</g>
</svg>
