<svg width="84" height="84" viewBox="0 0 84 84" fill="none" xmlns="http://www.w3.org/2000/svg">
<rect width="84" height="84" rx="13" fill="#1554A7"/>
<rect x="15.12" y="22.68" width="2.52" height="38.64" rx="1" fill="white"/>
<rect x="15.12" y="58.8" width="52.92" height="2.52" rx="1" fill="white"/>
<rect x="19.32" y="31.08" width="7.56" height="26.88" rx="1" fill="white"/>
<rect x="29" y="38" width="7" height="20" rx="1" fill="white"/>
<rect x="37.8" y="43.68" width="7.56" height="14.28" rx="1" fill="white"/>
<rect x="47.04" y="34.44" width="7.56" height="23.52" rx="1" fill="white"/>
<rect x="56" y="23" width="8" height="35" rx="1" fill="white"/>
<rect x="59.64" y="61.32" width="0.84" height="0.84" fill="white"/>
<rect x="50.4" y="61.32" width="0.84" height="0.84" fill="white"/>
<rect x="41.16" y="61.32" width="0.84" height="0.84" fill="white"/>
<rect x="31.92" y="61.32" width="0.84" height="0.84" fill="white"/>
<rect x="22.68" y="61.32" width="0.84" height="0.84" fill="white"/>
<rect x="14.28" y="53.76" width="0.84" height="0.84" fill="white"/>
<rect x="14.28" y="45.36" width="0.84" height="0.84" fill="white"/>
<rect x="14.28" y="36.96" width="0.84" height="0.84" fill="white"/>
<rect x="14.28" y="28.56" width="0.84" height="0.84" fill="white"/>
</svg>
