<svg width="1157" height="609" viewBox="0 0 1157 609" fill="none" xmlns="http://www.w3.org/2000/svg">
<path d="M713.808 231.367L574.264 277.991L443.795 232.557L575.433 186.129L713.808 231.367Z" fill="#1633FF"/>
<path d="M713.808 247.809L574.264 294.433L443.795 249L575.433 202.571L713.808 247.809Z" fill="#1633FF" fill-opacity="0.79"/>
<path d="M713.808 264.252L574.264 310.876L443.795 265.442L575.433 219.014L713.808 264.252Z" fill="#1633FF" fill-opacity="0.43"/>
<path d="M865.013 282.126L725.469 328.75L595 283.316L726.637 236.888L865.013 282.126Z" fill="#1633FF"/>
<path d="M865.013 298.568L725.469 345.192L595 299.759L726.637 253.33L865.013 298.568Z" fill="#1633FF" fill-opacity="0.79"/>
<path d="M865.013 315.011L725.469 361.635L595 316.201L726.637 269.773L865.013 315.011Z" fill="#1633FF" fill-opacity="0.43"/>
<path d="M1008.01 198.126L868.469 244.75L738 199.316L869.637 152.888L1008.01 198.126Z" fill="#1633FF"/>
<path d="M1008.01 214.568L868.469 261.192L738 215.759L869.637 169.33L1008.01 214.568Z" fill="#1633FF" fill-opacity="0.79"/>
<path d="M1008.01 231.011L868.469 277.635L738 232.201L869.637 185.773L1008.01 231.011Z" fill="#1633FF" fill-opacity="0.43"/>
<path d="M1010.01 333.126L870.469 379.75L740 334.316L871.637 287.888L1010.01 333.126Z" fill="#1633FF"/>
<path d="M1010.01 349.568L870.469 396.192L740 350.759L871.637 304.33L1010.01 349.568Z" fill="#1633FF" fill-opacity="0.79"/>
<path d="M1010.01 366.011L870.469 412.635L740 367.201L871.637 320.773L1010.01 366.011Z" fill="#1633FF" fill-opacity="0.43"/>
<path d="M1156.01 282.126L1016.47 328.75L886 283.316L1017.64 236.888L1156.01 282.126Z" fill="#1633FF"/>
<path d="M1156.01 298.568L1016.47 345.192L886 299.759L1017.64 253.33L1156.01 298.568Z" fill="#1633FF" fill-opacity="0.79"/>
<path d="M1156.01 315.011L1016.47 361.635L886 316.201L1017.64 269.773L1156.01 315.011Z" fill="#1633FF" fill-opacity="0.43"/>
<path d="M865.013 386.126L725.469 432.75L595 387.316L726.637 340.888L865.013 386.126Z" fill="#1633FF"/>
<path d="M865.013 402.568L725.469 449.192L595 403.759L726.637 357.33L865.013 402.568Z" fill="#1633FF" fill-opacity="0.79"/>
<path d="M865.013 419.011L725.469 465.635L595 420.201L726.637 373.773L865.013 419.011Z" fill="#1633FF" fill-opacity="0.43"/>
<path d="M860.013 115.126L720.469 161.75L590 116.316L721.637 69.8879L860.013 115.126Z" fill="#1633FF"/>
<path d="M860.013 131.568L720.469 178.192L590 132.759L721.637 86.3304L860.013 131.568Z" fill="#1633FF" fill-opacity="0.79"/>
<path d="M860.013 148.011L720.469 194.635L590 149.201L721.637 102.773L860.013 148.011Z" fill="#1633FF" fill-opacity="0.43"/>
<path d="M736 144.5L741 143L650.5 110L713 88.5L708.5 87L642 110L736 144.5Z" fill="white"/>
<path d="M703 94.5L716 99L669.5 115L656.5 110L703 94.5Z" fill="white"/>
<path d="M707 104.5L719 109L684.5 121.5L671.5 116.5L707 104.5Z" fill="white"/>
<path d="M713 113.5L726 118L701.5 127L688.5 122L713 113.5Z" fill="white"/>
<path d="M744.5 113.5L757.5 118L717.5 132.5L704.5 127.5L744.5 113.5Z" fill="white"/>
<path d="M777.5 112.5L791 117.5L730.5 139L717.5 134L777.5 112.5Z" fill="white"/>
<path d="M743.5 141.5L740 142.5L651 110L654 109L743.5 141.5Z" fill="#1633FF"/>
<path d="M726 102L700 94L708.5 90.5L730.5 98L726 102Z" fill="#1633FF"/>
<path d="M724 92.5L698 84.5L706.5 81L728.5 88.5L724 92.5Z" fill="#1633FF"/>
<path d="M730 113L704 105L712 101L734.5 109L730 113Z" fill="#1633FF"/>
<path d="M757 119L731 111L739 107L761.5 115L757 119Z" fill="#1633FF"/>
<path d="M797 120L771 112L779 108L801.5 116L797 120Z" fill="#1633FF"/>
<path d="M724.5 117.5L711 113L723.5 109L732 113.5L724.5 117.5Z" fill="#1633FF"/>
<path d="M713.013 335.126L573.469 381.75L443 336.316L574.637 289.888L713.013 335.126Z" fill="#1633FF"/>
<path d="M713.013 351.568L573.469 398.192L443 352.759L574.637 306.33L713.013 351.568Z" fill="#1633FF" fill-opacity="0.79"/>
<path d="M713.013 368.011L573.469 414.635L443 369.201L574.637 322.773L713.013 368.011Z" fill="#1633FF" fill-opacity="0.43"/>
<path d="M567.808 181.126L428.264 227.75L297.795 182.316L429.433 135.888L567.808 181.126Z" fill="#1633FF"/>
<path d="M567.808 197.568L428.264 244.192L297.795 198.759L429.433 152.33L567.808 197.568Z" fill="#1633FF" fill-opacity="0.69"/>
<path d="M567.808 214.011L428.264 260.635L297.795 215.201L429.433 168.773L567.808 214.011Z" fill="#1633FF" fill-opacity="0.43"/>
<path d="M420.984 235.104L280.524 278.891L151.002 230.825L283.553 187.072L420.984 235.104Z" fill="#1633FF"/>
<path d="M420.793 251.648L280.333 295.436L150.811 247.369L283.362 203.617L420.793 251.648Z" fill="#1633FF" fill-opacity="0.79"/>
<path d="M420.602 268.193L280.142 311.981L150.62 263.914L283.171 220.161L420.602 268.193Z" fill="#1633FF" fill-opacity="0.43"/>
<path d="M272.984 284.571L132.524 328.359L3.00209 280.293L135.553 236.54L272.984 284.571Z" fill="#1633FF"/>
<path d="M272.793 301.116L132.333 344.904L2.81105 296.837L135.362 253.084L272.793 301.116Z" fill="#1633FF" fill-opacity="0.79"/>
<path d="M272.602 317.661L132.142 361.448L2.62001 313.382L135.171 269.629L272.602 317.661Z" fill="#1633FF" fill-opacity="0.43"/>
<path d="M417.984 371.571L277.524 415.359L148.002 367.293L280.553 323.54L417.984 371.571Z" fill="#1633FF"/>
<path d="M417.793 388.116L277.333 431.904L147.811 383.837L280.362 340.084L417.793 388.116Z" fill="#1633FF" fill-opacity="0.79"/>
<path d="M417.602 404.661L277.142 448.448L147.62 400.382L280.171 356.629L417.602 404.661Z" fill="#1633FF" fill-opacity="0.43"/>
<path d="M564.984 459.571L424.524 503.359L295.002 455.293L427.553 411.54L564.984 459.571Z" fill="#1633FF"/>
<path d="M564.793 476.116L424.333 519.904L294.811 471.837L427.362 428.084L564.793 476.116Z" fill="#1633FF" fill-opacity="0.79"/>
<path d="M564.602 492.661L424.142 536.448L294.62 488.382L427.171 444.629L564.602 492.661Z" fill="#1633FF" fill-opacity="0.43"/>
<path d="M437 488.5L442 487L351.5 454L414 432.5L409.5 431L343 454L437 488.5Z" fill="white"/>
<path d="M404 438.5L417 443L370.5 459L357.5 454L404 438.5Z" fill="white"/>
<path d="M408 448.5L420 453L385.5 465.5L372.5 460.5L408 448.5Z" fill="white"/>
<path d="M414 457.5L427 462L402.5 471L389.5 466L414 457.5Z" fill="white"/>
<path d="M445.5 457.5L458.5 462L418.5 476.5L405.5 471.5L445.5 457.5Z" fill="white"/>
<path d="M478.5 456.5L492 461.5L431.5 483L418.5 478L478.5 456.5Z" fill="white"/>
<path d="M444.5 485.5L441 486.5L352 454L355 453L444.5 485.5Z" fill="#1633FF"/>
<path d="M427 446L401 438L409.5 434.5L431.5 442L427 446Z" fill="#1633FF"/>
<path d="M425 436.5L399 428.5L407.5 425L429.5 432.5L425 436.5Z" fill="#1633FF"/>
<path d="M431 457L405 449L413 445L435.5 453L431 457Z" fill="#1633FF"/>
<path d="M458 463L432 455L440 451L462.5 459L458 463Z" fill="#1633FF"/>
<path d="M498 464L472 456L480 452L502.5 460L498 464Z" fill="#1633FF"/>
<path d="M425.5 461.5L412 457L424.5 453L433 457.5L425.5 461.5Z" fill="#1633FF"/>
<path d="M566.521 301.83L427.105 348.838L296.166 301.83L428.021 256.973L566.521 301.83Z" fill="#1633FF" fill-opacity="0.79"/>
<path d="M566.547 318.486L427.132 365.493L296.166 318.486L428.048 273.629L566.547 318.486Z" fill="#1633FF" fill-opacity="0.43"/>
<path d="M566.176 283.833L426.761 330.841L295.795 283.833L427.677 238.976L566.176 283.833Z" fill="#1633FF"/>
</svg>
