<svg width="695" height="375" viewBox="0 0 695 375" fill="none" xmlns="http://www.w3.org/2000/svg">
<path d="M0 0L346 116L695 0V245L346 349L0 237V0Z" fill="#001CDF"/>
<path d="M679.013 152.126L539.469 198.75L409 153.317L540.637 106.888L679.013 152.126Z" fill="#0017BA"/>
<path d="M679.013 168.569L539.469 215.192L409 169.759L540.637 123.33L679.013 168.569Z" fill="#001CDF" fill-opacity="0.68"/>
<path d="M679.013 185.011L539.469 231.635L409 186.202L540.637 139.773L679.013 185.011Z" fill="#001CDF" fill-opacity="0.75"/>
<path d="M482.013 225.126L342.469 271.75L212 226.317L343.637 179.888L482.013 225.126Z" fill="#0017BA"/>
<path d="M482.013 241.569L342.469 288.192L212 242.759L343.637 196.33L482.013 241.569Z" fill="#001CDF" fill-opacity="0.68"/>
<path d="M482.013 258.011L342.469 304.635L212 259.202L343.637 212.773L482.013 258.011Z" fill="#001CDF" fill-opacity="0.75"/>
<path d="M353.634 263.341L357.312 262.166L290.23 237.935L336.19 221.164L332.856 220.066L283.956 238.004L353.634 263.341Z" fill="white" fill-opacity="0.27"/>
<path d="M328.858 225.784L338.492 229.083L304.298 241.563L294.66 237.886L328.858 225.784Z" fill="white" fill-opacity="0.27"/>
<path d="M331.894 233.317L340.79 236.624L315.425 246.359L305.787 242.682L331.894 233.317Z" fill="white" fill-opacity="0.27"/>
<path d="M336.398 240.076L346.032 243.375L328.02 250.382L318.382 246.705L336.398 240.076Z" fill="white" fill-opacity="0.27"/>
<path d="M359.651 239.821L369.285 243.12L339.877 254.413L330.239 250.736L359.651 239.821Z" fill="white" fill-opacity="0.27"/>
<path d="M384.004 238.798L394.011 242.471L349.528 259.225L339.89 255.548L384.004 238.798Z" fill="white" fill-opacity="0.27"/>
<path d="M359.145 261.011L356.57 261.795L290.599 237.931L292.806 237.15L359.145 261.011Z" fill="#001AD3"/>
<path d="M345.899 231.272L326.639 225.43L332.885 222.714L349.188 228.209L345.899 231.272Z" fill="#001AD3"/>
<path d="M348.943 239.56L329.683 233.719L335.556 230.628L352.232 236.498L348.943 239.56Z" fill="#001AD3"/>
<path d="M368.924 243.881L349.665 238.039L355.537 234.949L372.213 240.818L368.924 243.881Z" fill="#001AD3"/>
<path d="M344.92 243.009L334.917 239.714L344.111 236.587L350.424 239.922L344.92 243.009Z" fill="#001AD3"/>
<path d="M280.013 152.126L140.469 198.75L9.99998 153.317L141.637 106.888L280.013 152.126Z" fill="#0017BA"/>
<path d="M280.013 168.569L140.469 215.192L9.99998 169.759L141.637 123.33L280.013 168.569Z" fill="#001CDF" fill-opacity="0.68"/>
<path d="M280.013 185.011L140.469 231.635L9.99998 186.202L141.637 139.773L280.013 185.011Z" fill="#001CDF" fill-opacity="0.75"/>
</svg>
