<svg width="1157" height="543" viewBox="0 0 1157 543" fill="none" xmlns="http://www.w3.org/2000/svg">
<path d="M713.808 165.367L574.264 211.991L443.795 166.557L575.433 120.129L713.808 165.367Z" fill="#1633FF"/>
<path d="M713.808 181.809L574.264 228.433L443.795 183L575.433 136.571L713.808 181.809Z" fill="#1633FF" fill-opacity="0.79"/>
<path d="M713.808 198.252L574.264 244.876L443.795 199.442L575.433 153.014L713.808 198.252Z" fill="#1633FF" fill-opacity="0.43"/>
<path d="M865.013 216.126L725.469 262.75L595 217.316L726.637 170.888L865.013 216.126Z" fill="#1633FF"/>
<path d="M865.013 232.568L725.469 279.192L595 233.759L726.637 187.33L865.013 232.568Z" fill="#1633FF" fill-opacity="0.79"/>
<path d="M865.013 249.011L725.469 295.635L595 250.201L726.637 203.773L865.013 249.011Z" fill="#1633FF" fill-opacity="0.43"/>
<path d="M1008.01 165.126L868.469 211.75L738 166.316L869.637 119.888L1008.01 165.126Z" fill="#1633FF"/>
<path d="M1008.01 181.568L868.469 228.192L738 182.759L869.637 136.33L1008.01 181.568Z" fill="#1633FF" fill-opacity="0.79"/>
<path d="M1008.01 198.011L868.469 244.635L738 199.201L869.637 152.773L1008.01 198.011Z" fill="#1633FF" fill-opacity="0.43"/>
<path d="M1010.01 267.126L870.469 313.75L740 268.316L871.637 221.888L1010.01 267.126Z" fill="#1633FF"/>
<path d="M1010.01 283.568L870.469 330.192L740 284.759L871.637 238.33L1010.01 283.568Z" fill="#1633FF" fill-opacity="0.79"/>
<path d="M1010.01 300.011L870.469 346.635L740 301.201L871.637 254.773L1010.01 300.011Z" fill="#1633FF" fill-opacity="0.43"/>
<path d="M1156.01 216.126L1016.47 262.75L886 217.316L1017.64 170.888L1156.01 216.126Z" fill="#1633FF"/>
<path d="M1156.01 232.568L1016.47 279.192L886 233.759L1017.64 187.33L1156.01 232.568Z" fill="#1633FF" fill-opacity="0.79"/>
<path d="M1156.01 249.011L1016.47 295.635L886 250.201L1017.64 203.773L1156.01 249.011Z" fill="#1633FF" fill-opacity="0.43"/>
<path d="M865.013 320.126L725.469 366.75L595 321.316L726.637 274.888L865.013 320.126Z" fill="#1633FF"/>
<path d="M865.013 336.568L725.469 383.192L595 337.759L726.637 291.33L865.013 336.568Z" fill="#1633FF" fill-opacity="0.79"/>
<path d="M865.013 353.011L725.469 399.635L595 354.201L726.637 307.773L865.013 353.011Z" fill="#1633FF" fill-opacity="0.43"/>
<path d="M861.013 115.126L721.469 161.75L591 116.316L722.637 69.8879L861.013 115.126Z" fill="#1633FF"/>
<path d="M861.013 131.568L721.469 178.192L591 132.759L722.637 86.3304L861.013 131.568Z" fill="#1633FF" fill-opacity="0.79"/>
<path d="M861.013 148.011L721.469 194.635L591 149.201L722.637 102.773L861.013 148.011Z" fill="#1633FF" fill-opacity="0.43"/>
<path d="M713.013 269.126L573.469 315.75L443 270.316L574.637 223.888L713.013 269.126Z" fill="#1633FF"/>
<path d="M713.013 285.568L573.469 332.192L443 286.759L574.637 240.33L713.013 285.568Z" fill="#1633FF" fill-opacity="0.79"/>
<path d="M713.013 302.011L573.469 348.635L443 303.201L574.637 256.773L713.013 302.011Z" fill="#1633FF" fill-opacity="0.43"/>
<path d="M567.808 115.126L428.264 161.75L297.795 116.316L429.433 69.8879L567.808 115.126Z" fill="#1633FF"/>
<path d="M567.808 131.568L428.264 178.192L297.795 132.759L429.433 86.3304L567.808 131.568Z" fill="#1633FF" fill-opacity="0.69"/>
<path d="M567.808 148.011L428.264 194.635L297.795 149.201L429.433 102.773L567.808 148.011Z" fill="#1633FF" fill-opacity="0.43"/>
<path d="M420.984 169.104L280.524 212.891L151.002 164.825L283.553 121.072L420.984 169.104Z" fill="#1633FF"/>
<path d="M420.793 185.648L280.333 229.436L150.811 181.369L283.362 137.617L420.793 185.648Z" fill="#1633FF" fill-opacity="0.79"/>
<path d="M420.602 202.193L280.142 245.981L150.62 197.914L283.171 154.161L420.602 202.193Z" fill="#1633FF" fill-opacity="0.43"/>
<path d="M272.984 218.571L132.524 262.359L3.00209 214.293L135.553 170.54L272.984 218.571Z" fill="#1633FF"/>
<path d="M272.793 235.116L132.333 278.904L2.81105 230.837L135.362 187.084L272.793 235.116Z" fill="#1633FF" fill-opacity="0.79"/>
<path d="M272.602 251.661L132.142 295.448L2.62001 247.382L135.171 203.629L272.602 251.661Z" fill="#1633FF" fill-opacity="0.43"/>
<path d="M417.984 305.571L277.524 349.359L148.002 301.293L280.553 257.54L417.984 305.571Z" fill="#1633FF"/>
<path d="M417.793 322.116L277.333 365.904L147.811 317.837L280.362 274.084L417.793 322.116Z" fill="#1633FF" fill-opacity="0.79"/>
<path d="M417.602 338.661L277.142 382.448L147.62 334.382L280.171 290.629L417.602 338.661Z" fill="#1633FF" fill-opacity="0.43"/>
<path d="M564.984 393.571L424.524 437.359L295.002 389.293L427.553 345.54L564.984 393.571Z" fill="#1633FF"/>
<path d="M564.793 410.116L424.333 453.904L294.811 405.837L427.362 362.084L564.793 410.116Z" fill="#1633FF" fill-opacity="0.79"/>
<path d="M564.602 426.661L424.142 470.448L294.62 422.382L427.171 378.629L564.602 426.661Z" fill="#1633FF" fill-opacity="0.43"/>
<path d="M437 422.5L442 421L351.5 388L414 366.5L409.5 365L343 388L437 422.5Z" fill="white"/>
<path d="M404 372.5L417 377L370.5 393L357.5 388L404 372.5Z" fill="white"/>
<path d="M408 382.5L420 387L385.5 399.5L372.5 394.5L408 382.5Z" fill="white"/>
<path d="M414 391.5L427 396L402.5 405L389.5 400L414 391.5Z" fill="white"/>
<path d="M445.5 391.5L458.5 396L418.5 410.5L405.5 405.5L445.5 391.5Z" fill="white"/>
<path d="M478.5 390.5L492 395.5L431.5 417L418.5 412L478.5 390.5Z" fill="white"/>
<path d="M444.5 419.5L441 420.5L352 388L355 387L444.5 419.5Z" fill="#1633FF"/>
<path d="M427 380L401 372L409.5 368.5L431.5 376L427 380Z" fill="#1633FF"/>
<path d="M425 370.5L399 362.5L407.5 359L429.5 366.5L425 370.5Z" fill="#1633FF"/>
<path d="M431 391L405 383L413 379L435.5 387L431 391Z" fill="#1633FF"/>
<path d="M458 397L432 389L440 385L462.5 393L458 397Z" fill="#1633FF"/>
<path d="M498 398L472 390L480 386L502.5 394L498 398Z" fill="#1633FF"/>
<path d="M425.5 395.5L412 391L424.5 387L433 391.5L425.5 395.5Z" fill="#1633FF"/>
<path d="M566.521 235.83L427.105 282.838L296.166 235.83L428.021 190.973L566.521 235.83Z" fill="#1633FF" fill-opacity="0.79"/>
<path d="M566.547 252.486L427.132 299.493L296.166 252.486L428.048 207.629L566.547 252.486Z" fill="#1633FF" fill-opacity="0.43"/>
<path d="M566.176 217.833L426.761 264.841L295.795 217.833L427.677 172.976L566.176 217.833Z" fill="#1633FF"/>
</svg>
