<svg width="646" height="260" viewBox="0 0 646 260" fill="none" xmlns="http://www.w3.org/2000/svg">
<rect width="646" height="260" fill="white"/>
<path d="M0 0L646 73V258L0 192V0Z" fill="#1554A7"/>
<path d="M0 0L646 61V259L0 203V0Z" fill="#1554A7" fill-opacity="0.58"/>
<path d="M0 0L646 51V260L0 215.11V0Z" fill="#1554A7" fill-opacity="0.48"/>
<path d="M437.989 226C471.043 226 497.838 222.512 497.838 218.21C497.838 213.908 471.043 210.421 437.989 210.421C404.936 210.421 378.14 213.908 378.14 218.21C378.14 222.512 404.936 226 437.989 226Z" fill="white"/>
<path d="M596.261 139.671H544.971L518.01 183.331C526.107 188.351 535.446 191.004 544.971 190.989C573.298 190.989 596.261 168.013 596.261 139.671Z" fill="#F2F2F2"/>
<path d="M472.468 213.361C479.995 213.361 486.096 207.256 486.096 199.725C486.096 192.193 479.995 186.088 472.468 186.088C464.941 186.088 458.839 192.193 458.839 199.725C458.839 207.256 464.941 213.361 472.468 213.361Z" fill="white"/>
<path d="M446.869 100.514C446.869 100.514 447.356 105.383 445.896 107.33C444.436 109.277 449.545 121.449 449.545 121.449L456.844 107.817C456.844 107.817 454.411 106.356 455.871 102.218L446.869 100.514Z" fill="#FFB9B9"/>
<path opacity="0.1" d="M446.869 100.514C446.869 100.514 447.356 105.383 445.896 107.33C444.436 109.277 449.545 121.449 449.545 121.449L456.844 107.817C456.844 107.817 454.411 106.356 455.871 102.218L446.869 100.514Z" fill="black"/>
<path d="M468.765 125.1L469.008 135.081L459.764 149.929L458.061 144.331L463.17 134.35C463.17 134.35 461.467 129.725 461.953 127.047C462.44 124.37 468.765 125.1 468.765 125.1Z" fill="#FFB9B9"/>
<path d="M430.812 123.64L430.569 133.62L439.814 148.469L441.517 142.87L436.408 132.89C436.408 132.89 438.111 128.265 437.624 125.587C437.138 122.909 430.812 123.64 430.812 123.64Z" fill="#FFB9B9"/>
<path d="M437.624 139.706L436.651 142.14C435.354 143.346 434.334 144.819 433.662 146.458C432.99 148.098 432.681 149.863 432.759 151.633L429.839 181.818C429.839 181.818 427.893 184.009 428.623 186.687C428.623 186.687 426.92 195.694 427.893 198.615C427.893 198.615 423.757 206.161 428.136 206.648C432.515 207.135 433.975 207.135 434.462 205.431C434.948 203.727 435.678 197.397 435.678 197.397L446.383 159.423L448.086 183.035C448.086 183.035 446.383 189.364 446.869 191.068C447.356 192.772 443.463 204.944 445.166 206.161C446.869 207.378 451.735 207.865 451.978 206.891C452.222 205.917 452.465 199.832 452.465 199.832C452.465 199.832 454.898 194.476 455.384 192.772C455.871 191.068 456.358 181.575 456.358 181.575L460.737 153.581C460.737 153.581 461.71 146.035 459.277 144.574L458.304 140.192L437.624 139.706Z" fill="#2F2E41"/>
<path d="M427.406 205.187L426.433 210.056C426.433 210.056 421.324 218.089 426.19 218.089C431.056 218.089 431.542 215.654 431.542 215.654V213.464C431.542 213.464 433.975 212.246 433.975 212.003C433.975 211.76 433.245 205.917 433.245 205.917L427.406 205.187Z" fill="#2F2E41"/>
<path d="M451.248 205.187L452.222 210.056C452.222 210.056 457.331 218.089 452.465 218.089C447.599 218.089 447.113 215.654 447.113 215.654V213.464C447.113 213.464 444.68 212.246 444.68 212.003C444.68 211.76 445.41 205.917 445.41 205.917L451.248 205.187Z" fill="#2F2E41"/>
<path d="M452.271 105.783C455.816 105.783 458.69 102.907 458.69 99.3604C458.69 95.8135 455.816 92.9381 452.271 92.9381C448.726 92.9381 445.852 95.8135 445.852 99.3604C445.852 102.907 448.726 105.783 452.271 105.783Z" fill="#FFB9B9"/>
<path d="M450.032 116.337C450.032 116.337 446.383 110.251 446.626 108.791C446.776 107.954 446.772 107.097 446.614 106.261L444.436 107.573L435.435 111.712L439.084 123.883C439.084 123.883 438.111 126.561 438.111 128.508C438.111 130.455 438.597 132.646 438.111 133.377C437.624 134.107 437.381 135.324 437.868 136.298C438.158 136.903 438.243 137.587 438.111 138.245C438.111 138.245 434.705 140.192 436.651 140.679C437.933 140.962 439.262 140.962 440.544 140.679C440.544 140.679 440.787 139.949 442.733 140.923C444.68 141.896 454.898 142.14 454.898 142.14C454.898 142.14 461.467 142.383 461.223 141.41C460.98 140.436 462.44 128.995 462.44 128.995L465.846 112.929L458.061 108.06L455.546 105.839L454.898 109.277L450.032 116.337Z" fill="#D0CDE1"/>
<path d="M437.138 111.955H435.435C435.435 111.955 426.798 122.301 429.231 124.005C431.664 125.709 440.057 127.047 440.057 127.047C440.057 127.047 439.327 111.955 437.138 111.955Z" fill="#D0CDE1"/>
<path d="M463.656 112.929H465.846C465.846 112.929 471.685 126.561 469.738 127.047C467.792 127.534 460.737 128.995 460.737 128.265C460.737 127.534 463.656 112.929 463.656 112.929Z" fill="#D0CDE1"/>
<path d="M445.901 99.326C445.901 99.326 445.204 98.2808 445.472 97.1552C445.632 96.5161 445.696 95.8566 445.66 95.1988C445.959 94.2237 446.336 93.2738 446.785 92.3579C447.347 91.3395 447.079 90.9107 448.847 90.5891C450.615 90.2675 449.892 87.9627 454.552 90.4551C454.71 90.6748 454.928 90.8429 455.181 90.9383C455.434 91.0337 455.709 91.0521 455.972 90.9911C456.936 90.8035 457.285 92.1435 457.285 92.1435C457.285 92.1435 457.927 91.7683 458.168 92.3043C458.41 92.8403 460.128 91.9826 460.128 95.6007C460.128 99.2187 458.172 102.451 458.172 102.451C458.172 102.451 458.316 96.3646 455.128 95.7482C451.941 95.1318 448.512 93.3361 447.682 95.641C447.234 96.9346 446.636 98.1713 445.901 99.326V99.326Z" fill="#2F2E41"/>
<path d="M543.233 186.232C533.663 186.239 524.281 183.574 516.143 178.537L515.936 178.409L516.064 178.202L543.097 134.426H594.765V134.67C594.765 163.101 571.648 186.232 543.233 186.232ZM516.606 178.25C524.621 183.159 533.836 185.752 543.233 185.745C571.299 185.745 594.147 162.965 594.278 134.913H543.369L516.606 178.25Z" fill="#3F3D56"/>
<path d="M481.294 132.278C481.29 141.027 483.524 149.632 487.782 157.274C492.04 164.916 498.181 171.341 505.622 175.938L532.584 132.278L488.045 106.813C483.609 114.565 481.281 123.345 481.294 132.278V132.278Z" fill="#F2F2F2"/>
<path d="M509.83 174.533L509.623 174.405C498.259 167.374 490.066 156.204 486.772 143.248C483.478 130.292 485.339 116.562 491.964 104.952L492.084 104.741L537.052 130.452L509.83 174.533ZM492.266 105.406C485.8 116.864 484.001 130.376 487.244 143.128C490.486 155.88 498.52 166.889 509.673 173.862L536.374 130.625L492.266 105.406Z" fill="#3F3D56"/>
<path d="M558.093 74.3308L547.036 124.45H598.325C598.325 99.9059 581.104 79.3902 558.093 74.3308Z" fill="white"/>
<path d="M594.765 127.52H542.93L554.104 76.8677L554.342 76.9199C565.803 79.4545 576.056 85.8268 583.406 94.9833C590.757 104.14 594.764 115.532 594.765 127.276V127.52ZM543.536 127.033H594.278C594.164 103.413 577.474 82.6223 554.474 77.4481L543.536 127.033Z" fill="#3F3D56"/>
<path d="M536.061 69.4346C527.018 69.4311 518.135 71.8207 510.313 76.3612C502.491 80.9017 496.008 87.4315 491.523 95.2881L536.061 120.753L547.118 70.6341C543.486 69.8358 539.779 69.4337 536.061 69.4346Z" fill="#F2F2F2"/>
<path d="M538.401 125.26L493.364 99.5101L493.485 99.2986C498.945 89.7554 507.308 82.2059 517.355 77.7503C527.403 73.2947 538.61 72.1657 549.343 74.5279L549.581 74.5802L538.401 125.26ZM494.029 99.3294L538.068 124.509L549.001 74.9517C538.439 72.68 527.429 73.8156 517.553 78.1954C507.676 82.5753 499.44 89.9741 494.029 99.3294V99.3294Z" fill="#3F3D56"/>
<path d="M564.925 110.482L564.571 110.148L591.266 81.8033H612.995V82.2902H591.476L564.925 110.482Z" fill="#3F3D56"/>
<path d="M623.861 85.526H598.216V86.3958H623.861V85.526Z" fill="white"/>
<path d="M623.861 89.2226H598.216V90.0924H623.861V89.2226Z" fill="white"/>
<path d="M623.861 92.9193H598.216V93.7891H623.861V92.9193Z" fill="white"/>
<path d="M615.103 193.12H589.458V193.99H615.103V193.12Z" fill="white"/>
<path d="M615.103 196.817H589.458V197.687H615.103V196.817Z" fill="white"/>
<path d="M615.103 200.513H589.458V201.383H615.103V200.513Z" fill="white"/>
<path d="M604.155 188.756H578.482L578.409 188.651L558.46 159.683L558.86 159.407L578.737 188.269H604.155V188.756Z" fill="#3F3D56"/>
<path d="M392.047 206.398C391.237 213.504 395.603 219.838 395.603 219.838C395.603 219.838 401.283 214.651 402.093 207.545C402.904 200.439 398.538 194.106 398.538 194.106C398.538 194.106 392.858 199.292 392.047 206.398Z" fill="white"/>
<path d="M395.144 206.031C398.065 212.559 395.819 219.917 395.819 219.917C395.819 219.917 388.837 216.693 385.915 210.166C382.994 203.639 385.24 196.28 385.24 196.28C385.24 196.28 392.222 199.504 395.144 206.031Z" fill="white"/>
<path opacity="0.1" d="M143.47 52.7496C128.853 52.3724 114.932 48.867 101.639 45.0318C88.3458 41.1966 75.1791 36.9391 60.9125 34.9063C51.7365 33.5986 41.2415 33.4134 33.8496 37.0701C26.7332 40.5845 24.4341 46.6512 23.1988 52.2978C22.2683 56.5373 21.7218 60.9981 24.2693 64.9665C26.0399 67.7221 29.1791 70.0372 31.3518 72.6775C38.9108 81.8611 33.5673 93.1837 25.3782 102.15C21.5388 106.356 17.0784 110.367 14.1131 114.846C11.1477 119.325 9.77685 124.452 12.3718 129.021C14.9419 133.539 21.0691 136.947 27.7066 139.339C41.1873 144.197 57.0664 145.586 72.5616 146.375C106.852 148.118 141.322 147.362 175.702 146.6C188.426 146.32 201.205 146.038 213.721 144.568C220.673 143.757 227.848 142.467 232.895 139.357C239.3 135.409 240.888 128.723 236.595 123.772C229.395 115.467 209.493 113.403 204.455 104.49C201.686 99.5847 204.529 94.121 208.556 89.5699C217.192 79.8103 231.667 71.2478 232.428 60.0901C232.952 52.4288 225.993 44.754 215.234 41.1289C203.958 37.3298 188.318 37.8064 180.002 44.0967C171.432 50.5813 156.377 53.0748 143.47 52.7496Z" fill="white"/>
<g opacity="0.8">
<path opacity="0.8" d="M223.017 69.3686C223.017 69.3686 220.469 68.3342 212.366 72.0519C204.263 75.7696 203.251 75.2975 201.153 74.7284C199.055 74.1592 197.885 74.0259 195.635 70.9226C195.635 70.9226 194.055 62.3239 192.514 60.9846C190.974 59.6452 184.456 61.7457 184.456 61.7457C184.456 61.7457 176.637 63.5436 175.138 53.0884C175.138 53.0884 176.195 45.2102 174.754 42.7912C174.754 42.7912 177.663 44.0448 182.46 42.021C187.257 39.9973 191.096 44.2029 191.096 44.2029C191.096 44.2029 192.306 47.3356 192.18 49.2012C192.054 51.0669 192.819 51.7716 195.116 50.8681C195.116 50.8681 196.245 49.269 194.648 46.6264C193.052 43.9838 191.92 42.0143 192.365 39.9612C192.81 37.9081 194.086 35.0644 198.19 33.637C202.293 32.2095 207.869 31.943 210.546 30.8408C213.222 29.7386 213.868 29 213.868 29C213.868 29 212.221 30.6511 216.101 37.6438C219.981 44.6365 217.508 47.6744 217.508 47.6744C217.508 47.6744 215.444 52.5937 206.334 52.1917C206.334 52.1917 197.555 52.5124 202.341 56.2346C202.341 56.2346 205.405 55.6113 209.99 54.1544C214.575 52.6976 217.879 58.7101 218.701 62.8931C219.523 67.0761 223.017 69.3686 223.017 69.3686Z" fill="white"/>
<path opacity="0.8" d="M211.219 34.2943L211.266 34.2807C211.618 35.6156 207.696 40.9776 204.342 45.2419L204.303 45.2125C209.033 39.1978 211.499 35.3197 211.219 34.2943Z" fill="#444053"/>
<path opacity="0.8" d="M204.371 45.1244L204.391 45.1786C201.713 48.5847 198.343 52.6502 195.647 55.661C195.389 55.9478 195.134 56.2482 194.89 56.5644L194.811 56.5034C195.06 56.194 195.315 55.8913 195.572 55.6C198.269 52.5847 201.695 48.5282 204.371 45.1244Z" fill="#444053"/>
<path opacity="0.8" d="M194.877 56.4131L194.931 56.5034C190.023 62.6311 189.698 72.1445 189.687 72.2281L188.652 71.0445C188.664 70.9497 189.935 62.5814 194.877 56.4131Z" fill="#444053"/>
<path opacity="0.8" d="M217.328 66.0462C217.328 66.0462 211.542 63.0377 207.032 64.1173C202.521 65.1969 192.37 60.3002 192.37 60.3002C192.37 60.3002 188.058 58.5498 187.191 56.5531C187.191 56.5531 184.235 53.4249 184.065 51.81C183.896 50.1951 181.01 46.1205 179.14 45.9737" stroke="#444053" stroke-miterlimit="10"/>
<path opacity="0.8" d="M216.49 68.9417C216.49 68.9417 213.577 66.979 213.915 64.6887" stroke="#444053" stroke-miterlimit="10"/>
<path opacity="0.8" d="M212.02 71.4782C212.02 71.4782 207.851 69.9649 207.434 64.0247" stroke="#444053" stroke-miterlimit="10"/>
<path opacity="0.8" d="M205.295 73.0141C205.295 73.0141 201.311 69.7097 202.634 63.9344" stroke="#444053" stroke-miterlimit="10"/>
<path opacity="0.8" d="M197.212 71.3991C197.212 71.3991 194.56 65.8361 196.921 62.2178" stroke="#444053" stroke-miterlimit="10"/>
<path opacity="0.8" d="M217.396 62.3781C217.396 62.3781 214.381 63.3358 215.029 64.9214" stroke="#444053" stroke-miterlimit="10"/>
<path opacity="0.8" d="M213.757 56.9077C213.757 56.9077 209.724 58.1861 209.629 63.8937" stroke="#444053" stroke-miterlimit="10"/>
<path opacity="0.8" d="M208.134 55.591C208.134 55.591 204.464 60.1218 204.723 64.2393" stroke="#444053" stroke-miterlimit="10"/>
<path opacity="0.8" d="M201.706 57.3685C201.706 57.3685 198.059 60.8536 198.524 62.7892" stroke="#444053" stroke-miterlimit="10"/>
<path opacity="0.8" d="M199.506 56.1375C199.506 56.1375 196.087 56.7496 195.611 55.6271" stroke="#444053" stroke-miterlimit="10"/>
<path opacity="0.8" d="M195.064 52.0088C195.064 52.0088 196.792 54.2968 197.237 53.784" stroke="#444053" stroke-miterlimit="10"/>
<path opacity="0.8" d="M212.188 50.561C212.188 50.561 203.569 51.1866 201.62 48.5892" stroke="#444053" stroke-miterlimit="10"/>
<path opacity="0.8" d="M193.251 40.4807C193.251 40.4807 197.295 49.1606 200.231 50.2673" stroke="#444053" stroke-miterlimit="10"/>
<path opacity="0.8" d="M197.496 36.3451C197.496 36.3451 199.981 44.3294 203.057 46.8229" stroke="#444053" stroke-miterlimit="10"/>
<path opacity="0.8" d="M215.815 43.9725C215.815 43.9725 209.265 46.7845 205.326 43.9386" stroke="#444053" stroke-width="0.75" stroke-miterlimit="10"/>
<path opacity="0.8" d="M203.332 34.6421C203.332 34.6421 204.83 40.5145 206.846 41.9307" stroke="#444053" stroke-width="0.75" stroke-miterlimit="10"/>
<path opacity="0.8" d="M214.825 37.3909C214.825 37.3909 211.142 38.7844 209.767 37.7161" stroke="#444053" stroke-width="0.75" stroke-miterlimit="10"/>
<path opacity="0.8" d="M191.909 53.9263C191.909 53.9263 191.909 59.0421 190.516 59.4058" stroke="#444053" stroke-miterlimit="10"/>
<path opacity="0.8" d="M180.522 60.5554C180.522 60.5554 186.055 61.0297 188.605 58.1748" stroke="#444053" stroke-miterlimit="10"/>
<path opacity="0.8" d="M190.482 47.8822C190.482 47.8822 189.145 53.0771 185.452 54.4684" stroke="#444053" stroke-miterlimit="10"/>
<path opacity="0.8" d="M177.204 55.0896C177.204 55.0896 181.12 56.4447 184.488 52.9845" stroke="#444053" stroke-miterlimit="10"/>
<path opacity="0.8" d="M186.13 43.4214C186.13 43.4214 185.759 47.828 183.363 49.8901" stroke="#444053" stroke-miterlimit="10"/>
<path opacity="0.8" d="M177.353 48.3746C177.353 48.3746 180.603 48.3949 181.364 47.3379" stroke="#444053" stroke-miterlimit="10"/>
</g>
<path opacity="0.1" d="M70.3686 198.475C97.5598 198.475 119.603 196.907 119.603 194.974C119.603 193.04 97.5598 191.473 70.3686 191.473C43.1774 191.473 21.1346 193.04 21.1346 194.974C21.1346 196.907 43.1774 198.475 70.3686 198.475Z" fill="white"/>
<path d="M98.8905 175.913C99.568 174.696 100.379 173.548 101.034 172.315C101.632 171.186 102.1 169.989 102.64 168.828C103.563 166.84 104.701 164.961 105.738 163.028C106.416 161.76 107.071 160.38 106.94 158.948C106.815 157.593 106.02 156.419 105.713 155.109C104.462 149.731 101.452 144.794 99.6155 139.592C99.1457 138.273 98.6895 136.945 98.1023 135.671C96.9731 133.22 95.3922 131.018 93.8113 128.834C93.2416 128 92.6073 127.211 91.9142 126.476C91.3473 125.909 90.7104 125.41 90.1955 124.796C89.134 123.531 88.6372 121.71 87.3092 120.73C87.2866 120.789 87.2618 120.845 87.2369 120.904C86.2861 118.476 83.0972 116.875 81.2475 114.862C80.1708 113.633 79.18 112.331 78.2822 110.966L74.2554 105.145C73.5621 104.143 72.8552 103.113 72.5751 101.918C72.2318 100.477 72.5503 98.9409 72.2115 97.4999C71.9949 96.6325 71.5727 95.8299 70.9807 95.16C71.0191 95.1487 71.0597 95.1329 71.1004 95.1238C71.8682 94.9183 72.6813 94.8822 73.4424 94.6992C75.1023 94.304 76.5455 93.2424 78.1986 92.8178C79.0433 92.5919 79.9444 92.5467 80.71 92.1402C81.0824 91.9174 81.376 91.584 81.5501 91.1864C81.7242 90.7889 81.77 90.347 81.6812 89.9222C81.1459 87.0876 82.641 84.2146 82.3881 81.3394C82.3203 80.5443 82.117 79.7696 81.9861 78.9814C81.6812 77.1519 81.7376 75.2772 81.846 73.4206C82.3614 72.5839 82.9798 71.8153 83.6867 71.1326C84.703 70.1524 85.9157 69.3257 86.6226 68.0993C87.2392 67.0129 87.3882 65.7006 87.2324 64.4583C87.1217 63.5549 86.8146 62.604 86.1032 62.0551C85.3918 61.5063 84.371 61.4656 83.5105 61.7525C83.3908 61.7909 83.2734 61.8383 83.1582 61.888C82.7985 61.708 82.406 61.6031 82.0045 61.5798C81.603 61.5565 81.201 61.6153 80.823 61.7525C79.9647 62.0371 79.2285 62.604 78.5374 63.1935C78.1278 63.5147 77.7685 63.8954 77.4714 64.3228C77.0355 65.0004 76.9091 65.8361 76.7442 66.6334C76.3936 68.1725 75.8827 69.6707 75.2198 71.1032C75.0978 71.3562 74.7681 71.8102 74.5016 72.2439L74.0183 72.1445C73.8082 74.1569 72.1234 75.6341 71.0981 77.3732C70.599 78.2179 70.2489 79.1417 69.7995 80.0158C69.2867 80.9673 68.7141 81.8854 68.0853 82.7646C67.4756 83.668 66.865 84.5632 66.2537 85.4501C65.4876 86.6149 64.6583 87.7369 63.7694 88.811C62.9406 88.7432 62.1118 88.6822 61.2852 88.6687C59.8978 88.6488 58.512 88.7722 57.15 89.0368C57.0706 88.5578 57.0215 88.0742 57.0032 87.589C57.0032 87.5597 57.0032 87.5303 57.0032 87.5009C57.0032 87.3835 57.0167 87.2435 57.0325 87.0921C58.2063 86.306 59.1616 85.2351 59.8093 83.9794C60.4569 82.7238 60.7756 81.3245 60.7357 79.9122C60.6958 78.5 60.2985 77.1209 59.5809 75.9039C58.8634 74.6869 57.8491 73.6716 56.6328 72.9531C56.6776 72.6992 56.7063 72.4427 56.7186 72.1851C56.7186 72.0338 56.7186 71.8802 56.7186 71.7334C56.7186 71.6566 56.7186 71.5798 56.7028 71.5075C56.6888 71.3552 56.6631 71.2042 56.626 71.0558C56.6079 70.9835 56.5876 70.9113 56.5628 70.8299C56.5147 70.6882 56.4519 70.552 56.3753 70.4234C56.3706 70.4155 56.3653 70.4079 56.3595 70.4008C56.3301 70.3534 56.3008 70.3059 56.2669 70.2608C56.233 70.2156 56.2375 70.2246 56.224 70.2066C56.2002 70.1735 56.1746 70.1418 56.1472 70.1117L56.0907 70.053C56.0659 70.0259 56.0411 69.9988 56.014 69.9739L55.9507 69.9175L55.8717 69.8474L55.7994 69.7932L55.7181 69.7322L55.6391 69.6803L55.5577 69.6284C55.5306 69.6103 55.5013 69.5945 55.4719 69.5787L55.3884 69.5312L55.298 69.4861L55.2145 69.4454L55.1151 69.4025L55.0338 69.3664L54.9254 69.3257L54.8486 69.2963L54.7312 69.2557L54.6611 69.2331L54.5324 69.1924L54.4714 69.1744L54.3314 69.136L54.2772 69.1202L54.1304 69.084L54.0875 69.0727L53.9249 69.0366H53.8978L53.6584 68.9846C52.6692 68.7814 51.674 68.6059 50.6727 68.4584C49.8529 68.3364 49.0128 68.2325 48.2043 68.4155C47.0886 68.6639 46.1581 69.4183 45.1147 69.8858C43.8816 70.4415 42.513 70.5883 41.1986 70.8932C39.8842 71.1981 38.5313 71.7199 37.707 72.7972C37.0792 73.6194 36.8285 74.6651 36.641 75.6838C35.0782 84.1853 36.763 92.9059 37.0814 101.547C37.2056 104.911 37.0543 108.506 35.1482 111.26L40.6994 111.113C40.9659 111.113 41.2347 111.097 41.5057 111.081C41.7767 111.065 42.0477 111.045 42.3142 111.013C43.0183 110.947 43.7022 110.742 44.3265 110.41C44.6156 110.246 44.8795 110.04 45.1102 109.8C45.8645 109.024 46.2665 107.937 46.6346 106.898C46.7589 106.548 46.8831 106.193 46.9937 105.837C47.0389 105.687 47.0818 105.538 47.1202 105.385L47.1383 105.313L47.2015 105.342C47.4274 105.767 47.6826 106.182 47.9536 106.584C48.9224 108.012 50.151 109.231 51.3706 110.444C53.7939 112.85 56.2714 115.298 59.309 116.843C60.3344 117.36 61.4433 117.796 62.2247 118.65C62.6086 119.063 62.9406 119.594 63.4849 119.736C63.8236 119.824 64.1963 119.736 64.5193 119.881C64.9935 120.08 65.1674 120.651 65.3865 121.121C65.6056 121.591 66.1002 122.069 66.5699 121.855C66.4819 122.291 66.5182 122.743 66.6747 123.16C66.8313 123.576 67.1017 123.94 67.4552 124.211C67.6827 124.337 67.8788 124.513 68.0289 124.726C68.1012 124.919 68.1409 125.124 68.1463 125.331C68.2428 125.908 68.5473 126.429 69.0023 126.797C68.5619 127.526 68.9142 128.572 68.9255 129.482C68.9255 130.246 68.6748 130.982 68.5031 131.725C68.004 133.905 68.2773 136.186 68.6838 138.384C68.9097 139.596 69.1965 140.852 69.9869 141.794C70.2444 142.099 70.5515 142.363 70.8226 142.659C71.3399 143.242 71.7697 143.897 72.0986 144.604C72.784 146.003 73.2509 147.499 73.483 149.04C73.5921 149.813 73.8127 150.566 74.138 151.276C74.6326 152.355 74.1809 153.684 74.6235 154.786C74.8245 155.28 75.1949 155.703 75.3146 156.22C75.484 156.972 75.0888 157.724 74.9826 158.49C74.7252 160.283 76.0192 161.948 76.1367 163.755C76.1559 163.861 76.1332 163.97 76.0734 164.06C75.9854 164.159 75.834 164.157 75.7144 164.213C75.4885 164.322 75.4275 164.627 75.3553 164.88C75.283 165.133 75.0797 165.419 74.829 165.343C71.1184 167.328 67.2768 169.162 63.5662 171.147L61.8724 172.051L52.8137 176.891C52.7038 176.946 52.6113 177.03 52.547 177.135C52.4827 177.239 52.4492 177.36 52.4501 177.483C52.4501 177.591 52.4637 177.709 52.4727 177.81C51.8381 177.968 51.2283 178.158 50.7947 178.237C50.6163 178.271 50.4379 178.305 50.2617 178.343C50.3045 178.275 50.3323 178.198 50.343 178.117C50.3437 178.006 50.3033 177.898 50.2296 177.815C50.1558 177.732 50.0538 177.679 49.9433 177.666C49.722 177.644 49.4987 177.673 49.2906 177.752C48.7728 177.893 48.2439 177.991 47.7097 178.043C47.075 178.104 46.4291 178.102 45.8148 178.269C45.2005 178.436 44.5953 178.809 44.3468 179.398C44.2225 179.739 44.1673 180.102 44.1842 180.464C44.1705 181.86 44.3359 183.252 44.6766 184.607C44.682 184.66 44.6996 184.712 44.7282 184.758C44.7568 184.804 44.7955 184.842 44.8414 184.871C44.9205 184.902 45.0153 184.871 45.0944 184.907C45.164 184.949 45.2161 185.015 45.2412 185.092C45.6206 185.955 45.7087 186.917 45.8103 187.857C45.9609 189.25 46.1513 190.639 46.3817 192.024C46.5172 192.832 46.6843 193.677 47.2105 194.301C47.7887 194.978 48.7034 195.279 49.5864 195.398C51.4496 195.649 53.3309 195.272 55.1693 194.886C55.5126 194.813 55.8807 194.725 56.1111 194.459C56.2795 194.246 56.3603 193.977 56.3369 193.707C56.294 192.778 55.4493 192.126 54.6815 191.604L53.6336 190.879C53.5442 190.831 53.4733 190.755 53.4324 190.663C53.3914 190.57 53.3827 190.466 53.4077 190.368L53.4755 188.997H53.2722C53.498 188.031 53.8617 187.102 54.5731 186.438C55.0631 185.987 55.7023 185.67 56.215 185.259C56.8727 185.765 57.6695 186.057 58.4982 186.097C59.8533 184.272 61.7617 183.03 63.6701 181.806C65.2201 180.827 66.8222 179.932 68.4693 179.127C69.8033 178.468 71.1583 177.849 72.5345 177.273C74.4767 176.455 76.4551 175.726 78.4358 175.014C79.757 174.54 81.0894 174.072 82.3067 173.372C85.4686 171.545 87.7022 167.897 87.2753 164.245C86.7378 159.637 87.8874 154.835 87.8106 150.196C87.788 148.841 87.7383 147.486 87.3273 146.187C87.4229 146.255 87.5128 146.33 87.596 146.413C88.4181 147.181 88.6168 148.401 89.4028 149.277C90.0148 149.966 90.9453 150.406 91.3157 151.246C91.598 151.89 91.5573 152.76 92.1468 153.13C92.3139 153.236 92.5127 153.281 92.6798 153.385C92.8797 153.528 93.0481 153.71 93.1744 153.921C93.8 154.813 94.4481 155.768 94.5159 156.857C94.5453 157.288 94.5046 157.787 94.8208 158.079C94.9111 158.162 95.0263 158.223 95.0737 158.336C95.1731 158.562 94.9111 158.802 94.866 159.052C94.8005 159.4 95.1437 159.664 95.356 159.956C95.5332 160.199 95.6286 160.492 95.6286 160.793C95.6286 161.093 95.5332 161.386 95.356 161.629C93.5041 164.035 93.1699 167.276 91.5506 169.849C90.9905 170.736 90.3671 171.576 89.8251 172.475C88.1584 175.235 87.316 178.407 86.4984 181.53C86.8477 182.138 87.3209 182.666 87.8874 183.08C87.5814 184.132 87.0539 185.106 86.3403 185.937C86.1582 186.14 85.9878 186.353 85.8299 186.576C85.6975 186.408 85.524 186.278 85.3263 186.197C85.0293 187.493 84.8778 188.819 84.8746 190.149C84.8746 191.026 84.9943 192.026 85.7057 192.532C85.9896 192.711 86.302 192.84 86.6294 192.914L88.1787 193.366C88.4513 193.47 88.747 193.499 89.0347 193.449C89.2176 193.397 89.3802 193.284 89.5676 193.248C89.7713 193.227 89.9771 193.254 90.1684 193.327L91.5077 193.718C91.9605 193.838 92.403 193.995 92.8311 194.185C93.2128 194.368 93.5651 194.606 93.94 194.809C94.5634 195.124 95.2106 195.39 95.8755 195.604L98.1836 196.399C98.8267 196.654 99.4987 196.828 100.185 196.918C100.659 196.959 101.14 196.918 101.607 197C101.964 197.061 102.31 197.189 102.669 197.226C103.265 197.243 103.851 197.069 104.34 196.729C104.531 196.621 104.696 196.472 104.823 196.293C105.162 195.764 104.871 195.066 104.541 194.533C103.929 193.544 103.163 192.618 102.154 192.049C101.745 191.823 101.303 191.656 100.88 191.448C99.6787 190.861 98.7731 189.88 97.6371 189.21C97.4922 189.106 97.3161 189.057 97.1387 189.069C96.9612 189.081 96.7934 189.154 96.6637 189.275C95.7196 188.663 94.6988 188.065 94.1794 187.068C93.948 186.588 93.7955 186.073 93.7277 185.544C94.2584 185.67 94.7937 185.77 95.3335 185.858C96.212 182.452 97.1718 178.985 98.8905 175.913ZM77.1936 79.5844C77.1485 79.8397 77.0988 80.0926 77.0446 80.3456C76.5929 82.4664 75.947 84.8425 74.47 86.4213C73.9841 86.8841 73.4197 87.2566 72.8032 87.5213L72.6384 87.6026C73.7021 84.7612 75.3959 82.1276 77.1936 79.5844Z" fill="url(#paint0_linear)"/>
<path d="M79.3798 67.0038C79.5469 66.2156 79.6734 65.3889 80.1093 64.709C80.4073 64.2816 80.7673 63.901 81.1775 63.5797C81.8686 62.9947 82.6071 62.4323 83.4676 62.1478C84.3281 61.8632 85.3398 61.9016 86.0625 62.4482C86.7852 62.9947 87.0901 63.9366 87.2031 64.8355C87.3566 66.071 87.203 67.372 86.591 68.4493C85.8909 69.6713 84.6759 70.4821 83.655 71.4624C82.9155 72.17 82.2723 72.9719 81.7421 73.8475C81.5009 74.3038 81.2084 74.7312 80.8704 75.1214C80.699 75.3155 80.4844 75.4666 80.244 75.5627C80.0035 75.6588 79.7439 75.6972 79.486 75.6747C79.0501 75.6047 78.6955 75.3021 78.3567 75.0129C77.9389 74.6471 76.8142 73.9943 76.7758 73.4138C76.7487 72.944 77.6273 71.878 77.8418 71.4375C78.5093 70.018 79.0248 68.5318 79.3798 67.0038V67.0038Z" fill="#FBBEBE"/>
<path opacity="0.1" d="M79.3798 67.0038C79.5469 66.2156 79.6734 65.3889 80.1093 64.709C80.4073 64.2816 80.7673 63.901 81.1775 63.5797C81.8686 62.9947 82.6071 62.4323 83.4676 62.1478C84.3281 61.8632 85.3398 61.9016 86.0625 62.4482C86.7852 62.9947 87.0901 63.9366 87.2031 64.8355C87.3566 66.071 87.203 67.372 86.591 68.4493C85.8909 69.6713 84.6759 70.4821 83.655 71.4624C82.9155 72.17 82.2723 72.9719 81.7421 73.8475C81.5009 74.3038 81.2084 74.7312 80.8704 75.1214C80.699 75.3155 80.4844 75.4666 80.244 75.5627C80.0035 75.6588 79.7439 75.6972 79.486 75.6747C79.0501 75.6047 78.6955 75.3021 78.3567 75.0129C77.9389 74.6471 76.8142 73.9943 76.7758 73.4138C76.7487 72.944 77.6273 71.878 77.8418 71.4375C78.5093 70.018 79.0248 68.5318 79.3798 67.0038V67.0038Z" fill="black"/>
<path d="M55.6662 89.5789C57.4756 89.0977 59.3431 88.8697 61.2152 88.9013C64.3386 88.9465 67.5546 89.7031 70.529 88.7455C71.2968 88.4791 72.0435 88.1552 72.7626 87.7765C73.3611 87.4784 73.9708 87.1712 74.4293 86.6833C75.9086 85.1158 76.5455 82.7556 77.0084 80.6483C77.4714 78.5409 77.5911 76.3772 77.7108 74.2247C78.4809 74.5838 79.2917 74.9384 80.1454 74.8661C80.9991 74.7939 81.8506 74.1434 81.846 73.2851C81.7196 75.2795 81.6202 77.2987 81.9567 79.2682C82.0877 80.0497 82.2909 80.8199 82.361 81.6104C82.6139 84.4654 81.1166 87.318 81.6518 90.1345C81.7402 90.557 81.694 90.9966 81.5199 91.3916C81.3457 91.7865 81.0522 92.117 80.6807 92.3367C79.9128 92.75 79.0094 92.802 78.1648 93.0143C76.5093 93.4367 75.0639 94.4892 73.4017 94.8822C72.6271 95.0651 71.8208 95.1081 71.0575 95.3046C69.9598 95.5937 68.9639 96.2216 67.8459 96.4203C67.0081 96.5694 66.1453 96.4678 65.2984 96.54C64.5622 96.601 63.8395 96.7953 63.101 96.8133C61.2942 96.8585 59.5846 95.8353 58.3831 94.4779C57.1816 93.1205 56.4205 91.2232 55.6662 89.5789Z" fill="white"/>
<path opacity="0.1" d="M55.6662 89.5789C57.4756 89.0977 59.3431 88.8697 61.2152 88.9013C64.3386 88.9465 67.5546 89.7031 70.529 88.7455C71.2968 88.4791 72.0435 88.1552 72.7626 87.7765C73.3611 87.4784 73.9708 87.1712 74.4293 86.6833C75.9086 85.1158 76.5455 82.7556 77.0084 80.6483C77.4714 78.5409 77.5911 76.3772 77.7108 74.2247C78.4809 74.5838 79.2917 74.9384 80.1454 74.8661C80.9991 74.7939 81.8506 74.1434 81.846 73.2851C81.7196 75.2795 81.6202 77.2987 81.9567 79.2682C82.0877 80.0497 82.2909 80.8199 82.361 81.6104C82.6139 84.4654 81.1166 87.318 81.6518 90.1345C81.7402 90.557 81.694 90.9966 81.5199 91.3916C81.3457 91.7865 81.0522 92.117 80.6807 92.3367C79.9128 92.75 79.0094 92.802 78.1648 93.0143C76.5093 93.4367 75.0639 94.4892 73.4017 94.8822C72.6271 95.0651 71.8208 95.1081 71.0575 95.3046C69.9598 95.5937 68.9639 96.2216 67.8459 96.4203C67.0081 96.5694 66.1453 96.4678 65.2984 96.54C64.5622 96.601 63.8395 96.7953 63.101 96.8133C61.2942 96.8585 59.5846 95.8353 58.3831 94.4779C57.1816 93.1205 56.4205 91.2232 55.6662 89.5789Z" fill="black"/>
<path d="M136.887 92.3548C139.962 92.3548 142.968 93.2667 145.524 94.9753C148.081 96.6839 150.074 99.1124 151.25 101.954C152.427 104.795 152.735 107.921 152.135 110.937C151.535 113.954 150.054 116.724 147.879 118.898C145.705 121.073 142.934 122.554 139.918 123.153C136.902 123.753 133.776 123.445 130.935 122.267C128.095 121.09 125.667 119.097 123.959 116.54C122.25 113.983 121.339 110.976 121.339 107.901C121.34 103.778 122.978 99.8234 125.894 96.908C128.809 93.9926 132.764 92.3548 136.887 92.3548ZM136.887 88.5151C133.052 88.5151 129.304 89.6522 126.116 91.7827C122.928 93.9132 120.443 96.9414 118.976 100.484C117.508 104.027 117.125 107.926 117.873 111.687C118.621 115.448 120.468 118.902 123.179 121.614C125.891 124.325 129.345 126.171 133.106 126.919C136.867 127.667 140.765 127.283 144.307 125.815C147.849 124.347 150.877 121.862 153.007 118.673C155.137 115.484 156.273 111.736 156.273 107.901C156.267 102.761 154.223 97.8332 150.588 94.1989C146.954 90.5646 142.026 88.5205 136.887 88.5151Z" fill="white"/>
<path d="M173.004 64.368C176.079 64.368 179.085 65.2799 181.641 66.9885C184.198 68.6971 186.191 71.1256 187.368 73.9668C188.544 76.8081 188.852 79.9345 188.252 82.9506C187.652 85.9668 186.171 88.7373 183.996 90.9117C181.822 93.0861 179.051 94.5667 176.035 95.1664C173.019 95.7661 169.893 95.4579 167.052 94.2807C164.212 93.1035 161.784 91.1103 160.076 88.5531C158.367 85.9958 157.456 82.9895 157.456 79.9142C157.457 75.7909 159.095 71.8366 162.011 68.9212C164.927 66.0058 168.881 64.368 173.004 64.368V64.368ZM173.004 60.5283C169.169 60.5283 165.421 61.6655 162.233 63.796C159.045 65.9265 156.56 68.9546 155.093 72.4975C153.625 76.0403 153.242 79.9387 153.99 83.6997C154.738 87.4607 156.585 90.9153 159.296 93.6267C162.008 96.3381 165.462 98.1845 169.223 98.9323C172.984 99.6802 176.882 99.2959 180.424 97.8281C183.966 96.3603 186.994 93.8749 189.124 90.6863C191.254 87.4976 192.391 83.7489 192.39 79.9142C192.384 74.7742 190.34 69.8464 186.705 66.2121C183.071 62.5778 178.143 60.5337 173.004 60.5283V60.5283Z" fill="white"/>
<path d="M100.76 63.1709C100.943 63.1709 101.126 63.1709 101.309 63.1709C105.384 63.3099 109.242 65.0443 112.05 68.0003C114.859 70.9564 116.394 74.8976 116.324 78.9747C116.255 83.0517 114.587 86.9384 111.68 89.7973C108.772 92.6562 104.858 94.2584 100.781 94.2588C100.598 94.2588 100.415 94.2588 100.23 94.2588C96.1546 94.1198 92.2971 92.3853 89.4886 89.429C86.68 86.4727 85.1452 82.5312 85.2148 78.454C85.2844 74.3767 86.9529 70.4899 89.8607 67.6312C92.7685 64.7725 96.683 63.1707 100.76 63.1709V63.1709ZM100.76 59.3312C95.676 59.3306 90.7947 61.3277 87.1685 64.8922C83.5424 68.4566 81.4615 73.3031 81.3745 78.3873C81.2874 83.4715 83.201 88.3865 86.703 92.073C90.205 95.7596 95.0149 97.9227 100.096 98.0962C100.322 98.0962 100.548 98.1075 100.774 98.1075C105.858 98.1076 110.739 96.1101 114.365 92.5454C117.991 88.9808 120.071 84.1343 120.158 79.0503C120.245 73.9663 118.331 69.0517 114.829 65.3653C111.327 61.679 106.517 59.5161 101.436 59.3425C101.21 59.3425 100.984 59.3312 100.758 59.3312H100.76Z" fill="white"/>
<path d="M138.56 83.9797H134.016V88.7635H138.56V83.9797Z" fill="white"/>
<path d="M84.7198 90.033L82.4478 86.0794L78.2863 88.4713L80.5583 92.4249L84.7198 90.033Z" fill="white"/>
<path d="M150.56 88.2607L146.665 85.9202L144.201 90.0207L148.096 92.3612L150.56 88.2607Z" fill="white"/>
<path d="M158.548 97.7284L156.345 93.7538L152.161 96.073L154.364 100.048L158.548 97.7284Z" fill="white"/>
<path d="M156.285 121.918L158.693 118.064L154.636 115.529L152.228 119.383L156.285 121.918Z" fill="white"/>
<path d="M119.411 100.046L121.614 96.0716L117.43 93.7523L115.227 97.7269L119.411 100.046Z" fill="white"/>
<path d="M121.547 119.381L119.139 115.527L115.082 118.062L117.49 121.916L121.547 119.381Z" fill="white"/>
<path d="M125.676 92.3609L129.571 90.0204L127.107 85.9199L123.212 88.2604L125.676 92.3609Z" fill="white"/>
<path d="M138.56 127.038H134.016V131.822H138.56V127.038Z" fill="white"/>
<path d="M148.097 123.442L144.202 125.782L146.666 129.883L150.561 127.542L148.097 123.442Z" fill="white"/>
<path d="M123.213 127.543L127.108 129.883L129.571 125.783L125.676 123.442L123.213 127.543Z" fill="white"/>
<path d="M117.992 105.988H112.491V110.053H117.992V105.988Z" fill="white"/>
<path d="M155.781 110.053H161.282V105.988H155.781V110.053Z" fill="white"/>
<path d="M174.677 55.9952H170.133V60.779H174.677V55.9952Z" fill="white"/>
<path d="M186.678 60.2725L182.783 57.9319L180.32 62.0324L184.215 64.373L186.678 60.2725Z" fill="white"/>
<path d="M194.666 69.7409L192.463 65.7663L188.279 68.0855L190.482 72.0601L194.666 69.7409Z" fill="white"/>
<path d="M192.401 93.9315L194.809 90.0777L190.753 87.5426L188.345 91.3965L192.401 93.9315Z" fill="white"/>
<path d="M155.526 72.0621L157.729 68.0875L153.545 65.7682L151.342 69.7428L155.526 72.0621Z" fill="white"/>
<path d="M157.663 91.3959L155.255 87.5421L151.198 90.0771L153.606 93.931L157.663 91.3959Z" fill="white"/>
<path d="M161.793 64.3734L165.688 62.0328L163.224 57.9323L159.329 60.2728L161.793 64.3734Z" fill="white"/>
<path d="M174.677 99.0516H170.133V103.835H174.677V99.0516Z" fill="white"/>
<path d="M184.214 95.4558L180.319 97.7964L182.783 101.897L186.678 99.5564L184.214 95.4558Z" fill="white"/>
<path d="M159.328 99.5551L163.223 101.896L165.687 97.7952L161.792 95.4546L159.328 99.5551Z" fill="white"/>
<path d="M154.107 78.0011H148.606V82.0667H154.107V78.0011Z" fill="white"/>
<path d="M191.9 82.0667H197.402V78.0011H191.9V82.0667Z" fill="white"/>
<path d="M103.27 54.8744L98.7288 54.7166L98.5627 59.4975L103.104 59.6553L103.27 54.8744Z" fill="white"/>
<path d="M115.112 59.5661L111.301 57.0918L108.696 61.1042L112.508 63.5786L115.112 59.5661Z" fill="white"/>
<path d="M122.768 69.3052L120.704 65.2565L116.443 67.429L118.506 71.4778L122.768 69.3052Z" fill="white"/>
<path d="M119.67 93.3952L122.21 89.6273L118.244 86.9529L115.704 90.7208L119.67 93.3952Z" fill="white"/>
<path d="M83.5733 70.2607L85.9129 66.365L81.8123 63.9019L79.4727 67.7976L83.5733 70.2607Z" fill="white"/>
<path d="M90.1071 62.7943L94.081 60.5904L91.7612 56.4068L87.7873 58.6107L90.1071 62.7943Z" fill="white"/>
<path d="M101.777 97.9027L97.2356 97.7449L97.0695 102.526L101.611 102.684L101.777 97.9027Z" fill="white"/>
<path d="M111.435 94.6431L107.461 96.847L109.781 101.031L113.755 98.8267L111.435 94.6431Z" fill="white"/>
<path d="M86.4265 97.8721L90.2379 100.346L92.8424 96.334L89.031 93.8596L86.4265 97.8721Z" fill="white"/>
<path d="M81.9521 76.1524L76.4539 75.9614L76.3127 80.0245L81.8109 80.2155L81.9521 76.1524Z" fill="white"/>
<path d="M119.582 81.5216L125.08 81.7127L125.221 77.6496L119.723 77.4585L119.582 81.5216Z" fill="white"/>
<path d="M50.6976 177.858C50.1381 177.926 49.5956 178.095 49.0964 178.357C48.4188 178.77 48.001 179.5 47.7029 180.236C46.9553 182.084 46.7995 184.112 46.7679 186.109C46.7408 187.717 46.795 189.363 47.3709 190.863C47.5289 191.338 47.8029 191.766 48.1681 192.107C48.4894 192.36 48.8615 192.54 49.259 192.636C50.1172 192.862 51.1131 192.862 51.8155 192.32C52.5969 191.708 52.7934 190.63 52.9583 189.652C53.1841 188.333 53.4981 186.942 54.4782 186.023C55.2054 185.345 56.2466 185.006 56.7751 184.166C57.4052 183.168 57.0732 181.865 56.6712 180.753C56.3211 179.791 55.8085 177.837 54.8012 177.345C53.7939 176.853 51.7455 177.668 50.6976 177.858Z" fill="#FBBEBE"/>
<path d="M87.8422 182.59C87.5377 183.667 86.9977 184.663 86.2613 185.506C85.8096 186.02 85.2563 186.646 85.4934 187.285C85.5899 187.502 85.7334 187.694 85.9135 187.848C89.2244 191.089 93.8564 192.665 98.4524 193.239C98.5263 193.259 98.6043 193.259 98.6782 193.239C98.8137 193.178 98.8453 193.013 98.8634 192.862C98.9368 192.383 98.9368 191.895 98.8634 191.416C98.6376 190.287 97.6551 189.503 96.693 188.884C95.7309 188.266 94.6785 187.665 94.141 186.655C93.4635 185.399 93.7548 183.764 92.9576 182.59C92.3117 181.634 91.1124 181.234 89.9742 181.047C89.5789 180.986 88.7388 180.552 88.3933 180.753C88.0409 180.957 87.9619 182.197 87.8422 182.59Z" fill="#FBBEBE"/>
<path d="M50.2459 177.74C50.2466 177.629 50.2062 177.521 50.1325 177.438C50.0587 177.355 49.9567 177.301 49.8462 177.289C49.6251 177.266 49.4017 177.294 49.1935 177.372C48.6756 177.513 48.1467 177.61 47.6125 177.661C46.9779 177.722 46.3298 177.72 45.7132 177.887C45.0966 178.054 44.4936 178.422 44.2429 179.016C44.121 179.356 44.0658 179.715 44.0803 180.076C44.0676 181.462 44.233 182.844 44.5727 184.189C44.5787 184.243 44.5968 184.294 44.6258 184.34C44.6547 184.386 44.6937 184.424 44.7398 184.453C44.8189 184.485 44.9137 184.453 44.9928 184.489C45.0622 184.53 45.1143 184.595 45.1396 184.672C45.5212 185.53 45.6093 186.479 45.7109 187.419C45.8615 188.802 46.052 190.182 46.2823 191.556C46.4178 192.358 46.585 193.201 47.1134 193.815C47.6916 194.493 48.6085 194.784 49.4916 194.904C51.357 195.152 53.2406 194.777 55.0835 194.393C55.4349 194.358 55.7653 194.21 56.0253 193.971C56.1936 193.76 56.2745 193.492 56.2511 193.223C56.2082 192.302 55.3613 191.642 54.5934 191.136L53.5364 190.425C53.4627 190.384 53.3993 190.327 53.3513 190.258C53.3012 190.152 53.2831 190.034 53.2993 189.919L53.3671 188.564C52.665 188.575 51.9791 188.776 51.3825 189.147C50.7859 189.517 50.301 190.042 49.9794 190.666C49.8326 190.958 49.6948 191.299 49.3899 191.412C49.0128 191.554 48.5927 191.236 48.4662 190.854C48.3783 190.46 48.3899 190.05 48.5001 189.661C49.1189 186.346 48.9744 182.937 49.3516 179.586C49.3749 179.209 49.4904 178.845 49.6881 178.524C49.871 178.271 50.212 178.05 50.2459 177.74Z" fill="#3F3D56"/>
<path d="M96.3723 190.596C96.5282 190.854 96.7698 191.048 96.9144 191.315C97.0589 191.581 97.0567 191.97 96.7969 192.121C96.6436 192.189 96.4729 192.206 96.3091 192.171C92.9932 191.759 89.8801 190.351 87.3815 188.132C86.9666 187.782 86.5992 187.378 86.2884 186.933C85.9971 186.481 85.7509 185.95 85.254 185.765C84.9571 187.053 84.8056 188.369 84.8023 189.691C84.8023 190.56 84.922 191.554 85.6334 192.058C85.9186 192.235 86.2317 192.362 86.5594 192.435L88.111 192.873C88.3846 192.977 88.6807 193.005 88.9692 192.957C89.1521 192.907 89.3147 192.792 89.5022 192.758C89.7064 192.736 89.9129 192.763 90.1052 192.835L91.4444 193.226C91.8975 193.341 92.3408 193.492 92.7701 193.677C93.1518 193.858 93.5064 194.095 93.879 194.296C94.5039 194.61 95.1526 194.873 95.819 195.084L98.1768 195.902C98.8213 196.157 99.495 196.33 100.182 196.417C100.657 196.458 101.138 196.417 101.607 196.498C101.964 196.559 102.31 196.688 102.671 196.724C103.267 196.74 103.852 196.567 104.342 196.229C104.534 196.123 104.699 195.975 104.828 195.798C105.167 195.272 104.875 194.578 104.543 194.048C103.931 193.067 103.166 192.148 102.154 191.588C101.743 191.362 101.3 191.195 100.878 190.989C99.6765 190.407 98.7663 189.433 97.6303 188.767C96.5575 188.144 95.8665 189.768 96.3723 190.596Z" fill="#3F3D56"/>
<path d="M63.2568 95.6637C62.0112 96.5195 60.5841 97.0746 59.0877 97.2854C58.3049 97.3828 57.5163 97.4251 56.7276 97.4118C53.4389 97.4079 50.1562 97.1337 46.9124 96.592C48.2042 95.169 49.5096 93.6557 49.9974 91.7901C50.2392 90.806 50.289 89.7845 50.1442 88.7816C49.9486 87.4949 49.6418 86.2276 49.2273 84.9939C50.6109 85.0681 51.9981 85.0326 53.3761 84.8877C54.162 84.8087 56.0862 84.0927 56.7637 84.6347C57.3984 85.1384 56.9196 86.9205 56.9083 87.7426C56.9083 87.772 56.9083 87.8013 56.9083 87.8307C56.9438 89.0787 57.2127 90.309 57.701 91.4581C58.6947 93.6806 60.8199 95.5056 63.2568 95.6637Z" fill="#FBBEBE"/>
<path opacity="0.1" d="M56.9173 87.7314C55.9275 88.378 54.8108 88.8053 53.6422 88.9845C52.4735 89.1638 51.2801 89.0907 50.142 88.7703C49.9464 87.4836 49.6396 86.2163 49.2251 84.9826C50.6086 85.0568 51.9959 85.0213 53.3738 84.8764C54.1598 84.7974 56.084 84.0814 56.7615 84.6235C57.4074 85.1271 56.9286 86.9092 56.9173 87.7314Z" fill="black"/>
<path d="M52.3914 88.6935C56.9566 88.6935 60.6573 84.9924 60.6573 80.4269C60.6573 75.8614 56.9566 72.1603 52.3914 72.1603C47.8263 72.1603 44.1255 75.8614 44.1255 80.4269C44.1255 84.9924 47.8263 88.6935 52.3914 88.6935Z" fill="#FBBEBE"/>
<path d="M87.4628 122.257C87.4673 122.924 87.2978 123.581 86.9711 124.163C86.6444 124.745 86.1717 125.231 85.5996 125.575C84.9606 125.91 84.2757 126.15 83.567 126.286C79.7864 127.19 75.9131 127.933 72.0309 127.711C71.1907 127.664 70.337 127.565 69.5827 127.197C68.8284 126.828 68.1847 126.139 68.0718 125.308C68.0667 125.103 68.0263 124.899 67.9521 124.707C67.8025 124.496 67.6062 124.321 67.3785 124.197C67.0293 123.929 66.7624 123.568 66.6083 123.155C66.4542 122.743 66.419 122.295 66.5067 121.864C66.0347 122.074 65.5423 121.6 65.321 121.132C65.0997 120.665 64.9258 120.1 64.4515 119.903C64.1286 119.766 63.7559 119.847 63.4149 119.759C62.8706 119.619 62.5386 119.081 62.1547 118.679C61.371 117.841 60.2598 117.408 59.2345 116.893C56.1924 115.359 53.7126 112.929 51.2848 110.539C50.063 109.335 48.8321 108.122 47.8633 106.699C47.59 106.3 47.3438 105.889 47.1112 105.466C46.3767 104.058 45.7398 102.6 45.2051 101.105C44.8979 100.305 44.5862 99.4604 44.7127 98.6202C44.724 98.5434 44.7398 98.4666 44.7579 98.3944C44.9153 97.8484 45.1692 97.3351 45.5077 96.8788C46.3478 95.6433 47.45 94.4734 48.8954 94.0939C50.3408 93.7145 51.7839 94.173 53.2519 94.4847C53.7393 94.5931 54.2336 94.6686 54.7312 94.7105C56.2872 94.8212 57.8275 94.4034 59.3316 93.9878L60.9713 93.536C61.7933 93.3102 62.2044 92.3164 63.0355 92.1425C63.4068 92.089 63.7849 92.1082 64.1489 92.1989C65.8359 92.5197 67.5366 92.933 69.0204 93.7913C69.3507 93.983 69.6669 94.1982 69.9666 94.435C71.0236 95.2707 71.8592 96.3842 72.1664 97.6852C72.5051 99.1149 72.1867 100.642 72.53 102.071C72.81 103.253 73.5192 104.283 74.2148 105.279L78.2506 111.043C79.1514 112.399 80.1437 113.693 81.2205 114.914C83.3841 117.27 87.4086 119.052 87.4628 122.257Z" fill="white"/>
<path d="M76.6855 67.0038C76.8526 66.2156 76.9768 65.3889 77.4127 64.709C77.7107 64.2816 78.0707 63.901 78.4809 63.5797C79.1743 62.9947 79.9105 62.4323 80.771 62.1478C81.6315 61.8632 82.6433 61.9016 83.366 62.4482C84.0887 62.9947 84.3936 63.9366 84.5065 64.8355C84.6601 66.071 84.5065 67.372 83.8944 68.4493C83.1943 69.6713 81.9793 70.4821 80.9585 71.4624C80.2196 72.1707 79.5765 72.9725 79.0456 73.8475C78.8043 74.3038 78.5118 74.7312 78.1738 75.1214C78.0024 75.3155 77.7878 75.4666 77.5474 75.5627C77.307 75.6588 77.0473 75.6972 76.7894 75.6747C76.3558 75.6047 75.9989 75.3021 75.6602 75.0129C75.2423 74.6471 74.1154 73.9943 74.0792 73.4138C74.0521 72.944 74.9307 71.878 75.1452 71.4375C75.8125 70.0176 76.3287 68.5316 76.6855 67.0038V67.0038Z" fill="#FBBEBE"/>
<path d="M105.736 162.761C104.697 164.679 103.559 166.546 102.633 168.521C102.093 169.675 101.625 170.863 101.025 171.985C100.37 173.209 99.5635 174.348 98.8792 175.558C97.156 178.61 96.1962 182.052 95.3086 185.442C92.8259 185.07 90.4372 184.227 88.2713 182.958C88.1245 182.872 87.9845 182.782 87.849 182.684C87.2698 182.269 86.7856 181.736 86.4284 181.119C87.2482 178.018 88.0906 174.865 89.7596 172.125C90.3039 171.222 90.9272 170.397 91.4873 169.517C93.1112 166.964 93.4454 163.744 95.2996 161.354C95.4768 161.113 95.5724 160.822 95.5724 160.523C95.5724 160.224 95.4768 159.932 95.2996 159.692C95.085 159.414 94.744 159.149 94.8072 158.806C94.8547 158.555 95.1167 158.33 95.015 158.095C94.9676 157.982 94.8524 157.921 94.7621 157.839C94.4459 157.548 94.4865 157.051 94.4594 156.624C94.3894 155.542 93.7413 154.592 93.1044 153.708C92.9773 153.499 92.8091 153.318 92.6098 153.175C92.4427 153.074 92.2439 153.029 92.0768 152.925C91.4851 152.554 91.528 151.691 91.2434 151.052C90.873 150.21 89.9403 149.781 89.3283 149.096C88.5491 148.227 88.3504 147.014 87.5215 146.253C87.4379 146.17 87.3481 146.095 87.2528 146.027C87.6638 147.303 87.7044 148.665 87.7338 150.009C87.8128 154.614 86.661 159.382 87.2008 163.958C87.6254 167.588 85.3941 171.211 82.2209 173.024C81.0014 173.72 79.6689 174.185 78.3455 174.657C76.3603 175.36 74.3819 176.085 72.4351 176.898C71.059 177.467 69.7039 178.081 68.3699 178.739C66.7208 179.539 65.1158 180.427 63.5617 181.399C61.651 182.614 59.7404 183.85 58.3831 185.664C57.0709 185.627 55.8694 184.839 55.0383 183.823C54.2072 182.806 53.6832 181.564 53.2067 180.354C52.7844 179.303 52.3688 178.219 52.3372 177.088C52.3429 176.966 52.3828 176.848 52.4523 176.749C52.5218 176.649 52.6181 176.57 52.7302 176.523L61.8024 171.714L63.4984 170.811C67.2136 168.839 71.062 167.016 74.7771 165.047C75.0278 165.121 75.2288 164.837 75.3033 164.595C75.3779 164.353 75.4298 164.042 75.6647 163.933C75.7821 163.877 75.9357 163.879 76.0238 163.78C76.0812 163.691 76.1037 163.584 76.087 163.479C75.9673 161.672 74.671 160.03 74.9307 158.248C75.0413 157.489 75.4321 156.742 75.2627 155.99C75.143 155.472 74.7726 155.055 74.5716 154.564C74.1199 153.469 74.5716 152.15 74.0838 151.077C73.7596 150.372 73.539 149.623 73.4288 148.855C73.1952 147.324 72.7275 145.839 72.0421 144.45C71.7123 143.748 71.2825 143.098 70.7661 142.519C70.4928 142.225 70.1857 141.963 69.926 141.659C69.1378 140.723 68.8464 139.477 68.6229 138.271C68.2163 136.087 67.9453 133.821 68.4422 131.657C68.6138 130.919 68.8758 130.187 68.8645 129.43C68.8532 128.43 68.4128 127.262 69.1084 126.539C69.3965 126.281 69.7466 126.101 70.1247 126.017C71.7237 125.541 73.3882 125.324 75.0436 125.114L82.6207 124.122C83.4879 124.007 84.3755 123.897 85.1411 123.465C86.1687 122.898 86.8507 121.848 87.2686 120.755C88.5988 121.726 89.0956 123.535 90.1571 124.789C90.6743 125.401 91.3134 125.896 91.8803 126.458C92.5734 127.188 93.2085 127.971 93.7797 128.8C95.3606 130.971 96.9415 133.157 98.0707 135.592C98.6602 136.857 99.1164 138.176 99.5861 139.488C101.436 144.654 104.451 149.557 105.702 154.896C106.009 156.202 106.806 157.381 106.931 158.716C107.071 160.132 106.416 161.501 105.736 162.761Z" fill="#3F3D56"/>
<path opacity="0.1" d="M66.055 119.86C65.8694 120.204 65.7731 120.588 65.775 120.978C65.9443 120.143 67.0939 119.68 67.1684 118.853C67.2023 118.471 67.1323 118.489 66.8974 118.69C66.5406 119 66.3847 119.533 66.055 119.86Z" fill="black"/>
<path opacity="0.1" d="M69.5579 122.399C69.3151 122.604 69.1338 122.872 69.0339 123.174C68.8384 123.599 68.8008 124.079 68.9277 124.529C69.0971 124.45 69.1536 124.242 69.2055 124.062C69.2887 123.78 69.4095 123.511 69.5646 123.262C69.7001 123.036 70.3257 122.532 70.3235 122.295C70.3167 121.932 69.725 122.27 69.5579 122.399Z" fill="black"/>
<path opacity="0.1" d="M69.9621 94.4192C69.4309 94.8764 68.8453 95.2663 68.2186 95.5801C66.5812 96.409 64.7677 96.8472 63.119 97.6513C62.3057 98.0681 61.5156 98.5288 60.7522 99.0313L55.8513 102.137C55.4576 102.363 55.0948 102.638 54.7718 102.957C54.1824 103.585 54.1846 104.689 53.6426 105.362C53.1006 106.035 52.1656 106.415 51.2644 106.46C50.3618 106.465 49.4652 106.312 48.6153 106.008C48.1006 105.854 47.5953 105.67 47.1021 105.457C46.5864 105.238 46.0982 104.959 45.6477 104.626C44.7737 103.966 44.0668 103.007 43.9358 101.916C43.8769 101.167 43.9762 100.414 44.2271 99.7067C44.3628 99.2462 44.5373 98.7982 44.7488 98.3673C44.8693 98.1222 45.0082 97.8866 45.1644 97.6626C46.2936 96.068 48.2743 95.3204 50.1917 94.9522C51.199 94.7557 52.2243 94.636 53.2428 94.4644C53.7303 94.5728 54.2245 94.6483 54.7221 94.6902C56.2782 94.8009 57.8185 94.383 59.3226 93.9675L60.9622 93.5157C61.7843 93.2899 62.1953 92.2961 63.0264 92.1221C63.3977 92.0687 63.7758 92.0879 64.1398 92.1786C65.8269 92.4993 67.5275 92.9127 69.0113 93.771C69.3433 93.964 69.6611 94.1806 69.9621 94.4192Z" fill="black"/>
<path d="M73.9595 72.4788C73.7495 74.4777 72.0624 75.9458 71.0236 77.6736C70.5244 78.5116 70.1744 79.4309 69.725 80.2982C69.2099 81.2438 68.6367 82.1566 68.0085 83.0311L66.1724 85.6963C65.0929 87.2638 64.0021 88.8449 62.6222 90.1571C60.2169 90.5659 58.2001 92.3525 55.9191 93.2198C54.0943 93.9132 52.1046 94.0081 50.1894 94.3808C48.2743 94.7535 46.2891 95.5101 45.1644 97.0911C44.7456 97.7147 44.4285 98.4009 44.2249 99.1239C43.9725 99.8305 43.8739 100.583 43.9358 101.331C44.0736 102.419 44.7714 103.377 45.6454 104.041C46.5195 104.705 47.5651 105.098 48.613 105.423C49.4632 105.726 50.3596 105.879 51.2622 105.875C52.1656 105.83 53.0825 105.482 53.6426 104.777C54.2027 104.073 54.1756 103 54.7718 102.372C55.0956 102.053 55.4592 101.777 55.8536 101.552L60.7544 98.4463C61.5173 97.947 62.3066 97.4893 63.119 97.0753C64.7677 96.269 66.5812 95.8331 68.2186 95.0042C69.8559 94.1752 71.3804 92.8065 71.7079 90.9996C72.7061 85.4479 76.5477 80.768 79.8383 76.1829C79.7299 76.1604 79.7637 75.9142 79.7231 75.8103C79.303 74.7216 78.368 73.9017 77.3156 73.3845C76.2631 72.8673 75.0888 72.7227 73.9595 72.4788Z" fill="white"/>
<path d="M56.6328 72.5194C56.6939 71.9173 56.5752 71.3105 56.2917 70.7758C55.7475 69.8723 54.607 69.5538 53.5816 69.3415C52.5894 69.1382 51.5927 68.9636 50.5914 68.8175C49.7694 68.6978 48.927 68.5917 48.1184 68.7769C46.9892 69.0231 46.07 69.7707 45.0244 70.2359C43.789 70.787 42.4204 70.9316 41.1015 71.2365C39.7825 71.5414 38.432 72.0587 37.6054 73.1293C36.9775 73.9424 36.7269 74.9813 36.5394 75.9932C34.9743 84.4383 36.6591 93.1001 36.9798 101.683C37.104 105.023 36.9527 108.594 35.0443 111.339L40.6023 111.192C42.0252 111.156 43.5541 111.081 44.6675 110.203C45.6522 109.43 46.1175 108.186 46.5398 107.007C46.8718 106.078 47.206 105.132 47.2489 104.147C47.337 102.13 46.192 100.149 46.5714 98.164C46.8492 96.6823 47.9265 95.4853 49.0805 94.5118C50.2346 93.5383 51.5174 92.7049 52.4501 91.5123C54.1169 89.405 54.4353 86.5252 54.2275 83.8488C54.1033 82.2564 53.8188 80.6641 53.9565 79.0717C54.0604 77.8814 54.4376 76.6527 55.2167 75.7244C56.093 74.6719 56.556 74.0124 56.6328 72.5194Z" fill="#3F3D56"/>
<path opacity="0.1" d="M56.2918 70.7758C55.7565 69.8859 54.6453 69.5651 53.6268 69.3528C54.1683 69.5455 54.6316 69.9105 54.9457 70.3918C55.2302 70.9262 55.3489 71.5332 55.2867 72.1355C55.21 73.6262 54.747 74.2857 53.8617 75.3405C53.0825 76.2688 52.7053 77.4952 52.6015 78.6878C52.4637 80.2801 52.7483 81.8724 52.8725 83.4648C53.0802 86.1413 52.7618 89.021 51.0973 91.1283C50.1623 92.3119 48.8795 93.1611 47.7277 94.1278C46.5759 95.0945 45.4941 96.2984 45.2163 97.78C44.8437 99.7654 45.9887 101.746 45.8939 103.763C45.851 104.748 45.5145 105.694 45.1825 106.623C44.7624 107.802 44.2949 109.044 43.3102 109.816C42.181 110.695 40.6611 110.772 39.245 110.808L35.3086 110.912C35.2205 111.056 35.1301 111.201 35.033 111.339L40.5911 111.192C42.0139 111.156 43.5428 111.081 44.6562 110.203C45.6409 109.43 46.1062 108.186 46.5285 107.007C46.8605 106.078 47.1947 105.132 47.2376 104.147C47.3257 102.13 46.1807 100.149 46.5601 98.164C46.8379 96.6823 47.9152 95.4853 49.0693 94.5118C50.2233 93.5383 51.5061 92.7049 52.4388 91.5123C54.1056 89.405 54.424 86.5252 54.2162 83.8488C54.092 82.2564 53.8075 80.6641 53.9452 79.0717C54.0491 77.8814 54.4263 76.6527 55.2054 75.7244C56.0907 74.6719 56.5605 74.0124 56.6305 72.5194C56.6923 71.9175 56.5744 71.3108 56.2918 70.7758V70.7758Z" fill="black"/>
<path opacity="0.1" d="M98.0504 171.268L87.849 196.147C87.2698 195.732 86.7856 195.198 86.4284 194.582C87.2483 191.481 88.0907 188.328 89.7596 185.588C90.3039 184.684 90.9273 183.86 91.4873 182.979C93.1112 180.427 93.4454 177.206 95.2996 174.816C95.4768 174.576 95.5724 174.284 95.5724 173.985C95.5724 173.686 95.4768 173.395 95.2996 173.154C95.0851 172.876 94.744 172.612 94.8073 172.269C94.8547 172.018 95.1167 171.792 95.015 171.557C94.9676 171.444 94.8524 171.383 94.7621 171.302C94.4459 171.011 94.4866 170.514 94.4595 170.087C94.3894 169.005 93.7413 168.054 93.1044 167.171C92.9774 166.962 92.8091 166.78 92.6098 166.638C92.4427 166.536 92.2439 166.491 92.0768 166.387C91.4851 166.017 91.528 165.154 91.2434 164.515C90.8731 163.672 89.9403 163.243 89.3283 162.559C88.5491 161.689 88.3504 160.476 87.5215 159.715L87.4515 159.539L88.2465 154.739L98.0504 171.268Z" fill="black"/>
<defs>
<linearGradient id="paint0_linear" x1="71.0462" y1="197.235" x2="71.0462" y2="61.5582" gradientUnits="userSpaceOnUse">
<stop stop-color="#808080" stop-opacity="0.25"/>
<stop offset="0.54" stop-color="#808080" stop-opacity="0.12"/>
<stop offset="1" stop-color="#808080" stop-opacity="0.1"/>
</linearGradient>
</defs>
</svg>
