<svg width="690" height="523" viewBox="0 0 690 523" fill="none" xmlns="http://www.w3.org/2000/svg">
<rect y="362" width="690" height="161" fill="#03179E"/>
<rect y="41" width="690" height="231" fill="#001CDF"/>
<path d="M478.013 115.126L338.469 161.75L208 116.317L339.637 69.8879L478.013 115.126Z" fill="#1331FF"/>
<path d="M478.013 131.569L338.469 178.192L208 132.759L339.637 86.3304L478.013 131.569Z" fill="#001CDF" fill-opacity="0.68"/>
<path d="M478.013 148.011L338.469 194.635L208 149.202L339.637 102.773L478.013 148.011Z" fill="#001CDF" fill-opacity="0.75"/>
<path d="M653.013 179.126L513.469 225.75L383 180.317L514.637 133.888L653.013 179.126Z" fill="#1331FF"/>
<path d="M653.013 195.569L513.469 242.192L383 196.759L514.637 150.33L653.013 195.569Z" fill="#001CDF" fill-opacity="0.68"/>
<path d="M653.013 212.011L513.469 258.635L383 213.201L514.637 166.773L653.013 212.011Z" fill="#001CDF" fill-opacity="0.75"/>
<path d="M300.013 179.126L160.469 225.75L30 180.317L161.637 133.888L300.013 179.126Z" fill="#1331FF"/>
<path d="M300.013 195.569L160.469 242.192L30 196.759L161.637 150.33L300.013 195.569Z" fill="#001CDF" fill-opacity="0.68"/>
<path d="M300.013 212.011L160.469 258.635L30 213.201L161.637 166.773L300.013 212.011Z" fill="#001CDF" fill-opacity="0.75"/>
<path d="M519 447.5C569.4 441.1 577 383 573 362H690V523H447C446.667 504.667 468.6 453.9 519 447.5Z" fill="#001CDF"/>
</svg>
