<svg width="533" height="302" viewBox="0 0 533 302" fill="none" xmlns="http://www.w3.org/2000/svg">
<rect x="39" y="51" width="487" height="239" fill="#E0E0E0"/>
<g filter="url(#filter0_d)">
<rect x="36" y="39" width="493" height="255" rx="5" fill="white"/>
<rect x="36.1" y="39.1" width="492.8" height="254.8" rx="4.9" stroke="black" stroke-width="0.2"/>
</g>
<circle r="2.21538" transform="matrix(1 0 0 -1 47.2154 45.2154)" fill="#FF0000"/>
<circle r="2.21538" transform="matrix(1 0 0 -1 53 45.2154)" fill="#FFAE35"/>
<circle r="2.21538" transform="matrix(1 0 0 -1 58.7846 45.2154)" fill="#04B500"/>
<path d="M256.793 44.6782C256.994 44.4325 257.254 44.3096 257.575 44.3096C258.133 44.3096 258.415 44.6245 258.419 45.2544V47H257.968V45.252C257.966 45.0615 257.922 44.9207 257.836 44.8296C257.751 44.7384 257.619 44.6929 257.438 44.6929C257.292 44.6929 257.163 44.7319 257.052 44.8101C256.942 44.8882 256.855 44.9907 256.793 45.1177V47H256.342V43.25H256.793V44.6782ZM259.708 43.7188V44.3584H260.202V44.7075H259.708V46.3457C259.708 46.4515 259.73 46.5312 259.774 46.585C259.818 46.637 259.893 46.6631 259.999 46.6631C260.051 46.6631 260.123 46.6533 260.214 46.6338V47C260.095 47.0326 259.979 47.0488 259.867 47.0488C259.665 47.0488 259.513 46.9878 259.411 46.8657C259.308 46.7437 259.257 46.5703 259.257 46.3457V44.7075H258.776V44.3584H259.257V43.7188H259.708ZM261.344 43.7188V44.3584H261.837V44.7075H261.344V46.3457C261.344 46.4515 261.366 46.5312 261.41 46.585C261.454 46.637 261.529 46.6631 261.635 46.6631C261.687 46.6631 261.758 46.6533 261.85 46.6338V47C261.731 47.0326 261.615 47.0488 261.503 47.0488C261.301 47.0488 261.149 46.9878 261.046 46.8657C260.944 46.7437 260.893 46.5703 260.893 46.3457V44.7075H260.412V44.3584H260.893V43.7188H261.344ZM264.599 45.7085C264.599 46.1105 264.507 46.4344 264.323 46.6802C264.139 46.9259 263.89 47.0488 263.576 47.0488C263.255 47.0488 263.003 46.9471 262.819 46.7437V48.0156H262.367V44.3584H262.78L262.802 44.6514C262.986 44.4235 263.241 44.3096 263.568 44.3096C263.886 44.3096 264.136 44.4292 264.32 44.6685C264.506 44.9077 264.599 45.2406 264.599 45.667V45.7085ZM264.147 45.6572C264.147 45.3594 264.083 45.1242 263.957 44.9517C263.83 44.7791 263.655 44.6929 263.434 44.6929C263.161 44.6929 262.956 44.8141 262.819 45.0566V46.3188C262.954 46.5597 263.161 46.6802 263.439 46.6802C263.655 46.6802 263.827 46.5947 263.954 46.4238C264.083 46.2513 264.147 45.9958 264.147 45.6572ZM266.713 46.2993C266.713 46.1772 266.667 46.0828 266.574 46.0161C266.483 45.9478 266.322 45.8892 266.093 45.8403C265.865 45.7915 265.683 45.7329 265.548 45.6646C265.415 45.5962 265.316 45.5148 265.25 45.4204C265.187 45.326 265.155 45.2137 265.155 45.0835C265.155 44.867 265.246 44.6839 265.429 44.5342C265.613 44.3844 265.847 44.3096 266.132 44.3096C266.431 44.3096 266.674 44.3869 266.859 44.5415C267.047 44.6961 267.14 44.8939 267.14 45.1348H266.686C266.686 45.0111 266.633 44.9045 266.527 44.8149C266.423 44.7254 266.291 44.6807 266.132 44.6807C265.967 44.6807 265.839 44.7165 265.746 44.7881C265.653 44.8597 265.607 44.9533 265.607 45.0688C265.607 45.1779 265.65 45.2601 265.736 45.3154C265.823 45.3708 265.978 45.4237 266.203 45.4741C266.429 45.5246 266.612 45.5848 266.752 45.6548C266.892 45.7248 266.995 45.8094 267.062 45.9087C267.13 46.0063 267.165 46.126 267.165 46.2676C267.165 46.5036 267.07 46.6932 266.881 46.8364C266.693 46.978 266.448 47.0488 266.146 47.0488C265.935 47.0488 265.748 47.0114 265.585 46.9365C265.422 46.8617 265.294 46.7575 265.202 46.624C265.111 46.4889 265.065 46.3433 265.065 46.187H265.517C265.525 46.3384 265.585 46.4588 265.697 46.5483C265.811 46.6362 265.961 46.6802 266.146 46.6802C266.317 46.6802 266.454 46.646 266.557 46.5776C266.661 46.5076 266.713 46.4149 266.713 46.2993ZM267.738 46.7632C267.738 46.6851 267.761 46.62 267.807 46.5679C267.854 46.5158 267.924 46.4897 268.017 46.4897C268.109 46.4897 268.179 46.5158 268.227 46.5679C268.275 46.62 268.3 46.6851 268.3 46.7632C268.3 46.8381 268.275 46.9007 268.227 46.9512C268.179 47.0016 268.109 47.0269 268.017 47.0269C267.924 47.0269 267.854 47.0016 267.807 46.9512C267.761 46.9007 267.738 46.8381 267.738 46.7632ZM267.741 44.6074C267.741 44.5293 267.764 44.4642 267.809 44.4121C267.856 44.36 267.926 44.334 268.019 44.334C268.112 44.334 268.182 44.36 268.229 44.4121C268.278 44.4642 268.302 44.5293 268.302 44.6074C268.302 44.6823 268.278 44.745 268.229 44.7954C268.182 44.8459 268.112 44.8711 268.019 44.8711C267.926 44.8711 267.856 44.8459 267.809 44.7954C267.764 44.745 267.741 44.6823 267.741 44.6074ZM269.054 47.3052H268.666L270.15 43.4453H270.536L269.054 47.3052ZM270.568 47.3052H270.18L271.664 43.4453H272.05L270.568 47.3052ZM274.076 46.2993C274.076 46.1772 274.03 46.0828 273.937 46.0161C273.846 45.9478 273.686 45.8892 273.456 45.8403C273.228 45.7915 273.047 45.7329 272.912 45.6646C272.778 45.5962 272.679 45.5148 272.614 45.4204C272.55 45.326 272.519 45.2137 272.519 45.0835C272.519 44.867 272.61 44.6839 272.792 44.5342C272.976 44.3844 273.21 44.3096 273.495 44.3096C273.795 44.3096 274.037 44.3869 274.223 44.5415C274.41 44.6961 274.503 44.8939 274.503 45.1348H274.049C274.049 45.0111 273.996 44.9045 273.891 44.8149C273.786 44.7254 273.655 44.6807 273.495 44.6807C273.331 44.6807 273.202 44.7165 273.109 44.7881C273.017 44.8597 272.97 44.9533 272.97 45.0688C272.97 45.1779 273.013 45.2601 273.1 45.3154C273.186 45.3708 273.341 45.4237 273.566 45.4741C273.792 45.5246 273.975 45.5848 274.115 45.6548C274.255 45.7248 274.359 45.8094 274.425 45.9087C274.494 46.0063 274.528 46.126 274.528 46.2676C274.528 46.5036 274.433 46.6932 274.245 46.8364C274.056 46.978 273.811 47.0488 273.51 47.0488C273.298 47.0488 273.111 47.0114 272.948 46.9365C272.785 46.8617 272.658 46.7575 272.565 46.624C272.474 46.4889 272.428 46.3433 272.428 46.187H272.88C272.888 46.3384 272.948 46.4588 273.061 46.5483C273.174 46.6362 273.324 46.6802 273.51 46.6802C273.681 46.6802 273.817 46.646 273.92 46.5776C274.024 46.5076 274.076 46.4149 274.076 46.2993ZM276.747 46.7388C276.571 46.9455 276.313 47.0488 275.973 47.0488C275.692 47.0488 275.477 46.9674 275.329 46.8047C275.182 46.6403 275.108 46.3978 275.106 46.0771V44.3584H275.558V46.0649C275.558 46.4653 275.721 46.6655 276.046 46.6655C276.391 46.6655 276.621 46.5369 276.735 46.2798V44.3584H277.187V47H276.757L276.747 46.7388ZM279.152 44.7637C279.083 44.7523 279.009 44.7466 278.93 44.7466C278.633 44.7466 278.432 44.8727 278.327 45.125V47H277.875V44.3584H278.314L278.322 44.6636C278.47 44.4276 278.68 44.3096 278.952 44.3096C279.04 44.3096 279.106 44.321 279.152 44.3438V44.7637ZM280.485 46.3872L281.139 44.3584H281.601L280.653 47H280.309L279.352 44.3584H279.813L280.485 46.3872ZM283.097 47.0488C282.739 47.0488 282.448 46.9316 282.223 46.6973C281.999 46.4613 281.886 46.1463 281.886 45.7524V45.6694C281.886 45.4074 281.936 45.1738 282.035 44.9688C282.136 44.762 282.276 44.6009 282.455 44.4854C282.636 44.3682 282.831 44.3096 283.041 44.3096C283.384 44.3096 283.651 44.4227 283.842 44.6489C284.032 44.8752 284.127 45.1991 284.127 45.6206V45.8086H282.338C282.344 46.069 282.42 46.2798 282.565 46.4409C282.711 46.6004 282.897 46.6802 283.122 46.6802C283.281 46.6802 283.416 46.6476 283.527 46.5825C283.638 46.5174 283.734 46.4312 283.817 46.3237L284.093 46.5386C283.872 46.8787 283.54 47.0488 283.097 47.0488ZM283.041 44.6807C282.859 44.6807 282.706 44.7474 282.582 44.8809C282.458 45.0127 282.382 45.1982 282.353 45.4375H283.676V45.4033C283.663 45.1738 283.601 44.9964 283.49 44.8711C283.38 44.7441 283.23 44.6807 283.041 44.6807ZM285.482 46.3384L286.098 44.3584H286.581L285.519 47.4077C285.355 47.8472 285.093 48.0669 284.735 48.0669L284.65 48.0596L284.481 48.0278V47.6616L284.604 47.6714C284.757 47.6714 284.875 47.6405 284.96 47.5786C285.046 47.5168 285.117 47.4036 285.172 47.2393L285.272 46.9707L284.33 44.3584H284.823L285.482 46.3384ZM288.578 47C288.552 46.9479 288.531 46.8551 288.515 46.7217C288.305 46.9398 288.054 47.0488 287.763 47.0488C287.502 47.0488 287.288 46.9756 287.121 46.8291C286.955 46.681 286.872 46.4938 286.872 46.2676C286.872 45.9925 286.976 45.7793 287.184 45.6279C287.394 45.4749 287.689 45.3984 288.068 45.3984H288.507V45.1909C288.507 45.033 288.46 44.9077 288.366 44.8149C288.271 44.7205 288.132 44.6733 287.948 44.6733C287.787 44.6733 287.652 44.714 287.543 44.7954C287.434 44.8768 287.379 44.9753 287.379 45.0908H286.925C286.925 44.959 286.972 44.832 287.064 44.71C287.159 44.5863 287.286 44.4886 287.445 44.417C287.606 44.3454 287.783 44.3096 287.975 44.3096C288.279 44.3096 288.518 44.3861 288.69 44.5391C288.863 44.6904 288.952 44.8996 288.959 45.1665V46.3823C288.959 46.6248 288.99 46.8177 289.052 46.9609V47H288.578ZM287.829 46.6558C287.97 46.6558 288.104 46.6191 288.231 46.5459C288.358 46.4727 288.45 46.3774 288.507 46.2603V45.7183H288.153C287.6 45.7183 287.323 45.8802 287.323 46.2041C287.323 46.3457 287.37 46.4564 287.465 46.5361C287.559 46.6159 287.681 46.6558 287.829 46.6558ZM291.898 45.7085C291.898 46.1105 291.806 46.4344 291.623 46.6802C291.439 46.9259 291.19 47.0488 290.875 47.0488C290.555 47.0488 290.303 46.9471 290.119 46.7437V48.0156H289.667V44.3584H290.08L290.102 44.6514C290.285 44.4235 290.541 44.3096 290.868 44.3096C291.186 44.3096 291.436 44.4292 291.62 44.6685C291.806 44.9077 291.898 45.2406 291.898 45.667V45.7085ZM291.447 45.6572C291.447 45.3594 291.383 45.1242 291.256 44.9517C291.129 44.7791 290.955 44.6929 290.734 44.6929C290.46 44.6929 290.255 44.8141 290.119 45.0566V46.3188C290.254 46.5597 290.46 46.6802 290.739 46.6802C290.955 46.6802 291.127 46.5947 291.254 46.4238C291.382 46.2513 291.447 45.9958 291.447 45.6572ZM294.706 45.7085C294.706 46.1105 294.614 46.4344 294.43 46.6802C294.246 46.9259 293.997 47.0488 293.683 47.0488C293.362 47.0488 293.11 46.9471 292.926 46.7437V48.0156H292.475V44.3584H292.887L292.909 44.6514C293.093 44.4235 293.349 44.3096 293.676 44.3096C293.993 44.3096 294.244 44.4292 294.428 44.6685C294.613 44.9077 294.706 45.2406 294.706 45.667V45.7085ZM294.254 45.6572C294.254 45.3594 294.191 45.1242 294.064 44.9517C293.937 44.7791 293.763 44.6929 293.542 44.6929C293.268 44.6929 293.063 44.8141 292.926 45.0566V46.3188C293.061 46.5597 293.268 46.6802 293.546 46.6802C293.763 46.6802 293.935 46.5947 294.062 46.4238C294.19 46.2513 294.254 45.9958 294.254 45.6572ZM295.292 46.7632C295.292 46.6851 295.315 46.62 295.36 46.5679C295.408 46.5158 295.478 46.4897 295.57 46.4897C295.663 46.4897 295.733 46.5158 295.78 46.5679C295.829 46.62 295.854 46.6851 295.854 46.7632C295.854 46.8381 295.829 46.9007 295.78 46.9512C295.733 47.0016 295.663 47.0269 295.57 47.0269C295.478 47.0269 295.408 47.0016 295.36 46.9512C295.315 46.9007 295.292 46.8381 295.292 46.7632ZM297.66 46.6802C297.821 46.6802 297.962 46.6313 298.083 46.5337C298.203 46.436 298.27 46.314 298.283 46.1675H298.71C298.702 46.3188 298.65 46.4629 298.554 46.5996C298.458 46.7363 298.329 46.8454 298.168 46.9268C298.008 47.0081 297.839 47.0488 297.66 47.0488C297.3 47.0488 297.014 46.9292 296.801 46.6899C296.589 46.4491 296.483 46.1203 296.483 45.7036V45.6279C296.483 45.3708 296.531 45.1421 296.625 44.9419C296.719 44.7417 296.854 44.5863 297.03 44.4756C297.208 44.3649 297.417 44.3096 297.658 44.3096C297.954 44.3096 298.2 44.3983 298.395 44.5757C298.592 44.7531 298.697 44.9834 298.71 45.2666H298.283C298.27 45.0957 298.205 44.9557 298.087 44.8467C297.972 44.736 297.829 44.6807 297.658 44.6807C297.428 44.6807 297.25 44.7637 297.123 44.9297C296.998 45.0941 296.935 45.3325 296.935 45.645V45.7305C296.935 46.0348 296.998 46.2692 297.123 46.4336C297.248 46.598 297.427 46.6802 297.66 46.6802ZM299.098 45.6548C299.098 45.396 299.149 45.1632 299.25 44.9565C299.352 44.7498 299.494 44.5903 299.674 44.478C299.857 44.3657 300.064 44.3096 300.297 44.3096C300.657 44.3096 300.947 44.4341 301.168 44.6831C301.391 44.9321 301.503 45.2633 301.503 45.6768V45.7085C301.503 45.9657 301.453 46.1968 301.354 46.4019C301.256 46.6053 301.116 46.764 300.932 46.8779C300.749 46.9919 300.539 47.0488 300.302 47.0488C299.944 47.0488 299.653 46.9243 299.43 46.6753C299.209 46.4263 299.098 46.0967 299.098 45.6865V45.6548ZM299.552 45.7085C299.552 46.0015 299.62 46.2367 299.755 46.4141C299.892 46.5915 300.074 46.6802 300.302 46.6802C300.531 46.6802 300.714 46.5907 300.849 46.4116C300.984 46.231 301.051 45.9787 301.051 45.6548C301.051 45.3651 300.982 45.1307 300.844 44.9517C300.707 44.771 300.525 44.6807 300.297 44.6807C300.074 44.6807 299.894 44.7694 299.757 44.9468C299.621 45.1242 299.552 45.3781 299.552 45.7085ZM302.494 44.3584L302.506 44.6514C302.7 44.4235 302.961 44.3096 303.29 44.3096C303.66 44.3096 303.911 44.4512 304.044 44.7344C304.132 44.6074 304.246 44.5049 304.386 44.4268C304.528 44.3486 304.695 44.3096 304.887 44.3096C305.466 44.3096 305.761 44.6164 305.771 45.23V47H305.319V45.2568C305.319 45.068 305.276 44.9272 305.189 44.8345C305.103 44.7401 304.958 44.6929 304.755 44.6929C304.587 44.6929 304.448 44.7433 304.337 44.8442C304.227 44.9435 304.162 45.0778 304.145 45.2471V47H303.69V45.269C303.69 44.8849 303.502 44.6929 303.126 44.6929C302.83 44.6929 302.628 44.819 302.519 45.0713V47H302.067V44.3584H302.494Z" fill="black"/>
<rect x="39" y="51" width="487" height="23" fill="#1E50D1"/>
<g filter="url(#filter1_d)">
<rect x="66" y="87" width="73" height="16" fill="white"/>
</g>
<g filter="url(#filter2_d)">
<rect x="66" y="112" width="402" height="54" fill="white"/>
</g>
<g filter="url(#filter3_d)">
<rect x="66" y="176" width="402" height="54" fill="white"/>
</g>
<g filter="url(#filter4_d)">
<rect x="66" y="239" width="402" height="47" fill="white"/>
</g>
<g filter="url(#filter5_d)">
<rect x="478" y="112" width="16" height="39" fill="white"/>
</g>
<rect x="77" y="119" width="184" height="10" fill="#C4C4C4"/>
<rect x="77" y="182" width="184" height="10" fill="#C4C4C4"/>
<rect x="77" y="242" width="184" height="10" fill="#C4C4C4"/>
<rect x="77" y="199" width="56" height="10" fill="#C4C4C4"/>
<rect x="77" y="259" width="56" height="10" fill="#C4C4C4"/>
<rect x="77" y="213" width="56" height="10" fill="#C4C4C4"/>
<rect x="77" y="273" width="56" height="10" fill="#C4C4C4"/>
<rect x="77" y="136" width="377" height="5" fill="#C4C4C4"/>
<rect x="77" y="144" width="377" height="5" fill="#C4C4C4"/>
<rect x="77" y="152" width="377" height="5" fill="#C4C4C4"/>
<circle cx="139.5" cy="204.5" r="2.5" fill="#C4C4C4"/>
<circle cx="485.5" cy="121.5" r="2.5" fill="#C4C4C4"/>
<circle cx="485.5" cy="131.5" r="2.5" fill="#C4C4C4"/>
<circle cx="485.5" cy="141.5" r="2.5" fill="#C4C4C4"/>
<circle cx="139.5" cy="264.5" r="2.5" fill="#C4C4C4"/>
<circle cx="139.5" cy="217.5" r="2.5" fill="#C4C4C4"/>
<circle cx="139.5" cy="277.5" r="2.5" fill="#C4C4C4"/>
<rect x="77" y="91" width="17" height="8" fill="#C4C4C4"/>
<rect x="102" y="91" width="17" height="8" fill="#C4C4C4"/>
<rect x="503" y="53" width="19" height="19" fill="white"/>
<rect x="478" y="59" width="19" height="7" fill="white"/>
<rect x="453" y="59" width="19" height="7" fill="white"/>
<rect x="428" y="59" width="19" height="7" fill="white"/>
<rect x="44" y="56" width="40" height="13" fill="white"/>
<rect x="23" y="32" width="487" height="239" fill="#E0E0E0"/>
<g filter="url(#filter6_d)">
<rect x="20" y="20" width="493" height="255" rx="5" fill="white"/>
<rect x="20.1" y="20.1" width="492.8" height="254.8" rx="4.9" stroke="black" stroke-width="0.2"/>
</g>
<circle r="2.21538" transform="matrix(1 0 0 -1 31.2154 26.2154)" fill="#FF0000"/>
<circle r="2.21538" transform="matrix(1 0 0 -1 37 26.2154)" fill="#FFAE35"/>
<circle r="2.21538" transform="matrix(1 0 0 -1 42.7846 26.2154)" fill="#04B500"/>
<path d="M240.793 25.6782C240.994 25.4325 241.254 25.3096 241.575 25.3096C242.133 25.3096 242.415 25.6245 242.419 26.2544V28H241.968V26.252C241.966 26.0615 241.922 25.9207 241.836 25.8296C241.751 25.7384 241.619 25.6929 241.438 25.6929C241.292 25.6929 241.163 25.7319 241.052 25.8101C240.942 25.8882 240.855 25.9907 240.793 26.1177V28H240.342V24.25H240.793V25.6782ZM243.708 24.7188V25.3584H244.202V25.7075H243.708V27.3457C243.708 27.4515 243.73 27.5312 243.774 27.585C243.818 27.637 243.893 27.6631 243.999 27.6631C244.051 27.6631 244.123 27.6533 244.214 27.6338V28C244.095 28.0326 243.979 28.0488 243.867 28.0488C243.665 28.0488 243.513 27.9878 243.411 27.8657C243.308 27.7437 243.257 27.5703 243.257 27.3457V25.7075H242.776V25.3584H243.257V24.7188H243.708ZM245.344 24.7188V25.3584H245.837V25.7075H245.344V27.3457C245.344 27.4515 245.366 27.5312 245.41 27.585C245.454 27.637 245.529 27.6631 245.635 27.6631C245.687 27.6631 245.758 27.6533 245.85 27.6338V28C245.731 28.0326 245.615 28.0488 245.503 28.0488C245.301 28.0488 245.149 27.9878 245.046 27.8657C244.944 27.7437 244.893 27.5703 244.893 27.3457V25.7075H244.412V25.3584H244.893V24.7188H245.344ZM248.599 26.7085C248.599 27.1105 248.507 27.4344 248.323 27.6802C248.139 27.9259 247.89 28.0488 247.576 28.0488C247.255 28.0488 247.003 27.9471 246.819 27.7437V29.0156H246.367V25.3584H246.78L246.802 25.6514C246.986 25.4235 247.241 25.3096 247.568 25.3096C247.886 25.3096 248.136 25.4292 248.32 25.6685C248.506 25.9077 248.599 26.2406 248.599 26.667V26.7085ZM248.147 26.6572C248.147 26.3594 248.083 26.1242 247.957 25.9517C247.83 25.7791 247.655 25.6929 247.434 25.6929C247.161 25.6929 246.956 25.8141 246.819 26.0566V27.3188C246.954 27.5597 247.161 27.6802 247.439 27.6802C247.655 27.6802 247.827 27.5947 247.954 27.4238C248.083 27.2513 248.147 26.9958 248.147 26.6572ZM250.713 27.2993C250.713 27.1772 250.667 27.0828 250.574 27.0161C250.483 26.9478 250.322 26.8892 250.093 26.8403C249.865 26.7915 249.683 26.7329 249.548 26.6646C249.415 26.5962 249.316 26.5148 249.25 26.4204C249.187 26.326 249.155 26.2137 249.155 26.0835C249.155 25.867 249.246 25.6839 249.429 25.5342C249.613 25.3844 249.847 25.3096 250.132 25.3096C250.431 25.3096 250.674 25.3869 250.859 25.5415C251.047 25.6961 251.14 25.8939 251.14 26.1348H250.686C250.686 26.0111 250.633 25.9045 250.527 25.8149C250.423 25.7254 250.291 25.6807 250.132 25.6807C249.967 25.6807 249.839 25.7165 249.746 25.7881C249.653 25.8597 249.607 25.9533 249.607 26.0688C249.607 26.1779 249.65 26.2601 249.736 26.3154C249.823 26.3708 249.978 26.4237 250.203 26.4741C250.429 26.5246 250.612 26.5848 250.752 26.6548C250.892 26.7248 250.995 26.8094 251.062 26.9087C251.13 27.0063 251.165 27.126 251.165 27.2676C251.165 27.5036 251.07 27.6932 250.881 27.8364C250.693 27.978 250.448 28.0488 250.146 28.0488C249.935 28.0488 249.748 28.0114 249.585 27.9365C249.422 27.8617 249.294 27.7575 249.202 27.624C249.111 27.4889 249.065 27.3433 249.065 27.187H249.517C249.525 27.3384 249.585 27.4588 249.697 27.5483C249.811 27.6362 249.961 27.6802 250.146 27.6802C250.317 27.6802 250.454 27.646 250.557 27.5776C250.661 27.5076 250.713 27.4149 250.713 27.2993ZM251.738 27.7632C251.738 27.6851 251.761 27.62 251.807 27.5679C251.854 27.5158 251.924 27.4897 252.017 27.4897C252.109 27.4897 252.179 27.5158 252.227 27.5679C252.275 27.62 252.3 27.6851 252.3 27.7632C252.3 27.8381 252.275 27.9007 252.227 27.9512C252.179 28.0016 252.109 28.0269 252.017 28.0269C251.924 28.0269 251.854 28.0016 251.807 27.9512C251.761 27.9007 251.738 27.8381 251.738 27.7632ZM251.741 25.6074C251.741 25.5293 251.764 25.4642 251.809 25.4121C251.856 25.36 251.926 25.334 252.019 25.334C252.112 25.334 252.182 25.36 252.229 25.4121C252.278 25.4642 252.302 25.5293 252.302 25.6074C252.302 25.6823 252.278 25.745 252.229 25.7954C252.182 25.8459 252.112 25.8711 252.019 25.8711C251.926 25.8711 251.856 25.8459 251.809 25.7954C251.764 25.745 251.741 25.6823 251.741 25.6074ZM253.054 28.3052H252.666L254.15 24.4453H254.536L253.054 28.3052ZM254.568 28.3052H254.18L255.664 24.4453H256.05L254.568 28.3052ZM258.076 27.2993C258.076 27.1772 258.03 27.0828 257.937 27.0161C257.846 26.9478 257.686 26.8892 257.456 26.8403C257.228 26.7915 257.047 26.7329 256.912 26.6646C256.778 26.5962 256.679 26.5148 256.614 26.4204C256.55 26.326 256.519 26.2137 256.519 26.0835C256.519 25.867 256.61 25.6839 256.792 25.5342C256.976 25.3844 257.21 25.3096 257.495 25.3096C257.795 25.3096 258.037 25.3869 258.223 25.5415C258.41 25.6961 258.503 25.8939 258.503 26.1348H258.049C258.049 26.0111 257.996 25.9045 257.891 25.8149C257.786 25.7254 257.655 25.6807 257.495 25.6807C257.331 25.6807 257.202 25.7165 257.109 25.7881C257.017 25.8597 256.97 25.9533 256.97 26.0688C256.97 26.1779 257.013 26.2601 257.1 26.3154C257.186 26.3708 257.341 26.4237 257.566 26.4741C257.792 26.5246 257.975 26.5848 258.115 26.6548C258.255 26.7248 258.359 26.8094 258.425 26.9087C258.494 27.0063 258.528 27.126 258.528 27.2676C258.528 27.5036 258.433 27.6932 258.245 27.8364C258.056 27.978 257.811 28.0488 257.51 28.0488C257.298 28.0488 257.111 28.0114 256.948 27.9365C256.785 27.8617 256.658 27.7575 256.565 27.624C256.474 27.4889 256.428 27.3433 256.428 27.187H256.88C256.888 27.3384 256.948 27.4588 257.061 27.5483C257.174 27.6362 257.324 27.6802 257.51 27.6802C257.681 27.6802 257.817 27.646 257.92 27.5776C258.024 27.5076 258.076 27.4149 258.076 27.2993ZM260.747 27.7388C260.571 27.9455 260.313 28.0488 259.973 28.0488C259.692 28.0488 259.477 27.9674 259.329 27.8047C259.182 27.6403 259.108 27.3978 259.106 27.0771V25.3584H259.558V27.0649C259.558 27.4653 259.721 27.6655 260.046 27.6655C260.391 27.6655 260.621 27.5369 260.735 27.2798V25.3584H261.187V28H260.757L260.747 27.7388ZM263.152 25.7637C263.083 25.7523 263.009 25.7466 262.93 25.7466C262.633 25.7466 262.432 25.8727 262.327 26.125V28H261.875V25.3584H262.314L262.322 25.6636C262.47 25.4276 262.68 25.3096 262.952 25.3096C263.04 25.3096 263.106 25.321 263.152 25.3438V25.7637ZM264.485 27.3872L265.139 25.3584H265.601L264.653 28H264.309L263.352 25.3584H263.813L264.485 27.3872ZM267.097 28.0488C266.739 28.0488 266.448 27.9316 266.223 27.6973C265.999 27.4613 265.886 27.1463 265.886 26.7524V26.6694C265.886 26.4074 265.936 26.1738 266.035 25.9688C266.136 25.762 266.276 25.6009 266.455 25.4854C266.636 25.3682 266.831 25.3096 267.041 25.3096C267.384 25.3096 267.651 25.4227 267.842 25.6489C268.032 25.8752 268.127 26.1991 268.127 26.6206V26.8086H266.338C266.344 27.069 266.42 27.2798 266.565 27.4409C266.711 27.6004 266.897 27.6802 267.122 27.6802C267.281 27.6802 267.416 27.6476 267.527 27.5825C267.638 27.5174 267.734 27.4312 267.817 27.3237L268.093 27.5386C267.872 27.8787 267.54 28.0488 267.097 28.0488ZM267.041 25.6807C266.859 25.6807 266.706 25.7474 266.582 25.8809C266.458 26.0127 266.382 26.1982 266.353 26.4375H267.676V26.4033C267.663 26.1738 267.601 25.9964 267.49 25.8711C267.38 25.7441 267.23 25.6807 267.041 25.6807ZM269.482 27.3384L270.098 25.3584H270.581L269.519 28.4077C269.355 28.8472 269.093 29.0669 268.735 29.0669L268.65 29.0596L268.481 29.0278V28.6616L268.604 28.6714C268.757 28.6714 268.875 28.6405 268.96 28.5786C269.046 28.5168 269.117 28.4036 269.172 28.2393L269.272 27.9707L268.33 25.3584H268.823L269.482 27.3384ZM272.578 28C272.552 27.9479 272.531 27.8551 272.515 27.7217C272.305 27.9398 272.054 28.0488 271.763 28.0488C271.502 28.0488 271.288 27.9756 271.121 27.8291C270.955 27.681 270.872 27.4938 270.872 27.2676C270.872 26.9925 270.976 26.7793 271.184 26.6279C271.394 26.4749 271.689 26.3984 272.068 26.3984H272.507V26.1909C272.507 26.033 272.46 25.9077 272.366 25.8149C272.271 25.7205 272.132 25.6733 271.948 25.6733C271.787 25.6733 271.652 25.714 271.543 25.7954C271.434 25.8768 271.379 25.9753 271.379 26.0908H270.925C270.925 25.959 270.972 25.832 271.064 25.71C271.159 25.5863 271.286 25.4886 271.445 25.417C271.606 25.3454 271.783 25.3096 271.975 25.3096C272.279 25.3096 272.518 25.3861 272.69 25.5391C272.863 25.6904 272.952 25.8996 272.959 26.1665V27.3823C272.959 27.6248 272.99 27.8177 273.052 27.9609V28H272.578ZM271.829 27.6558C271.97 27.6558 272.104 27.6191 272.231 27.5459C272.358 27.4727 272.45 27.3774 272.507 27.2603V26.7183H272.153C271.6 26.7183 271.323 26.8802 271.323 27.2041C271.323 27.3457 271.37 27.4564 271.465 27.5361C271.559 27.6159 271.681 27.6558 271.829 27.6558ZM275.898 26.7085C275.898 27.1105 275.806 27.4344 275.623 27.6802C275.439 27.9259 275.19 28.0488 274.875 28.0488C274.555 28.0488 274.303 27.9471 274.119 27.7437V29.0156H273.667V25.3584H274.08L274.102 25.6514C274.285 25.4235 274.541 25.3096 274.868 25.3096C275.186 25.3096 275.436 25.4292 275.62 25.6685C275.806 25.9077 275.898 26.2406 275.898 26.667V26.7085ZM275.447 26.6572C275.447 26.3594 275.383 26.1242 275.256 25.9517C275.129 25.7791 274.955 25.6929 274.734 25.6929C274.46 25.6929 274.255 25.8141 274.119 26.0566V27.3188C274.254 27.5597 274.46 27.6802 274.739 27.6802C274.955 27.6802 275.127 27.5947 275.254 27.4238C275.382 27.2513 275.447 26.9958 275.447 26.6572ZM278.706 26.7085C278.706 27.1105 278.614 27.4344 278.43 27.6802C278.246 27.9259 277.997 28.0488 277.683 28.0488C277.362 28.0488 277.11 27.9471 276.926 27.7437V29.0156H276.475V25.3584H276.887L276.909 25.6514C277.093 25.4235 277.349 25.3096 277.676 25.3096C277.993 25.3096 278.244 25.4292 278.428 25.6685C278.613 25.9077 278.706 26.2406 278.706 26.667V26.7085ZM278.254 26.6572C278.254 26.3594 278.191 26.1242 278.064 25.9517C277.937 25.7791 277.763 25.6929 277.542 25.6929C277.268 25.6929 277.063 25.8141 276.926 26.0566V27.3188C277.061 27.5597 277.268 27.6802 277.546 27.6802C277.763 27.6802 277.935 27.5947 278.062 27.4238C278.19 27.2513 278.254 26.9958 278.254 26.6572ZM279.292 27.7632C279.292 27.6851 279.315 27.62 279.36 27.5679C279.408 27.5158 279.478 27.4897 279.57 27.4897C279.663 27.4897 279.733 27.5158 279.78 27.5679C279.829 27.62 279.854 27.6851 279.854 27.7632C279.854 27.8381 279.829 27.9007 279.78 27.9512C279.733 28.0016 279.663 28.0269 279.57 28.0269C279.478 28.0269 279.408 28.0016 279.36 27.9512C279.315 27.9007 279.292 27.8381 279.292 27.7632ZM281.66 27.6802C281.821 27.6802 281.962 27.6313 282.083 27.5337C282.203 27.436 282.27 27.314 282.283 27.1675H282.71C282.702 27.3188 282.65 27.4629 282.554 27.5996C282.458 27.7363 282.329 27.8454 282.168 27.9268C282.008 28.0081 281.839 28.0488 281.66 28.0488C281.3 28.0488 281.014 27.9292 280.801 27.6899C280.589 27.4491 280.483 27.1203 280.483 26.7036V26.6279C280.483 26.3708 280.531 26.1421 280.625 25.9419C280.719 25.7417 280.854 25.5863 281.03 25.4756C281.208 25.3649 281.417 25.3096 281.658 25.3096C281.954 25.3096 282.2 25.3983 282.395 25.5757C282.592 25.7531 282.697 25.9834 282.71 26.2666H282.283C282.27 26.0957 282.205 25.9557 282.087 25.8467C281.972 25.736 281.829 25.6807 281.658 25.6807C281.428 25.6807 281.25 25.7637 281.123 25.9297C280.998 26.0941 280.935 26.3325 280.935 26.645V26.7305C280.935 27.0348 280.998 27.2692 281.123 27.4336C281.248 27.598 281.427 27.6802 281.66 27.6802ZM283.098 26.6548C283.098 26.396 283.149 26.1632 283.25 25.9565C283.352 25.7498 283.494 25.5903 283.674 25.478C283.857 25.3657 284.064 25.3096 284.297 25.3096C284.657 25.3096 284.947 25.4341 285.168 25.6831C285.391 25.9321 285.503 26.2633 285.503 26.6768V26.7085C285.503 26.9657 285.453 27.1968 285.354 27.4019C285.256 27.6053 285.116 27.764 284.932 27.8779C284.749 27.9919 284.539 28.0488 284.302 28.0488C283.944 28.0488 283.653 27.9243 283.43 27.6753C283.209 27.4263 283.098 27.0967 283.098 26.6865V26.6548ZM283.552 26.7085C283.552 27.0015 283.62 27.2367 283.755 27.4141C283.892 27.5915 284.074 27.6802 284.302 27.6802C284.531 27.6802 284.714 27.5907 284.849 27.4116C284.984 27.231 285.051 26.9787 285.051 26.6548C285.051 26.3651 284.982 26.1307 284.844 25.9517C284.707 25.771 284.525 25.6807 284.297 25.6807C284.074 25.6807 283.894 25.7694 283.757 25.9468C283.621 26.1242 283.552 26.3781 283.552 26.7085ZM286.494 25.3584L286.506 25.6514C286.7 25.4235 286.961 25.3096 287.29 25.3096C287.66 25.3096 287.911 25.4512 288.044 25.7344C288.132 25.6074 288.246 25.5049 288.386 25.4268C288.528 25.3486 288.695 25.3096 288.887 25.3096C289.466 25.3096 289.761 25.6164 289.771 26.23V28H289.319V26.2568C289.319 26.068 289.276 25.9272 289.189 25.8345C289.103 25.7401 288.958 25.6929 288.755 25.6929C288.587 25.6929 288.448 25.7433 288.337 25.8442C288.227 25.9435 288.162 26.0778 288.145 26.2471V28H287.69V26.269C287.69 25.8849 287.502 25.6929 287.126 25.6929C286.83 25.6929 286.628 25.819 286.519 26.0713V28H286.067V25.3584H286.494Z" fill="black"/>
<rect x="23" y="32" width="487" height="23" fill="#1E50D1"/>
<g filter="url(#filter7_d)">
<rect x="50" y="68" width="73" height="16" fill="white"/>
</g>
<g filter="url(#filter8_d)">
<rect x="50" y="93" width="402" height="54" fill="white"/>
</g>
<g filter="url(#filter9_d)">
<rect x="50" y="157" width="402" height="54" fill="white"/>
</g>
<g filter="url(#filter10_d)">
<rect x="50" y="220" width="402" height="47" fill="white"/>
</g>
<g filter="url(#filter11_d)">
<rect x="462" y="93" width="16" height="39" fill="white"/>
</g>
<rect x="61" y="100" width="184" height="10" fill="#C4C4C4"/>
<rect x="61" y="163" width="184" height="10" fill="#C4C4C4"/>
<rect x="61" y="223" width="184" height="10" fill="#C4C4C4"/>
<rect x="61" y="180" width="56" height="10" fill="#C4C4C4"/>
<rect x="61" y="240" width="56" height="10" fill="#C4C4C4"/>
<rect x="61" y="194" width="56" height="10" fill="#C4C4C4"/>
<rect x="61" y="254" width="56" height="10" fill="#C4C4C4"/>
<rect x="61" y="117" width="377" height="5" fill="#C4C4C4"/>
<rect x="61" y="125" width="377" height="5" fill="#C4C4C4"/>
<rect x="61" y="133" width="377" height="5" fill="#C4C4C4"/>
<circle cx="123.5" cy="185.5" r="2.5" fill="#C4C4C4"/>
<circle cx="469.5" cy="102.5" r="2.5" fill="#C4C4C4"/>
<circle cx="469.5" cy="112.5" r="2.5" fill="#C4C4C4"/>
<circle cx="469.5" cy="122.5" r="2.5" fill="#C4C4C4"/>
<circle cx="123.5" cy="245.5" r="2.5" fill="#C4C4C4"/>
<circle cx="123.5" cy="198.5" r="2.5" fill="#C4C4C4"/>
<circle cx="123.5" cy="258.5" r="2.5" fill="#C4C4C4"/>
<rect x="61" y="72" width="17" height="8" fill="#C4C4C4"/>
<rect x="86" y="72" width="17" height="8" fill="#C4C4C4"/>
<rect x="487" y="34" width="19" height="19" fill="white"/>
<rect x="462" y="40" width="19" height="7" fill="white"/>
<rect x="437" y="40" width="19" height="7" fill="white"/>
<rect x="412" y="40" width="19" height="7" fill="white"/>
<rect x="28" y="37" width="40" height="13" fill="white"/>
<rect x="7" y="12" width="487" height="239" fill="#E0E0E0"/>
<g filter="url(#filter12_d)">
<rect x="4" width="493" height="255" rx="5" fill="white"/>
<rect x="4.1" y="0.1" width="492.8" height="254.8" rx="4.9" stroke="black" stroke-width="0.2"/>
</g>
<circle r="2.21538" transform="matrix(1 0 0 -1 15.2154 6.21539)" fill="#FF0000"/>
<circle r="2.21538" transform="matrix(1 0 0 -1 21 6.21539)" fill="#FFAE35"/>
<circle r="2.21538" transform="matrix(1 0 0 -1 26.7846 6.21539)" fill="#04B500"/>
<path d="M224.793 5.67822C224.994 5.43245 225.254 5.30957 225.575 5.30957C226.133 5.30957 226.415 5.62451 226.419 6.25439V8H225.968V6.25195C225.966 6.06152 225.922 5.92074 225.836 5.82959C225.751 5.73844 225.619 5.69287 225.438 5.69287C225.292 5.69287 225.163 5.73193 225.052 5.81006C224.942 5.88818 224.855 5.99072 224.793 6.11768V8H224.342V4.25H224.793V5.67822ZM227.708 4.71875V5.3584H228.202V5.70752H227.708V7.3457C227.708 7.4515 227.73 7.53125 227.774 7.58496C227.818 7.63704 227.893 7.66309 227.999 7.66309C228.051 7.66309 228.123 7.65332 228.214 7.63379V8C228.095 8.03255 227.979 8.04883 227.867 8.04883C227.665 8.04883 227.513 7.98779 227.411 7.86572C227.308 7.74365 227.257 7.57031 227.257 7.3457V5.70752H226.776V5.3584H227.257V4.71875H227.708ZM229.344 4.71875V5.3584H229.837V5.70752H229.344V7.3457C229.344 7.4515 229.366 7.53125 229.41 7.58496C229.454 7.63704 229.529 7.66309 229.635 7.66309C229.687 7.66309 229.758 7.65332 229.85 7.63379V8C229.731 8.03255 229.615 8.04883 229.503 8.04883C229.301 8.04883 229.149 7.98779 229.046 7.86572C228.944 7.74365 228.893 7.57031 228.893 7.3457V5.70752H228.412V5.3584H228.893V4.71875H229.344ZM232.599 6.7085C232.599 7.11051 232.507 7.43441 232.323 7.68018C232.139 7.92594 231.89 8.04883 231.576 8.04883C231.255 8.04883 231.003 7.9471 230.819 7.74365V9.01562H230.367V5.3584H230.78L230.802 5.65137C230.986 5.4235 231.241 5.30957 231.568 5.30957C231.886 5.30957 232.136 5.4292 232.32 5.66846C232.506 5.90771 232.599 6.24056 232.599 6.66699V6.7085ZM232.147 6.65723C232.147 6.35938 232.083 6.12419 231.957 5.95166C231.83 5.77913 231.655 5.69287 231.434 5.69287C231.161 5.69287 230.956 5.81413 230.819 6.05664V7.31885C230.954 7.55973 231.161 7.68018 231.439 7.68018C231.655 7.68018 231.827 7.59473 231.954 7.42383C232.083 7.2513 232.147 6.99577 232.147 6.65723ZM234.713 7.29932C234.713 7.17725 234.667 7.08285 234.574 7.01611C234.483 6.94775 234.322 6.88916 234.093 6.84033C233.865 6.7915 233.683 6.73291 233.548 6.66455C233.415 6.59619 233.316 6.51481 233.25 6.42041C233.187 6.32601 233.155 6.2137 233.155 6.0835C233.155 5.86702 233.246 5.68392 233.429 5.53418C233.613 5.38444 233.847 5.30957 234.132 5.30957C234.431 5.30957 234.674 5.38688 234.859 5.5415C235.047 5.69613 235.14 5.89388 235.14 6.13477H234.686C234.686 6.01107 234.633 5.90446 234.527 5.81494C234.423 5.72542 234.291 5.68066 234.132 5.68066C233.967 5.68066 233.839 5.71647 233.746 5.78809C233.653 5.8597 233.607 5.95329 233.607 6.06885C233.607 6.1779 233.65 6.26009 233.736 6.31543C233.823 6.37077 233.978 6.42367 234.203 6.47412C234.429 6.52458 234.612 6.5848 234.752 6.65479C234.892 6.72477 234.995 6.80941 235.062 6.90869C235.13 7.00635 235.165 7.12598 235.165 7.26758C235.165 7.50358 235.07 7.6932 234.881 7.83643C234.693 7.97803 234.448 8.04883 234.146 8.04883C233.935 8.04883 233.748 8.01139 233.585 7.93652C233.422 7.86165 233.294 7.75749 233.202 7.62402C233.111 7.48893 233.065 7.34326 233.065 7.18701H233.517C233.525 7.33838 233.585 7.45882 233.697 7.54834C233.811 7.63623 233.961 7.68018 234.146 7.68018C234.317 7.68018 234.454 7.646 234.557 7.57764C234.661 7.50765 234.713 7.41488 234.713 7.29932ZM235.738 7.76318C235.738 7.68506 235.761 7.61995 235.807 7.56787C235.854 7.51579 235.924 7.48975 236.017 7.48975C236.109 7.48975 236.179 7.51579 236.227 7.56787C236.275 7.61995 236.3 7.68506 236.3 7.76318C236.3 7.83805 236.275 7.90072 236.227 7.95117C236.179 8.00163 236.109 8.02686 236.017 8.02686C235.924 8.02686 235.854 8.00163 235.807 7.95117C235.761 7.90072 235.738 7.83805 235.738 7.76318ZM235.741 5.60742C235.741 5.5293 235.764 5.46419 235.809 5.41211C235.856 5.36003 235.926 5.33398 236.019 5.33398C236.112 5.33398 236.182 5.36003 236.229 5.41211C236.278 5.46419 236.302 5.5293 236.302 5.60742C236.302 5.68229 236.278 5.74495 236.229 5.79541C236.182 5.84587 236.112 5.87109 236.019 5.87109C235.926 5.87109 235.856 5.84587 235.809 5.79541C235.764 5.74495 235.741 5.68229 235.741 5.60742ZM237.054 8.30518H236.666L238.15 4.44531H238.536L237.054 8.30518ZM238.568 8.30518H238.18L239.664 4.44531H240.05L238.568 8.30518ZM242.076 7.29932C242.076 7.17725 242.03 7.08285 241.937 7.01611C241.846 6.94775 241.686 6.88916 241.456 6.84033C241.228 6.7915 241.047 6.73291 240.912 6.66455C240.778 6.59619 240.679 6.51481 240.614 6.42041C240.55 6.32601 240.519 6.2137 240.519 6.0835C240.519 5.86702 240.61 5.68392 240.792 5.53418C240.976 5.38444 241.21 5.30957 241.495 5.30957C241.795 5.30957 242.037 5.38688 242.223 5.5415C242.41 5.69613 242.503 5.89388 242.503 6.13477H242.049C242.049 6.01107 241.996 5.90446 241.891 5.81494C241.786 5.72542 241.655 5.68066 241.495 5.68066C241.331 5.68066 241.202 5.71647 241.109 5.78809C241.017 5.8597 240.97 5.95329 240.97 6.06885C240.97 6.1779 241.013 6.26009 241.1 6.31543C241.186 6.37077 241.341 6.42367 241.566 6.47412C241.792 6.52458 241.975 6.5848 242.115 6.65479C242.255 6.72477 242.359 6.80941 242.425 6.90869C242.494 7.00635 242.528 7.12598 242.528 7.26758C242.528 7.50358 242.433 7.6932 242.245 7.83643C242.056 7.97803 241.811 8.04883 241.51 8.04883C241.298 8.04883 241.111 8.01139 240.948 7.93652C240.785 7.86165 240.658 7.75749 240.565 7.62402C240.474 7.48893 240.428 7.34326 240.428 7.18701H240.88C240.888 7.33838 240.948 7.45882 241.061 7.54834C241.174 7.63623 241.324 7.68018 241.51 7.68018C241.681 7.68018 241.817 7.646 241.92 7.57764C242.024 7.50765 242.076 7.41488 242.076 7.29932ZM244.747 7.73877C244.571 7.94548 244.313 8.04883 243.973 8.04883C243.692 8.04883 243.477 7.96745 243.329 7.80469C243.182 7.6403 243.108 7.39779 243.106 7.07715V5.3584H243.558V7.06494C243.558 7.46533 243.721 7.66553 244.046 7.66553C244.391 7.66553 244.621 7.53695 244.735 7.27979V5.3584H245.187V8H244.757L244.747 7.73877ZM247.152 5.76367C247.083 5.75228 247.009 5.74658 246.93 5.74658C246.633 5.74658 246.432 5.87272 246.327 6.125V8H245.875V5.3584H246.314L246.322 5.66357C246.47 5.42757 246.68 5.30957 246.952 5.30957C247.04 5.30957 247.106 5.32096 247.152 5.34375V5.76367ZM248.485 7.38721L249.139 5.3584H249.601L248.653 8H248.309L247.352 5.3584H247.813L248.485 7.38721ZM251.097 8.04883C250.739 8.04883 250.448 7.93164 250.223 7.69727C249.999 7.46126 249.886 7.14632 249.886 6.75244V6.66943C249.886 6.40739 249.936 6.17383 250.035 5.96875C250.136 5.76204 250.276 5.60091 250.455 5.48535C250.636 5.36816 250.831 5.30957 251.041 5.30957C251.384 5.30957 251.651 5.42269 251.842 5.64893C252.032 5.87516 252.127 6.19906 252.127 6.62061V6.80859H250.338C250.344 7.06901 250.42 7.27979 250.565 7.44092C250.711 7.60042 250.897 7.68018 251.122 7.68018C251.281 7.68018 251.416 7.64762 251.527 7.58252C251.638 7.51742 251.734 7.43115 251.817 7.32373L252.093 7.53857C251.872 7.87874 251.54 8.04883 251.097 8.04883ZM251.041 5.68066C250.859 5.68066 250.706 5.7474 250.582 5.88086C250.458 6.0127 250.382 6.19824 250.353 6.4375H251.676V6.40332C251.663 6.17383 251.601 5.99642 251.49 5.87109C251.38 5.74414 251.23 5.68066 251.041 5.68066ZM253.482 7.33838L254.098 5.3584H254.581L253.519 8.40771C253.355 8.84717 253.093 9.06689 252.735 9.06689L252.65 9.05957L252.481 9.02783V8.66162L252.604 8.67139C252.757 8.67139 252.875 8.64046 252.96 8.57861C253.046 8.51676 253.117 8.40365 253.172 8.23926L253.272 7.9707L252.33 5.3584H252.823L253.482 7.33838ZM256.578 8C256.552 7.94792 256.531 7.85514 256.515 7.72168C256.305 7.93978 256.054 8.04883 255.763 8.04883C255.502 8.04883 255.288 7.97559 255.121 7.8291C254.955 7.68099 254.872 7.49382 254.872 7.26758C254.872 6.99251 254.976 6.7793 255.184 6.62793C255.394 6.47493 255.689 6.39844 256.068 6.39844H256.507V6.19092C256.507 6.03304 256.46 5.90771 256.366 5.81494C256.271 5.72054 256.132 5.67334 255.948 5.67334C255.787 5.67334 255.652 5.71403 255.543 5.79541C255.434 5.87679 255.379 5.97526 255.379 6.09082H254.925C254.925 5.95898 254.972 5.83203 255.064 5.70996C255.159 5.58626 255.286 5.48861 255.445 5.41699C255.606 5.34538 255.783 5.30957 255.975 5.30957C256.279 5.30957 256.518 5.38607 256.69 5.53906C256.863 5.69043 256.952 5.89958 256.959 6.1665V7.38232C256.959 7.62484 256.99 7.81771 257.052 7.96094V8H256.578ZM255.829 7.65576C255.97 7.65576 256.104 7.61914 256.231 7.5459C256.358 7.47266 256.45 7.37744 256.507 7.26025V6.71826H256.153C255.6 6.71826 255.323 6.88021 255.323 7.2041C255.323 7.3457 255.37 7.45638 255.465 7.53613C255.559 7.61589 255.681 7.65576 255.829 7.65576ZM259.898 6.7085C259.898 7.11051 259.806 7.43441 259.623 7.68018C259.439 7.92594 259.19 8.04883 258.875 8.04883C258.555 8.04883 258.303 7.9471 258.119 7.74365V9.01562H257.667V5.3584H258.08L258.102 5.65137C258.285 5.4235 258.541 5.30957 258.868 5.30957C259.186 5.30957 259.436 5.4292 259.62 5.66846C259.806 5.90771 259.898 6.24056 259.898 6.66699V6.7085ZM259.447 6.65723C259.447 6.35938 259.383 6.12419 259.256 5.95166C259.129 5.77913 258.955 5.69287 258.734 5.69287C258.46 5.69287 258.255 5.81413 258.119 6.05664V7.31885C258.254 7.55973 258.46 7.68018 258.739 7.68018C258.955 7.68018 259.127 7.59473 259.254 7.42383C259.382 7.2513 259.447 6.99577 259.447 6.65723ZM262.706 6.7085C262.706 7.11051 262.614 7.43441 262.43 7.68018C262.246 7.92594 261.997 8.04883 261.683 8.04883C261.362 8.04883 261.11 7.9471 260.926 7.74365V9.01562H260.475V5.3584H260.887L260.909 5.65137C261.093 5.4235 261.349 5.30957 261.676 5.30957C261.993 5.30957 262.244 5.4292 262.428 5.66846C262.613 5.90771 262.706 6.24056 262.706 6.66699V6.7085ZM262.254 6.65723C262.254 6.35938 262.191 6.12419 262.064 5.95166C261.937 5.77913 261.763 5.69287 261.542 5.69287C261.268 5.69287 261.063 5.81413 260.926 6.05664V7.31885C261.061 7.55973 261.268 7.68018 261.546 7.68018C261.763 7.68018 261.935 7.59473 262.062 7.42383C262.19 7.2513 262.254 6.99577 262.254 6.65723ZM263.292 7.76318C263.292 7.68506 263.315 7.61995 263.36 7.56787C263.408 7.51579 263.478 7.48975 263.57 7.48975C263.663 7.48975 263.733 7.51579 263.78 7.56787C263.829 7.61995 263.854 7.68506 263.854 7.76318C263.854 7.83805 263.829 7.90072 263.78 7.95117C263.733 8.00163 263.663 8.02686 263.57 8.02686C263.478 8.02686 263.408 8.00163 263.36 7.95117C263.315 7.90072 263.292 7.83805 263.292 7.76318ZM265.66 7.68018C265.821 7.68018 265.962 7.63135 266.083 7.53369C266.203 7.43604 266.27 7.31396 266.283 7.16748H266.71C266.702 7.31885 266.65 7.46289 266.554 7.59961C266.458 7.73633 266.329 7.84538 266.168 7.92676C266.008 8.00814 265.839 8.04883 265.66 8.04883C265.3 8.04883 265.014 7.9292 264.801 7.68994C264.589 7.44906 264.483 7.12028 264.483 6.70361V6.62793C264.483 6.37077 264.531 6.14209 264.625 5.94189C264.719 5.7417 264.854 5.58626 265.03 5.47559C265.208 5.36491 265.417 5.30957 265.658 5.30957C265.954 5.30957 266.2 5.39827 266.395 5.57568C266.592 5.75309 266.697 5.9834 266.71 6.2666H266.283C266.27 6.0957 266.205 5.95573 266.087 5.84668C265.972 5.736 265.829 5.68066 265.658 5.68066C265.428 5.68066 265.25 5.76367 265.123 5.92969C264.998 6.09408 264.935 6.33252 264.935 6.64502V6.73047C264.935 7.03483 264.998 7.26921 265.123 7.43359C265.248 7.59798 265.427 7.68018 265.66 7.68018ZM267.098 6.65479C267.098 6.396 267.149 6.16325 267.25 5.95654C267.352 5.74984 267.494 5.59033 267.674 5.47803C267.857 5.36572 268.064 5.30957 268.297 5.30957C268.657 5.30957 268.947 5.43408 269.168 5.68311C269.391 5.93213 269.503 6.26335 269.503 6.67676V6.7085C269.503 6.96566 269.453 7.19678 269.354 7.40186C269.256 7.60531 269.116 7.764 268.932 7.87793C268.749 7.99186 268.539 8.04883 268.302 8.04883C267.944 8.04883 267.653 7.92432 267.43 7.67529C267.209 7.42627 267.098 7.09668 267.098 6.68652V6.65479ZM267.552 6.7085C267.552 7.00146 267.62 7.23665 267.755 7.41406C267.892 7.59147 268.074 7.68018 268.302 7.68018C268.531 7.68018 268.714 7.59066 268.849 7.41162C268.984 7.23096 269.051 6.97868 269.051 6.65479C269.051 6.36507 268.982 6.1307 268.844 5.95166C268.707 5.771 268.525 5.68066 268.297 5.68066C268.074 5.68066 267.894 5.76937 267.757 5.94678C267.621 6.12419 267.552 6.37809 267.552 6.7085ZM270.494 5.3584L270.506 5.65137C270.7 5.4235 270.961 5.30957 271.29 5.30957C271.66 5.30957 271.911 5.45117 272.044 5.73438C272.132 5.60742 272.246 5.50488 272.386 5.42676C272.528 5.34863 272.695 5.30957 272.887 5.30957C273.466 5.30957 273.761 5.61637 273.771 6.22998V8H273.319V6.25684C273.319 6.06803 273.276 5.92725 273.189 5.83447C273.103 5.74007 272.958 5.69287 272.755 5.69287C272.587 5.69287 272.448 5.74333 272.337 5.84424C272.227 5.94352 272.162 6.0778 272.145 6.24707V8H271.69V6.26904C271.69 5.88493 271.502 5.69287 271.126 5.69287C270.83 5.69287 270.628 5.81901 270.519 6.07129V8H270.067V5.3584H270.494Z" fill="black"/>
<rect x="7" y="12" width="487" height="23" fill="#1E50D1"/>
<g filter="url(#filter13_d)">
<rect x="34" y="48" width="73" height="16" fill="white"/>
</g>
<g filter="url(#filter14_d)">
<rect x="34" y="73" width="402" height="54" fill="white"/>
</g>
<g filter="url(#filter15_d)">
<rect x="34" y="137" width="402" height="54" fill="white"/>
</g>
<g filter="url(#filter16_d)">
<rect x="34" y="200" width="402" height="47" fill="white"/>
</g>
<g filter="url(#filter17_d)">
<rect x="446" y="73" width="16" height="39" fill="white"/>
</g>
<rect x="45" y="80" width="184" height="10" fill="#C4C4C4"/>
<rect x="45" y="143" width="184" height="10" fill="#C4C4C4"/>
<rect x="45" y="203" width="184" height="10" fill="#C4C4C4"/>
<rect x="45" y="160" width="56" height="10" fill="#C4C4C4"/>
<rect x="45" y="220" width="56" height="10" fill="#C4C4C4"/>
<rect x="45" y="174" width="56" height="10" fill="#C4C4C4"/>
<rect x="45" y="234" width="56" height="10" fill="#C4C4C4"/>
<rect x="45" y="97" width="377" height="5" fill="#C4C4C4"/>
<rect x="45" y="105" width="377" height="5" fill="#C4C4C4"/>
<rect x="45" y="113" width="377" height="5" fill="#C4C4C4"/>
<circle cx="107.5" cy="165.5" r="2.5" fill="#C4C4C4"/>
<circle cx="453.5" cy="82.5" r="2.5" fill="#C4C4C4"/>
<circle cx="453.5" cy="92.5" r="2.5" fill="#C4C4C4"/>
<circle cx="453.5" cy="102.5" r="2.5" fill="#C4C4C4"/>
<circle cx="107.5" cy="225.5" r="2.5" fill="#C4C4C4"/>
<circle cx="107.5" cy="178.5" r="2.5" fill="#C4C4C4"/>
<circle cx="107.5" cy="238.5" r="2.5" fill="#C4C4C4"/>
<rect x="45" y="52" width="17" height="8" fill="#C4C4C4"/>
<rect x="70" y="52" width="17" height="8" fill="#C4C4C4"/>
<rect x="471" y="14" width="19" height="19" fill="white"/>
<rect x="446" y="20" width="19" height="7" fill="white"/>
<rect x="421" y="20" width="19" height="7" fill="white"/>
<rect x="396" y="20" width="19" height="7" fill="white"/>
<rect x="12" y="17" width="40" height="13" fill="white"/>
<defs>
<filter id="filter0_d" x="32" y="39" width="501" height="263" filterUnits="userSpaceOnUse" color-interpolation-filters="sRGB">
<feFlood flood-opacity="0" result="BackgroundImageFix"/>
<feColorMatrix in="SourceAlpha" type="matrix" values="0 0 0 0 0 0 0 0 0 0 0 0 0 0 0 0 0 0 127 0"/>
<feOffset dy="4"/>
<feGaussianBlur stdDeviation="2"/>
<feColorMatrix type="matrix" values="0 0 0 0 0 0 0 0 0 0 0 0 0 0 0 0 0 0 0.25 0"/>
<feBlend mode="normal" in2="BackgroundImageFix" result="effect1_dropShadow"/>
<feBlend mode="normal" in="SourceGraphic" in2="effect1_dropShadow" result="shape"/>
</filter>
<filter id="filter1_d" x="62" y="87" width="81" height="24" filterUnits="userSpaceOnUse" color-interpolation-filters="sRGB">
<feFlood flood-opacity="0" result="BackgroundImageFix"/>
<feColorMatrix in="SourceAlpha" type="matrix" values="0 0 0 0 0 0 0 0 0 0 0 0 0 0 0 0 0 0 127 0"/>
<feOffset dy="4"/>
<feGaussianBlur stdDeviation="2"/>
<feColorMatrix type="matrix" values="0 0 0 0 0 0 0 0 0 0 0 0 0 0 0 0 0 0 0.15 0"/>
<feBlend mode="normal" in2="BackgroundImageFix" result="effect1_dropShadow"/>
<feBlend mode="normal" in="SourceGraphic" in2="effect1_dropShadow" result="shape"/>
</filter>
<filter id="filter2_d" x="62" y="112" width="410" height="62" filterUnits="userSpaceOnUse" color-interpolation-filters="sRGB">
<feFlood flood-opacity="0" result="BackgroundImageFix"/>
<feColorMatrix in="SourceAlpha" type="matrix" values="0 0 0 0 0 0 0 0 0 0 0 0 0 0 0 0 0 0 127 0"/>
<feOffset dy="4"/>
<feGaussianBlur stdDeviation="2"/>
<feColorMatrix type="matrix" values="0 0 0 0 0 0 0 0 0 0 0 0 0 0 0 0 0 0 0.15 0"/>
<feBlend mode="normal" in2="BackgroundImageFix" result="effect1_dropShadow"/>
<feBlend mode="normal" in="SourceGraphic" in2="effect1_dropShadow" result="shape"/>
</filter>
<filter id="filter3_d" x="62" y="176" width="410" height="62" filterUnits="userSpaceOnUse" color-interpolation-filters="sRGB">
<feFlood flood-opacity="0" result="BackgroundImageFix"/>
<feColorMatrix in="SourceAlpha" type="matrix" values="0 0 0 0 0 0 0 0 0 0 0 0 0 0 0 0 0 0 127 0"/>
<feOffset dy="4"/>
<feGaussianBlur stdDeviation="2"/>
<feColorMatrix type="matrix" values="0 0 0 0 0 0 0 0 0 0 0 0 0 0 0 0 0 0 0.15 0"/>
<feBlend mode="normal" in2="BackgroundImageFix" result="effect1_dropShadow"/>
<feBlend mode="normal" in="SourceGraphic" in2="effect1_dropShadow" result="shape"/>
</filter>
<filter id="filter4_d" x="62" y="239" width="410" height="55" filterUnits="userSpaceOnUse" color-interpolation-filters="sRGB">
<feFlood flood-opacity="0" result="BackgroundImageFix"/>
<feColorMatrix in="SourceAlpha" type="matrix" values="0 0 0 0 0 0 0 0 0 0 0 0 0 0 0 0 0 0 127 0"/>
<feOffset dy="4"/>
<feGaussianBlur stdDeviation="2"/>
<feColorMatrix type="matrix" values="0 0 0 0 0 0 0 0 0 0 0 0 0 0 0 0 0 0 0.15 0"/>
<feBlend mode="normal" in2="BackgroundImageFix" result="effect1_dropShadow"/>
<feBlend mode="normal" in="SourceGraphic" in2="effect1_dropShadow" result="shape"/>
</filter>
<filter id="filter5_d" x="474" y="112" width="24" height="47" filterUnits="userSpaceOnUse" color-interpolation-filters="sRGB">
<feFlood flood-opacity="0" result="BackgroundImageFix"/>
<feColorMatrix in="SourceAlpha" type="matrix" values="0 0 0 0 0 0 0 0 0 0 0 0 0 0 0 0 0 0 127 0"/>
<feOffset dy="4"/>
<feGaussianBlur stdDeviation="2"/>
<feColorMatrix type="matrix" values="0 0 0 0 0 0 0 0 0 0 0 0 0 0 0 0 0 0 0.15 0"/>
<feBlend mode="normal" in2="BackgroundImageFix" result="effect1_dropShadow"/>
<feBlend mode="normal" in="SourceGraphic" in2="effect1_dropShadow" result="shape"/>
</filter>
<filter id="filter6_d" x="16" y="20" width="501" height="263" filterUnits="userSpaceOnUse" color-interpolation-filters="sRGB">
<feFlood flood-opacity="0" result="BackgroundImageFix"/>
<feColorMatrix in="SourceAlpha" type="matrix" values="0 0 0 0 0 0 0 0 0 0 0 0 0 0 0 0 0 0 127 0"/>
<feOffset dy="4"/>
<feGaussianBlur stdDeviation="2"/>
<feColorMatrix type="matrix" values="0 0 0 0 0 0 0 0 0 0 0 0 0 0 0 0 0 0 0.25 0"/>
<feBlend mode="normal" in2="BackgroundImageFix" result="effect1_dropShadow"/>
<feBlend mode="normal" in="SourceGraphic" in2="effect1_dropShadow" result="shape"/>
</filter>
<filter id="filter7_d" x="46" y="68" width="81" height="24" filterUnits="userSpaceOnUse" color-interpolation-filters="sRGB">
<feFlood flood-opacity="0" result="BackgroundImageFix"/>
<feColorMatrix in="SourceAlpha" type="matrix" values="0 0 0 0 0 0 0 0 0 0 0 0 0 0 0 0 0 0 127 0"/>
<feOffset dy="4"/>
<feGaussianBlur stdDeviation="2"/>
<feColorMatrix type="matrix" values="0 0 0 0 0 0 0 0 0 0 0 0 0 0 0 0 0 0 0.15 0"/>
<feBlend mode="normal" in2="BackgroundImageFix" result="effect1_dropShadow"/>
<feBlend mode="normal" in="SourceGraphic" in2="effect1_dropShadow" result="shape"/>
</filter>
<filter id="filter8_d" x="46" y="93" width="410" height="62" filterUnits="userSpaceOnUse" color-interpolation-filters="sRGB">
<feFlood flood-opacity="0" result="BackgroundImageFix"/>
<feColorMatrix in="SourceAlpha" type="matrix" values="0 0 0 0 0 0 0 0 0 0 0 0 0 0 0 0 0 0 127 0"/>
<feOffset dy="4"/>
<feGaussianBlur stdDeviation="2"/>
<feColorMatrix type="matrix" values="0 0 0 0 0 0 0 0 0 0 0 0 0 0 0 0 0 0 0.15 0"/>
<feBlend mode="normal" in2="BackgroundImageFix" result="effect1_dropShadow"/>
<feBlend mode="normal" in="SourceGraphic" in2="effect1_dropShadow" result="shape"/>
</filter>
<filter id="filter9_d" x="46" y="157" width="410" height="62" filterUnits="userSpaceOnUse" color-interpolation-filters="sRGB">
<feFlood flood-opacity="0" result="BackgroundImageFix"/>
<feColorMatrix in="SourceAlpha" type="matrix" values="0 0 0 0 0 0 0 0 0 0 0 0 0 0 0 0 0 0 127 0"/>
<feOffset dy="4"/>
<feGaussianBlur stdDeviation="2"/>
<feColorMatrix type="matrix" values="0 0 0 0 0 0 0 0 0 0 0 0 0 0 0 0 0 0 0.15 0"/>
<feBlend mode="normal" in2="BackgroundImageFix" result="effect1_dropShadow"/>
<feBlend mode="normal" in="SourceGraphic" in2="effect1_dropShadow" result="shape"/>
</filter>
<filter id="filter10_d" x="46" y="220" width="410" height="55" filterUnits="userSpaceOnUse" color-interpolation-filters="sRGB">
<feFlood flood-opacity="0" result="BackgroundImageFix"/>
<feColorMatrix in="SourceAlpha" type="matrix" values="0 0 0 0 0 0 0 0 0 0 0 0 0 0 0 0 0 0 127 0"/>
<feOffset dy="4"/>
<feGaussianBlur stdDeviation="2"/>
<feColorMatrix type="matrix" values="0 0 0 0 0 0 0 0 0 0 0 0 0 0 0 0 0 0 0.15 0"/>
<feBlend mode="normal" in2="BackgroundImageFix" result="effect1_dropShadow"/>
<feBlend mode="normal" in="SourceGraphic" in2="effect1_dropShadow" result="shape"/>
</filter>
<filter id="filter11_d" x="458" y="93" width="24" height="47" filterUnits="userSpaceOnUse" color-interpolation-filters="sRGB">
<feFlood flood-opacity="0" result="BackgroundImageFix"/>
<feColorMatrix in="SourceAlpha" type="matrix" values="0 0 0 0 0 0 0 0 0 0 0 0 0 0 0 0 0 0 127 0"/>
<feOffset dy="4"/>
<feGaussianBlur stdDeviation="2"/>
<feColorMatrix type="matrix" values="0 0 0 0 0 0 0 0 0 0 0 0 0 0 0 0 0 0 0.15 0"/>
<feBlend mode="normal" in2="BackgroundImageFix" result="effect1_dropShadow"/>
<feBlend mode="normal" in="SourceGraphic" in2="effect1_dropShadow" result="shape"/>
</filter>
<filter id="filter12_d" x="0" y="0" width="501" height="263" filterUnits="userSpaceOnUse" color-interpolation-filters="sRGB">
<feFlood flood-opacity="0" result="BackgroundImageFix"/>
<feColorMatrix in="SourceAlpha" type="matrix" values="0 0 0 0 0 0 0 0 0 0 0 0 0 0 0 0 0 0 127 0"/>
<feOffset dy="4"/>
<feGaussianBlur stdDeviation="2"/>
<feColorMatrix type="matrix" values="0 0 0 0 0 0 0 0 0 0 0 0 0 0 0 0 0 0 0.25 0"/>
<feBlend mode="normal" in2="BackgroundImageFix" result="effect1_dropShadow"/>
<feBlend mode="normal" in="SourceGraphic" in2="effect1_dropShadow" result="shape"/>
</filter>
<filter id="filter13_d" x="30" y="48" width="81" height="24" filterUnits="userSpaceOnUse" color-interpolation-filters="sRGB">
<feFlood flood-opacity="0" result="BackgroundImageFix"/>
<feColorMatrix in="SourceAlpha" type="matrix" values="0 0 0 0 0 0 0 0 0 0 0 0 0 0 0 0 0 0 127 0"/>
<feOffset dy="4"/>
<feGaussianBlur stdDeviation="2"/>
<feColorMatrix type="matrix" values="0 0 0 0 0 0 0 0 0 0 0 0 0 0 0 0 0 0 0.15 0"/>
<feBlend mode="normal" in2="BackgroundImageFix" result="effect1_dropShadow"/>
<feBlend mode="normal" in="SourceGraphic" in2="effect1_dropShadow" result="shape"/>
</filter>
<filter id="filter14_d" x="30" y="73" width="410" height="62" filterUnits="userSpaceOnUse" color-interpolation-filters="sRGB">
<feFlood flood-opacity="0" result="BackgroundImageFix"/>
<feColorMatrix in="SourceAlpha" type="matrix" values="0 0 0 0 0 0 0 0 0 0 0 0 0 0 0 0 0 0 127 0"/>
<feOffset dy="4"/>
<feGaussianBlur stdDeviation="2"/>
<feColorMatrix type="matrix" values="0 0 0 0 0 0 0 0 0 0 0 0 0 0 0 0 0 0 0.15 0"/>
<feBlend mode="normal" in2="BackgroundImageFix" result="effect1_dropShadow"/>
<feBlend mode="normal" in="SourceGraphic" in2="effect1_dropShadow" result="shape"/>
</filter>
<filter id="filter15_d" x="30" y="137" width="410" height="62" filterUnits="userSpaceOnUse" color-interpolation-filters="sRGB">
<feFlood flood-opacity="0" result="BackgroundImageFix"/>
<feColorMatrix in="SourceAlpha" type="matrix" values="0 0 0 0 0 0 0 0 0 0 0 0 0 0 0 0 0 0 127 0"/>
<feOffset dy="4"/>
<feGaussianBlur stdDeviation="2"/>
<feColorMatrix type="matrix" values="0 0 0 0 0 0 0 0 0 0 0 0 0 0 0 0 0 0 0.15 0"/>
<feBlend mode="normal" in2="BackgroundImageFix" result="effect1_dropShadow"/>
<feBlend mode="normal" in="SourceGraphic" in2="effect1_dropShadow" result="shape"/>
</filter>
<filter id="filter16_d" x="30" y="200" width="410" height="55" filterUnits="userSpaceOnUse" color-interpolation-filters="sRGB">
<feFlood flood-opacity="0" result="BackgroundImageFix"/>
<feColorMatrix in="SourceAlpha" type="matrix" values="0 0 0 0 0 0 0 0 0 0 0 0 0 0 0 0 0 0 127 0"/>
<feOffset dy="4"/>
<feGaussianBlur stdDeviation="2"/>
<feColorMatrix type="matrix" values="0 0 0 0 0 0 0 0 0 0 0 0 0 0 0 0 0 0 0.15 0"/>
<feBlend mode="normal" in2="BackgroundImageFix" result="effect1_dropShadow"/>
<feBlend mode="normal" in="SourceGraphic" in2="effect1_dropShadow" result="shape"/>
</filter>
<filter id="filter17_d" x="442" y="73" width="24" height="47" filterUnits="userSpaceOnUse" color-interpolation-filters="sRGB">
<feFlood flood-opacity="0" result="BackgroundImageFix"/>
<feColorMatrix in="SourceAlpha" type="matrix" values="0 0 0 0 0 0 0 0 0 0 0 0 0 0 0 0 0 0 127 0"/>
<feOffset dy="4"/>
<feGaussianBlur stdDeviation="2"/>
<feColorMatrix type="matrix" values="0 0 0 0 0 0 0 0 0 0 0 0 0 0 0 0 0 0 0.15 0"/>
<feBlend mode="normal" in2="BackgroundImageFix" result="effect1_dropShadow"/>
<feBlend mode="normal" in="SourceGraphic" in2="effect1_dropShadow" result="shape"/>
</filter>
</defs>
</svg>
